<svg width="176" height="32" viewBox="0 0 176 32" fill="none" xmlns="http://www.w3.org/2000/svg">
<path d="M16 0L19.5922 11.0557H31.2169L21.8123 17.8885L25.4046 28.9443L16 22.1115L6.59544 28.9443L10.1877 17.8885L0.783095 11.0557H12.4078L16 0Z" fill="#FFB340"/>
<path d="M52 0L55.5922 11.0557H67.2169L57.8123 17.8885L61.4046 28.9443L52 22.1115L42.5954 28.9443L46.1877 17.8885L36.7831 11.0557H48.4078L52 0Z" fill="#FFB340"/>
<path d="M88 0L91.5922 11.0557H103.217L93.8123 17.8885L97.4046 28.9443L88 22.1115L78.5954 28.9443L82.1877 17.8885L72.7831 11.0557H84.4078L88 0Z" fill="#FFB340"/>
<path d="M124 0L127.592 11.0557H139.217L129.812 17.8885L133.405 28.9443L124 22.1115L114.595 28.9443L118.188 17.8885L108.783 11.0557H120.408L124 0Z" fill="#FFB340"/>
<path opacity="0.25" d="M160 0L163.592 11.0557H175.217L165.812 17.8885L169.405 28.9443L160 22.1115L150.595 28.9443L154.188 17.8885L144.783 11.0557H156.408L160 0Z" fill="#A7A7A7"/>
</svg>
