<svg width="136" height="25" viewBox="0 0 136 25" fill="none" xmlns="http://www.w3.org/2000/svg">
<path d="M12 0.5L14.6942 8.7918H23.4127L16.3593 13.9164L19.0534 22.2082L12 17.0836L4.94658 22.2082L7.64074 13.9164L0.587322 8.7918H9.30583L12 0.5Z" fill="#FFB340"/>
<path d="M40 0.5L42.6942 8.7918H51.4127L44.3593 13.9164L47.0534 22.2082L40 17.0836L32.9466 22.2082L35.6407 13.9164L28.5873 8.7918H37.3058L40 0.5Z" fill="#FFB340"/>
<path d="M68 0.5L70.6942 8.7918H79.4127L72.3593 13.9164L75.0534 22.2082L68 17.0836L60.9466 22.2082L63.6407 13.9164L56.5873 8.7918H65.3058L68 0.5Z" fill="#FFB340"/>
<path d="M96 0.5L98.6942 8.7918H107.413L100.359 13.9164L103.053 22.2082L96 17.0836L88.9466 22.2082L91.6407 13.9164L84.5873 8.7918H93.3058L96 0.5Z" fill="#FFB340"/>
<path d="M124 0.5L126.694 8.7918H135.413L128.359 13.9164L131.053 22.2082L124 17.0836L116.947 22.2082L119.641 13.9164L112.587 8.7918H121.306L124 0.5Z" fill="#FFB340"/>
</svg>
