<svg width="46" height="34" viewBox="0 0 46 34" fill="none" xmlns="http://www.w3.org/2000/svg">
<path d="M0 29.9136C0 31.8694 1.71701 33.4562 3.83333 33.4562H42.1667C44.283 33.4562 46 31.8694 46 29.9136V16.924H0V29.9136ZM15.3333 24.8949C15.3333 24.4078 15.7646 24.0092 16.2917 24.0092H27.1528C27.6799 24.0092 28.1111 24.4078 28.1111 24.8949V27.8471C28.1111 28.3342 27.6799 28.7327 27.1528 28.7327H16.2917C15.7646 28.7327 15.3333 28.3342 15.3333 27.8471V24.8949ZM5.11111 24.8949C5.11111 24.4078 5.54236 24.0092 6.06944 24.0092H11.8194C12.3465 24.0092 12.7778 24.4078 12.7778 24.8949V27.8471C12.7778 28.3342 12.3465 28.7327 11.8194 28.7327H6.06944C5.54236 28.7327 5.11111 28.3342 5.11111 27.8471V24.8949ZM46 3.93432V7.47695H0V3.93432C0 1.9785 1.71701 0.391693 3.83333 0.391693H42.1667C44.283 0.391693 46 1.9785 46 3.93432Z" fill="#0198E9" fill-opacity="0.8"/>
</svg>
