<svg width="37" height="16" viewBox="0 0 37 16" fill="none" xmlns="http://www.w3.org/2000/svg">
<path d="M33.5606 8.74216L25.7793 7.57886L26.8108 12.0025L33.5606 8.74216Z" fill="#D12053"/>
<path d="M33.567 8.74227L27.7035 0.970215L25.7871 7.58038L33.567 8.74227Z" fill="#E2136E"/>
<path d="M25.5969 7.49063L19.4531 0L27.4986 0.916905L25.5969 7.49063Z" fill="#D12053"/>
<path d="M22.7963 4.36077L19.3848 1.2937H20.2828L22.7963 4.36077Z" fill="#9E1638"/>
<path d="M35.2179 4.96387L33.774 8.70014L31.4336 5.61201L35.2179 4.96387Z" fill="#D12053"/>
<path d="M27.7207 11.7786L33.3861 9.60738L33.6238 8.91724L27.7207 11.7786Z" fill="#E2136E"/>
<path d="M23.1895 15.876L25.6164 7.75391L26.8475 13.0384L23.1895 15.876Z" fill="#9E1638"/>
<path d="M35.4467 4.99341L34.851 6.53606L36.9991 6.50246L35.4467 4.99341ZM0.744141 5.61215C0.848322 5.62055 0.95397 5.63875 1.06549 5.63875C1.17701 5.63875 1.26798 5.62055 1.38683 5.61215V8.89763C1.72579 8.34749 2.15279 7.98492 2.78081 7.98492C3.91653 7.98492 4.40368 9.05722 4.40368 10.0427C4.40368 11.2228 3.74338 12.3525 2.58565 12.3525C2.35386 12.3574 2.12509 12.3016 1.92412 12.1913C1.72316 12.081 1.55765 11.9204 1.44553 11.7268C1.25184 11.8891 1.08016 12.0837 0.896744 12.2601H0.75001L0.744141 5.61215ZM1.37216 10.4445C1.37216 11.402 1.79769 12.0697 2.49761 12.0697C3.40589 12.0697 3.69789 10.905 3.69789 10.0791C3.69789 9.12021 3.36627 8.36569 2.57978 8.35729C1.66123 8.35029 1.37216 9.38759 1.37216 10.4459V10.4445Z" fill="#E2136E"/>
<path d="M7.36494 7.73692L6.68116 8.57683C7.32385 9.47274 7.99002 10.3505 8.63565 11.2576L9.28715 12.2375V12.2865C9.12721 12.2767 8.98194 12.2571 8.84695 12.2571C8.71195 12.2571 8.54174 12.2767 8.39794 12.2865C8.22039 11.9729 8.04431 11.6831 7.84329 11.3989L6.08249 8.9142C6.04287 8.875 5.94749 8.8442 5.94749 8.8848V12.2865C5.81837 12.2767 5.70538 12.2571 5.59386 12.2571C5.48235 12.2571 5.35322 12.2767 5.24023 12.2865V5.61193C5.35322 5.62033 5.47501 5.64133 5.59386 5.64133C5.71272 5.64133 5.81837 5.62033 5.94749 5.61193V8.62443C5.94749 8.68322 6.06781 8.64402 6.14705 8.56563C6.29989 8.41446 6.44297 8.25458 6.57551 8.08688L8.55495 5.60913C8.65913 5.61753 8.76331 5.63853 8.87629 5.63853C8.98928 5.63853 9.07585 5.61753 9.1903 5.60913L7.36494 7.73692ZM12.6899 11.5347C12.6899 11.8819 12.6664 12.0583 13.1404 11.9435V12.1381C13.0629 12.1751 12.9818 12.2046 12.8983 12.2263C12.4801 12.3061 12.1338 12.2347 12.0692 11.7125L11.9973 11.7895C11.8575 11.9643 11.6772 12.1058 11.4705 12.2029C11.2638 12.3001 11.0363 12.3502 10.8058 12.3494C10.2365 12.3494 9.73762 11.9211 9.73762 11.2646C9.73762 10.2525 10.4713 10.1195 11.224 9.98649C11.8609 9.8717 12.078 9.8185 12.078 9.39155C12.078 8.73361 11.7405 8.35285 11.1375 8.35285C10.9315 8.349 10.7293 8.40562 10.5582 8.51503C10.387 8.62445 10.2553 8.78138 10.1808 8.96459H10.0927V8.47184C10.4548 8.1713 10.9145 7.99922 11.3942 7.98469C12.238 7.98469 12.6972 8.47184 12.6972 9.47554L12.6899 11.5347ZM12.0472 10.0691L11.764 10.1307C11.2167 10.2455 10.3965 10.3337 10.3965 11.1442C10.3965 11.7041 10.6899 11.9841 11.1829 11.9841C11.438 11.9541 11.6712 11.8318 11.8344 11.6425C11.8931 11.5781 12.0545 11.4269 12.0545 11.3625L12.0472 10.0691ZM14.1235 11.4171C14.3142 11.7657 14.6693 12.0779 15.0479 12.0779C15.2639 12.0674 15.4672 11.977 15.6145 11.826C15.7619 11.6749 15.8418 11.4751 15.8373 11.2688C15.8373 10.0705 13.9371 10.8488 13.9371 9.29776C13.9371 8.44664 14.5241 7.98609 15.2475 7.98609C15.5673 7.97937 15.8828 8.05888 16.1572 8.21567C16.078 8.42104 16.0142 8.63155 15.9665 8.8456H15.8931C15.7874 8.55303 15.5072 8.25906 15.2093 8.25906C14.8073 8.25906 14.4756 8.51804 14.4756 8.99819C14.4756 10.1335 16.3759 9.52873 16.3759 10.9496C16.3759 11.9001 15.604 12.3494 14.8938 12.3494C14.5382 12.3492 14.19 12.2521 13.8902 12.0695C13.9622 11.8565 14.0186 11.639 14.0589 11.4185L14.1235 11.4171ZM17.4587 5.61193C17.5659 5.62033 17.67 5.63853 17.7816 5.63853C17.8931 5.63853 17.9841 5.62033 18.1044 5.61193V8.8442C18.3861 8.30246 18.8278 7.98469 19.4 7.98469C20.3333 7.98469 20.6957 8.59503 20.6957 9.71492V12.2865C20.5739 12.2767 20.48 12.2599 20.3729 12.2599C20.2658 12.2599 20.1557 12.2781 20.0501 12.2865V9.91789C20.0501 8.93799 19.8432 8.44384 19.1579 8.44384C18.4331 8.44384 18.1044 8.94219 18.1044 9.8647V12.2865C17.9841 12.2767 17.8887 12.2599 17.7816 12.2599C17.6744 12.2599 17.5673 12.2781 17.4587 12.2865V5.61193Z" fill="#231F20"/>
</svg>
