<svg width="24" height="21" viewBox="0 0 24 21" fill="none" xmlns="http://www.w3.org/2000/svg">
<path d="M20.9221 3.26151L20.927 3.26694L20.932 3.27226C21.6648 4.0529 22.108 5.06526 22.3917 6.38628C22.7109 8.32411 22.3418 10.0717 21.1436 11.8005L21.1435 11.8004L21.136 11.8117C20.2064 13.206 19.0394 14.5025 17.383 15.8677L17.3829 15.8676L17.3735 15.8756C15.7702 17.2421 13.9958 18.4329 11.9497 19.5761C11.7914 19.6609 11.7261 19.6714 11.635 19.6714C11.544 19.6714 11.4787 19.6609 11.3205 19.5762C8.97513 18.2647 7.13058 17.0017 5.53249 15.5852L5.52483 15.5784L5.51697 15.5718C4.37783 14.6164 3.14925 13.4538 2.17719 11.9515L2.1772 11.9515L2.17539 11.9487C1.32524 10.6475 0.885762 9.31652 0.834578 7.87087C0.784732 6.35286 1.26433 4.87316 2.26914 3.54043C3.19078 2.40957 4.40941 1.7246 5.96369 1.55614C7.42086 1.45549 8.66454 1.73171 9.72897 2.36996C10.2707 2.69851 10.7573 3.13271 11.1483 3.57462L11.7407 4.24436L12.2971 3.54437C13.3113 2.26843 14.745 1.55555 16.5395 1.50269H16.7725C18.4746 1.50269 19.8587 2.08365 20.9221 3.26151Z" stroke="#999999" stroke-opacity="0.4" stroke-width="1.5"/>
</svg>
