<svg width="28" height="28" viewBox="0 0 28 28" fill="none" xmlns="http://www.w3.org/2000/svg">
<path d="M11.6673 21.0002C13.7381 20.9997 15.7493 20.3065 17.3805 19.0308L22.5092 24.1595L24.1588 22.5098L19.0302 17.3812C20.3065 15.7498 21.0002 13.7382 21.0007 11.6668C21.0007 6.52066 16.8135 2.3335 11.6673 2.3335C6.52115 2.3335 2.33398 6.52066 2.33398 11.6668C2.33398 16.813 6.52115 21.0002 11.6673 21.0002ZM11.6673 4.66683C15.5278 4.66683 18.6673 7.80633 18.6673 11.6668C18.6673 15.5273 15.5278 18.6668 11.6673 18.6668C7.80682 18.6668 4.66732 15.5273 4.66732 11.6668C4.66732 7.80633 7.80682 4.66683 11.6673 4.66683Z" fill="white"/>
</svg>
