<svg width="61" height="45" viewBox="0 0 61 45" fill="none" xmlns="http://www.w3.org/2000/svg">
<path d="M59.475 30.9726H57.95V21.5981C57.95 20.4968 57.4639 19.4388 56.6061 18.6583L47.0844 9.99493C46.2266 9.21444 45.0638 8.77217 43.8533 8.77217H39.65V4.60958C39.65 2.31148 37.6008 0.446991 35.075 0.446991H4.575C2.04922 0.446991 0 2.31148 0 4.60958V32.3602C0 34.6583 2.04922 36.5228 4.575 36.5228H6.1C6.1 41.1189 10.1984 44.8479 15.25 44.8479C20.3016 44.8479 24.4 41.1189 24.4 36.5228H36.6C36.6 41.1189 40.6984 44.8479 45.75 44.8479C50.8016 44.8479 54.9 41.1189 54.9 36.5228H59.475C60.3137 36.5228 61 35.8984 61 35.1352V32.3602C61 31.597 60.3137 30.9726 59.475 30.9726ZM15.25 40.6853C12.7242 40.6853 10.675 38.8209 10.675 36.5228C10.675 34.2247 12.7242 32.3602 15.25 32.3602C17.7758 32.3602 19.825 34.2247 19.825 36.5228C19.825 38.8209 17.7758 40.6853 15.25 40.6853ZM45.75 40.6853C43.2242 40.6853 41.175 38.8209 41.175 36.5228C41.175 34.2247 43.2242 32.3602 45.75 32.3602C48.2758 32.3602 50.325 34.2247 50.325 36.5228C50.325 38.8209 48.2758 40.6853 45.75 40.6853ZM53.375 22.6475H39.65V12.9348H43.8533L53.375 21.5981V22.6475Z" fill="#0198E9" fill-opacity="0.8"/>
</svg>
