<svg width="30" height="29" viewBox="0 0 30 29" fill="none" xmlns="http://www.w3.org/2000/svg">
<path d="M1.40625 7.15503V18.7821H20.1562V11.627V7.15503H1.40625Z" fill="#D1D3D4"/>
<path d="M26.25 12.5216V16.0991H23.4375V11.6272H25.3125C25.5609 11.6279 25.7989 11.7224 25.9746 11.8899C26.1502 12.0575 26.2493 12.2846 26.25 12.5216Z" fill="#E6E7E8"/>
<path d="M1.40625 18.7822H20.1562V22.3598H1.40625V18.7822Z" fill="#FF9811"/>
<path d="M28.5938 17.4407V22.3599H20.1562V18.7823V11.6272H23.4375V16.0991H26.25V16.1618L28.5938 17.4407Z" fill="#FF9811"/>
<path d="M5.15625 24.1486C6.19178 24.1486 7.03125 23.3477 7.03125 22.3598C7.03125 21.3719 6.19178 20.571 5.15625 20.571C4.12072 20.571 3.28125 21.3719 3.28125 22.3598C3.28125 23.3477 4.12072 24.1486 5.15625 24.1486Z" fill="#57565C"/>
<path d="M9.375 24.1486C10.4105 24.1486 11.25 23.3477 11.25 22.3598C11.25 21.3719 10.4105 20.571 9.375 20.571C8.33947 20.571 7.5 21.3719 7.5 22.3598C7.5 23.3477 8.33947 24.1486 9.375 24.1486Z" fill="#57565C"/>
<path d="M24.8438 24.1486C25.8793 24.1486 26.7188 23.3477 26.7188 22.3598C26.7188 21.3719 25.8793 20.571 24.8438 20.571C23.8082 20.571 22.9688 21.3719 22.9688 22.3598C22.9688 23.3477 23.8082 24.1486 24.8438 24.1486Z" fill="#57565C"/>
<path d="M26.7188 18.335H28.5938V20.1237H26.7188V18.335Z" fill="#FFC477"/>
<path d="M23.4375 17.4407H25.3125V18.3351H23.4375V17.4407Z" fill="#EE8700"/>
<path d="M0.9375 24.1484H29.0625V25.0428H0.9375V24.1484Z" fill="#57565C"/>
<path d="M9.375 4.91919H15V5.81358H9.375V4.91919Z" fill="#FF9811"/>
<path d="M7.5 3.13037H13.125V4.02476H7.5V3.13037Z" fill="#FF9811"/>
<path d="M5.625 3.13037H6.5625V4.02476H5.625V3.13037Z" fill="#FF9811"/>
<path d="M10.7812 15.2046H10.3125C9.93954 15.2046 9.58185 15.0633 9.31813 14.8117C9.05441 14.5601 8.90625 14.2188 8.90625 13.863V12.0743C8.90625 11.7184 9.05441 11.3772 9.31813 11.1256C9.58185 10.874 9.93954 10.7327 10.3125 10.7327H10.7812C11.1542 10.7327 11.5119 10.874 11.7756 11.1256C12.0393 11.3772 12.1875 11.7184 12.1875 12.0743V13.863C12.1875 14.2188 12.0393 14.5601 11.7756 14.8117C11.5119 15.0633 11.1542 15.2046 10.7812 15.2046ZM10.3125 11.6271C10.1882 11.6271 10.069 11.6742 9.98104 11.758C9.89314 11.8419 9.84375 11.9556 9.84375 12.0743V13.863C9.84375 13.9816 9.89314 14.0954 9.98104 14.1792C10.069 14.2631 10.1882 14.3102 10.3125 14.3102H10.7812C10.9056 14.3102 11.0248 14.2631 11.1127 14.1792C11.2006 14.0954 11.25 13.9816 11.25 13.863V12.0743C11.25 11.9556 11.2006 11.8419 11.1127 11.758C11.0248 11.6742 10.9056 11.6271 10.7812 11.6271H10.3125Z" fill="#EE8700"/>
<path d="M15 15.2046H13.5938C13.4694 15.2046 13.3502 15.1575 13.2623 15.0736C13.1744 14.9898 13.125 14.876 13.125 14.7574V11.1799C13.125 11.0613 13.1744 10.9475 13.2623 10.8636C13.3502 10.7798 13.4694 10.7327 13.5938 10.7327H15C15.373 10.7327 15.7306 10.874 15.9944 11.1256C16.2581 11.3772 16.4062 11.7184 16.4062 12.0743V13.863C16.4062 14.2188 16.2581 14.5601 15.9944 14.8117C15.7306 15.0633 15.373 15.2046 15 15.2046ZM14.0625 14.3102H15C15.1243 14.3102 15.2435 14.2631 15.3315 14.1792C15.4194 14.0954 15.4688 13.9816 15.4688 13.863V12.0743C15.4688 11.9556 15.4194 11.8419 15.3315 11.758C15.2435 11.6742 15.1243 11.6271 15 11.6271H14.0625V14.3102Z" fill="#EE8700"/>
<path d="M6.5625 15.2046H6.09375C5.72079 15.2046 5.3631 15.0633 5.09938 14.8117C4.83566 14.5601 4.6875 14.2188 4.6875 13.863V12.0743C4.6875 11.7184 4.83566 11.3772 5.09938 11.1256C5.3631 10.874 5.72079 10.7327 6.09375 10.7327H6.5625C6.93546 10.7327 7.29315 10.874 7.55687 11.1256C7.82059 11.3772 7.96875 11.7184 7.96875 12.0743H7.03125C7.03125 11.9556 6.98186 11.8419 6.89396 11.758C6.80605 11.6742 6.68682 11.6271 6.5625 11.6271H6.09375C5.96943 11.6271 5.8502 11.6742 5.76229 11.758C5.67439 11.8419 5.625 11.9556 5.625 12.0743V13.863C5.625 13.9816 5.67439 14.0954 5.76229 14.1792C5.8502 14.2631 5.96943 14.3102 6.09375 14.3102H6.5625C6.68682 14.3102 6.80605 14.2631 6.89396 14.1792C6.98186 14.0954 7.03125 13.9816 7.03125 13.863H7.96875C7.96875 14.2188 7.82059 14.5601 7.55687 14.8117C7.29315 15.0633 6.93546 15.2046 6.5625 15.2046Z" fill="#EE8700"/>
<path d="M4.6875 21.9126H5.625V22.807H4.6875V21.9126Z" fill="#3E3D42"/>
<path d="M8.90625 21.9126H9.84375V22.807H8.90625V21.9126Z" fill="#3E3D42"/>
<path d="M24.375 21.9126H25.3125V22.807H24.375V21.9126Z" fill="#3E3D42"/>
</svg>
