<svg width="16" height="16" viewBox="0 0 16 16" fill="none" xmlns="http://www.w3.org/2000/svg">
<g clip-path="url(#clip0_1_11643)">
<path fill-rule="evenodd" clip-rule="evenodd" d="M7.99984 0.666748C3.94984 0.666748 0.666504 3.95008 0.666504 8.00008C0.666504 12.0501 3.94984 15.3334 7.99984 15.3334C12.0498 15.3334 15.3332 12.0501 15.3332 8.00008C15.3332 3.95008 12.0498 0.666748 7.99984 0.666748ZM11.1785 6.76008C11.237 6.69318 11.2816 6.61524 11.3096 6.53086C11.3375 6.44648 11.3483 6.35736 11.3414 6.26874C11.3344 6.18012 11.3097 6.09379 11.2689 6.01483C11.228 5.93588 11.1718 5.86588 11.1035 5.80898C11.0352 5.75207 10.9563 5.70939 10.8712 5.68346C10.7862 5.65752 10.6969 5.64886 10.6084 5.65797C10.52 5.66708 10.4343 5.69378 10.3563 5.7365C10.2784 5.77923 10.2098 5.83711 10.1545 5.90675L7.28784 9.34608L5.8045 7.86208C5.67877 7.74064 5.51037 7.67345 5.33557 7.67496C5.16077 7.67648 4.99356 7.7466 4.86996 7.8702C4.74635 7.99381 4.67624 8.16102 4.67472 8.33581C4.6732 8.51061 4.7404 8.67901 4.86184 8.80475L6.86184 10.8047C6.92734 10.8702 7.00577 10.9213 7.09211 10.9548C7.17846 10.9883 7.27084 11.0034 7.36335 10.9992C7.45586 10.995 7.54649 10.9715 7.62944 10.9304C7.7124 10.8892 7.78587 10.8312 7.84517 10.7601L11.1785 6.76008Z" fill="#3AB137"/>
</g>
<defs>
<clipPath id="clip0_1_11643">
<rect width="16" height="16" fill="white"/>
</clipPath>
</defs>
</svg>
