<svg width="91" height="14" viewBox="0 0 91 14" fill="none" xmlns="http://www.w3.org/2000/svg">
<path d="M14.2318 4.68973L10.1356 4.10703L8.30516 0.486992C8.14061 0.163516 7.81962 0 7.49864 0C7.17961 0 6.86087 0.161328 6.69576 0.486992L4.86471 4.10676L0.768306 4.68891C0.0337063 4.79281 -0.260693 5.67574 0.271857 6.1816L3.23516 8.99801L2.53386 12.976C2.43424 13.5442 2.89851 14 3.41846 14C3.55643 14 3.69831 13.968 3.8346 13.8975L7.4992 12.0195L11.1635 13.898C11.2995 13.9677 11.4411 13.9995 11.5785 13.9995C12.0991 13.9995 12.5642 13.5453 12.4645 12.9768L11.7641 8.99855L14.7279 6.1827C15.2608 5.67684 14.9664 4.79363 14.2318 4.68973ZM10.8249 8.05848L10.3178 8.54027L10.4376 9.22059L10.9839 12.3227H11.5785L10.9615 8.75L13.8462 5.86059L8.92838 4.68754L9.24125 5.30633L9.94115 5.40586L13.1378 5.86059L10.8249 8.05848Z" fill="#FFB340"/>
<path d="M33.2318 4.68973L29.1356 4.10703L27.3052 0.486992C27.1406 0.163516 26.8196 0 26.4986 0C26.1796 0 25.8609 0.161328 25.6958 0.486992L23.8647 4.10676L19.7683 4.68891C19.0337 4.79281 18.7393 5.67574 19.2719 6.1816L22.2352 8.99801L21.5339 12.976C21.4342 13.5442 21.8985 14 22.4185 14C22.5564 14 22.6983 13.968 22.8346 13.8975L26.4992 12.0195L30.1635 13.898C30.2995 13.9677 30.4411 13.9995 30.5785 13.9995C31.0991 13.9995 31.5642 13.5453 31.4645 12.9768L30.7641 8.99855L33.7279 6.1827C34.2608 5.67684 33.9664 4.79363 33.2318 4.68973ZM29.8249 8.05848L29.3178 8.54027L29.4376 9.22059L29.9839 12.3227H30.5785L29.9615 8.75L32.8462 5.86059L27.9284 4.68754L28.2412 5.30633L28.9411 5.40586L32.1378 5.86059L29.8249 8.05848Z" fill="#FFB340"/>
<path d="M52.2318 4.68973L48.1356 4.10703L46.3052 0.486992C46.1406 0.163516 45.8196 0 45.4986 0C45.1796 0 44.8609 0.161328 44.6958 0.486992L42.8647 4.10676L38.7683 4.68891C38.0337 4.79281 37.7393 5.67574 38.2719 6.1816L41.2352 8.99801L40.5339 12.976C40.4342 13.5442 40.8985 14 41.4185 14C41.5564 14 41.6983 13.968 41.8346 13.8975L45.4992 12.0195L49.1635 13.898C49.2995 13.9677 49.4411 13.9995 49.5785 13.9995C50.0991 13.9995 50.5642 13.5453 50.4645 12.9768L49.7641 8.99855L52.7279 6.1827C53.2608 5.67684 52.9664 4.79363 52.2318 4.68973ZM48.8249 8.05848L48.3178 8.54027L48.4376 9.22059L48.9839 12.3227H49.5785L48.9615 8.75L51.8462 5.86059L46.9284 4.68754L47.2412 5.30633L47.9411 5.40586L51.1378 5.86059L48.8249 8.05848Z" fill="#FFB340"/>
<path d="M71.2318 4.68973L67.1356 4.10703L65.3052 0.486992C65.1406 0.163516 64.8196 0 64.4986 0C64.1796 0 63.8609 0.161328 63.6958 0.486992L61.8647 4.10676L57.7683 4.68891C57.0337 4.79281 56.7393 5.67574 57.2719 6.1816L60.2352 8.99801L59.5339 12.976C59.4342 13.5442 59.8985 14 60.4185 14C60.5564 14 60.6983 13.968 60.8346 13.8975L64.4992 12.0195L68.1635 13.898C68.2995 13.9677 68.4411 13.9995 68.5785 13.9995C69.0991 13.9995 69.5642 13.5453 69.4645 12.9768L68.7641 8.99855L71.7279 6.1827C72.2608 5.67684 71.9664 4.79363 71.2318 4.68973ZM67.8249 8.05848L67.3178 8.54027L67.4376 9.22059L67.9839 12.3227H68.5785L67.9615 8.75L70.8462 5.86059L65.9284 4.68754L66.2412 5.30633L66.9411 5.40586L70.1378 5.86059L67.8249 8.05848Z" fill="#FFB340"/>
<path d="M90.2318 4.68973L86.1356 4.10703L84.3052 0.486992C84.1406 0.163516 83.8196 0 83.4986 0C83.1796 0 82.8609 0.161328 82.6958 0.486992L80.8647 4.10676L76.7683 4.68891C76.0337 4.79281 75.7393 5.67574 76.2719 6.1816L79.2352 8.99801L78.5339 12.976C78.4342 13.5442 78.8985 14 79.4185 14C79.5564 14 79.6983 13.968 79.8346 13.8975L83.4992 12.0195L87.1635 13.898C87.2995 13.9677 87.4411 13.9995 87.5785 13.9995C88.0991 13.9995 88.5642 13.5453 88.4645 12.9768L87.7641 8.99855L90.7279 6.1827C91.2608 5.67684 90.9664 4.79363 90.2318 4.68973ZM86.8249 8.05848L86.3178 8.54027L86.4376 9.22059L86.9839 12.3227L84.1258 10.8574L83.4995 10.5364L83.5003 1.8632L84.9284 4.68754L85.2412 5.30633L85.9411 5.40586L89.1378 5.86059L86.8249 8.05848Z" fill="#FFB340"/>
</svg>
