<svg width="24" height="21" viewBox="0 0 24 21" fill="none" xmlns="http://www.w3.org/2000/svg">
<path d="M23.1278 6.47129C22.8278 5.06504 22.3403 3.90254 21.4778 2.98379C20.259 1.63379 18.6653 0.977539 16.7715 0.977539H16.5278C14.5215 1.03379 12.8715 1.84004 11.709 3.30254C11.2778 2.81504 10.734 2.32754 10.1153 1.95254C8.89654 1.22129 7.49029 0.921289 5.89654 1.03379C4.13404 1.22129 2.72779 2.00879 1.67779 3.30254C0.571537 4.76504 0.0277871 6.41504 0.0840371 8.12129C0.140287 9.71504 0.627787 11.1775 1.54654 12.5838C2.57779 14.1775 3.87154 15.3963 5.03404 16.3713C6.68404 17.8338 8.57779 19.1275 10.959 20.4588C11.2028 20.59 11.3903 20.6463 11.634 20.6463C11.8778 20.6463 12.0653 20.59 12.309 20.4588C14.3903 19.2963 16.209 18.0775 17.859 16.6713C19.5653 15.265 20.784 13.915 21.759 12.4525C23.0715 10.5588 23.484 8.60879 23.1278 6.47129Z" fill="#FF5555"/>
</svg>
