<svg width="24" height="24" viewBox="0 0 24 24" fill="none" xmlns="http://www.w3.org/2000/svg">
<path d="M6.98918 13.8777L6.36263 16.2167L4.07258 16.2652C3.3882 14.9958 3 13.5435 3 12.0001C3 10.5077 3.36295 9.10031 4.00631 7.86108H4.0068L6.04559 8.23486L6.9387 10.2614C6.75177 10.8064 6.64989 11.3914 6.64989 12.0001C6.64996 12.6608 6.76963 13.2937 6.98918 13.8777Z" fill="#FBBB00"/>
<path d="M20.8431 10.3186C20.9465 10.863 21.0004 11.4253 21.0004 11.9999C21.0004 12.6443 20.9326 13.2728 20.8036 13.8791C20.3655 15.9421 19.2207 17.7436 17.6348 19.0184L17.6343 19.0179L15.0664 18.8869L14.7029 16.6181C15.7552 16.001 16.5776 15.0352 17.0108 13.8791H12.1982V10.3186H17.081H20.8431Z" fill="#518EF8"/>
<path d="M17.6336 19.0181L17.6341 19.0185C16.0917 20.2583 14.1325 21 11.9997 21C8.57227 21 5.59239 19.0843 4.07227 16.2651L6.98886 13.8777C7.74891 15.9061 9.70567 17.3501 11.9997 17.3501C12.9857 17.3501 13.9095 17.0835 14.7021 16.6182L17.6336 19.0181Z" fill="#28B446"/>
<path d="M17.7442 5.07197L14.8286 7.45894C14.0082 6.94615 13.0385 6.64992 11.9995 6.64992C9.65361 6.64992 7.66025 8.16013 6.93828 10.2613L4.00635 7.86098H4.00586C5.50373 4.97307 8.52119 3 11.9995 3C14.1833 3 16.1855 3.77787 17.7442 5.07197Z" fill="#F14336"/>
</svg>
