<svg width="80" height="59" viewBox="0 0 80 59" fill="none" xmlns="http://www.w3.org/2000/svg">
<path d="M64 8.04545C60.7547 8.04545 57.88 9.54191 55.9227 11.8483C55.9707 12.3605 56 12.8835 56 13.4091C56 16.3966 55.1707 19.1884 53.752 21.5913C54.992 26.1343 59.0933 29.5 64 29.5C69.8827 29.5 74.6667 24.6888 74.6667 18.7727C74.6667 12.8566 69.8827 8.04545 64 8.04545Z" fill="#0198E9"/>
<path d="M24 13.4091C24 12.8835 24.0293 12.3605 24.0773 11.8483C22.12 9.54191 19.2453 8.04545 16 8.04545C10.1173 8.04545 5.33333 12.8566 5.33333 18.7727C5.33333 24.6888 10.1173 29.5 16 29.5C20.9067 29.5 25.0053 26.1343 26.2453 21.5913C24.8293 19.1884 24 16.3966 24 13.4091Z" fill="#0198E9"/>
<path d="M40 26.8182C32.648 26.8182 26.6667 20.8029 26.6667 13.4091C26.6667 6.01532 32.648 0 40 0C47.352 0 53.3333 6.01532 53.3333 13.4091C53.3333 20.8029 47.352 26.8182 40 26.8182Z" fill="#0198E9"/>
<path d="M14.816 34.8636H8C3.58933 34.8636 0 38.4734 0 42.9091V53.6364C0 55.1194 1.19467 56.3182 2.66667 56.3182H13.3333V40.2273C13.3333 38.2669 13.8987 36.4486 14.816 34.8636Z" fill="#0198E9"/>
<path d="M72 34.8636H65.1813C66.1013 36.4486 66.6667 38.2669 66.6667 40.2273V56.3182H77.3333C78.808 56.3182 80 55.1194 80 53.6364V42.9091C80 38.4734 76.4107 34.8636 72 34.8636Z" fill="#0198E9"/>
<path d="M61.3333 59H18.6667C17.1947 59 16 57.8012 16 56.3182V40.2273C16 35.7915 19.5893 32.1818 24 32.1818H56C60.4107 32.1818 64 35.7915 64 40.2273V56.3182C64 57.8012 62.808 59 61.3333 59Z" fill="#0198E9"/>
</svg>
