<svg width="48" height="51" viewBox="0 0 48 51" fill="none" xmlns="http://www.w3.org/2000/svg">
<path d="M18 20.7151C18 18.955 16.6566 17.5276 15 17.5276H13.5C10.1859 17.5276 7.5 20.3814 7.5 23.9026V28.6838C7.5 32.205 10.1859 35.0588 13.5 35.0588H15C16.6566 35.0588 18 33.6314 18 31.8713V20.7151ZM34.5 35.0588C37.8141 35.0588 40.5 32.205 40.5 28.6838V23.9026C40.5 20.3814 37.8141 17.5276 34.5 17.5276H33C31.3434 17.5276 30 18.955 30 20.7151V31.8713C30 33.6314 31.3434 35.0588 33 35.0588H34.5ZM24 -0.00366211C10.6106 -0.00366211 0.429375 11.8329 0 25.4963V27.0901C0 27.9706 0.67125 28.6838 1.5 28.6838H3C3.82875 28.6838 4.5 27.9706 4.5 27.0901V25.4963C4.5 14.0721 13.2478 4.77759 24 4.77759C34.7522 4.77759 43.5 14.0721 43.5 25.4963H43.4888C43.4963 25.7384 43.5 42.0036 43.5 42.0036C43.5 44.3295 41.7253 46.2151 39.5363 46.2151H30C30 43.5744 27.9853 41.4338 25.5 41.4338H22.5C20.0147 41.4338 18 43.5744 18 46.2151C18 48.8557 20.0147 50.9963 22.5 50.9963H39.5363C44.2106 50.9963 48 46.9701 48 42.0036V25.4963C47.5706 11.8329 37.3894 -0.00366211 24 -0.00366211Z" fill="#8D8D8D"/>
</svg>
