<svg width="27" height="27" viewBox="0 0 27 27" fill="none" xmlns="http://www.w3.org/2000/svg">
<path fill-rule="evenodd" clip-rule="evenodd" d="M2.64897 13.0125C1.29327 8.80625 3.09688 4.39711 7.14052 3.09682C9.07588 2.47503 11.1701 2.69878 12.9224 3.69186L13.2125 3.86572L13.5078 3.69088C15.1691 2.75143 17.1398 2.5004 18.9944 3.00985L19.287 3.09688C23.3319 4.39758 25.1429 8.80881 23.7823 13.0297C23.1001 14.9931 21.9813 16.7733 20.5044 18.2406C18.4948 20.1899 16.2795 21.9113 13.9013 23.372L13.6488 23.5287C13.3925 23.6879 13.0684 23.6906 12.8094 23.5357L12.539 23.374C10.1575 21.9113 7.94219 20.1899 5.92567 18.2339C4.45573 16.7733 3.33691 14.9931 2.64897 13.0125ZM12.7444 5.49492L12.5277 5.3397C11.0915 4.35918 9.28834 4.09573 7.63439 4.6271C4.50211 5.63433 3.08207 9.10581 4.17679 12.503C4.77889 14.2359 5.76599 15.8065 7.0554 17.0878C8.98045 18.9551 11.1024 20.6039 13.3751 21.9998L13.2178 21.9008L13.7331 21.5772C15.5321 20.4171 17.2264 19.1006 18.7932 17.6463L19.3747 17.0946C20.671 15.8065 21.6581 14.2359 22.2545 12.5202C23.3539 9.10906 21.9277 5.63513 18.7937 4.62736C17.0571 4.0709 15.1614 4.38962 13.6966 5.48488C13.4154 5.69516 13.03 5.69923 12.7444 5.49492Z" fill="#3D3D3F"/>
</svg>
