<svg width="27" height="27" viewBox="0 0 27 27" fill="none" xmlns="http://www.w3.org/2000/svg">
<path d="M10.0847 22.8485V19.4751C10.0847 18.6171 10.7851 17.9199 11.6528 17.9141H14.8314C15.7032 17.9141 16.41 18.613 16.41 19.4751V19.4751V22.859C16.4098 23.5875 16.9979 24.1829 17.7344 24.2H19.8534C21.9658 24.2 23.6783 22.5067 23.6783 20.418V20.418V10.8216C23.667 9.99986 23.2768 9.22824 22.6188 8.72629L15.3717 2.95378C14.1021 1.94867 12.2973 1.94867 11.0277 2.95378L3.81244 8.73676C3.1519 9.23668 2.76106 10.0096 2.75293 10.832V20.418C2.75293 22.5067 4.46537 24.2 6.57776 24.2H8.69678C9.45163 24.2 10.0636 23.5949 10.0636 22.8485V22.8485" stroke="#0198E9" stroke-width="1.75" stroke-linecap="round" stroke-linejoin="round"/>
</svg>
