<svg width="42" height="43" viewBox="0 0 42 43" fill="none" xmlns="http://www.w3.org/2000/svg">
<circle cx="21.0997" cy="21.6294" r="20.8506" fill="url(#paint0_radial_1_13379)"/>
<circle cx="20.7527" cy="21.4807" r="20.7019" fill="url(#paint1_radial_1_13379)"/>
<path d="M28.4437 15.2927C28.4437 16.2125 27.698 16.9582 26.7782 16.9582C25.8583 16.9582 25.1127 16.2125 25.1127 15.2927C25.1127 14.3728 25.8583 13.6272 26.7782 13.6272C27.698 13.6272 28.4437 14.3728 28.4437 15.2927Z" fill="white"/>
<path fill-rule="evenodd" clip-rule="evenodd" d="M20.6713 26.9513C23.7374 26.9513 26.223 24.4657 26.223 21.3996C26.223 18.3334 23.7374 15.8479 20.6713 15.8479C17.6052 15.8479 15.1196 18.3334 15.1196 21.3996C15.1196 24.4657 17.6052 26.9513 20.6713 26.9513ZM20.6713 24.7306C22.511 24.7306 24.0023 23.2392 24.0023 21.3996C24.0023 19.5599 22.511 18.0685 20.6713 18.0685C18.8316 18.0685 17.3403 19.5599 17.3403 21.3996C17.3403 23.2392 18.8316 24.7306 20.6713 24.7306Z" fill="white"/>
<path fill-rule="evenodd" clip-rule="evenodd" d="M9.56787 20.9554C9.56787 17.2243 9.56787 15.3588 10.294 13.9337C10.9327 12.6801 11.9519 11.661 13.2054 11.0223C14.6305 10.2961 16.4961 10.2961 20.2272 10.2961H21.1154C24.8465 10.2961 26.7121 10.2961 28.1372 11.0223C29.3907 11.661 30.4099 12.6801 31.0486 13.9337C31.7747 15.3588 31.7747 17.2243 31.7747 20.9554V21.8437C31.7747 25.5748 31.7747 27.4403 31.0486 28.8654C30.4099 30.119 29.3907 31.1381 28.1372 31.7769C26.7121 32.503 24.8465 32.503 21.1154 32.503H20.2272C16.4961 32.503 14.6305 32.503 13.2054 31.7769C11.9519 31.1381 10.9327 30.119 10.294 28.8654C9.56787 27.4403 9.56787 25.5748 9.56787 21.8437V20.9554ZM20.2272 12.5168H21.1154C23.0176 12.5168 24.3107 12.5186 25.3102 12.6002C26.2838 12.6798 26.7817 12.8239 27.129 13.0009C27.9647 13.4267 28.6441 14.1062 29.0699 14.9419C29.2469 15.2892 29.3911 15.7871 29.4706 16.7606C29.5523 17.7601 29.554 19.0532 29.554 20.9554V21.8437C29.554 23.7459 29.5523 25.039 29.4706 26.0385C29.3911 27.0121 29.2469 27.5099 29.0699 27.8573C28.6441 28.693 27.9647 29.3724 27.129 29.7982C26.7817 29.9752 26.2838 30.1194 25.3102 30.1989C24.3107 30.2806 23.0176 30.2823 21.1154 30.2823H20.2272C18.325 30.2823 17.0319 30.2806 16.0324 30.1989C15.0588 30.1194 14.5609 29.9752 14.2136 29.7982C13.3779 29.3724 12.6984 28.693 12.2726 27.8573C12.0957 27.5099 11.9515 27.0121 11.8719 26.0385C11.7903 25.039 11.7886 23.7459 11.7886 21.8437V20.9554C11.7886 19.0532 11.7903 17.7601 11.8719 16.7606C11.9515 15.7871 12.0957 15.2892 12.2726 14.9419C12.6984 14.1062 13.3779 13.4267 14.2136 13.0009C14.5609 12.8239 15.0588 12.6798 16.0324 12.6002C17.0319 12.5186 18.325 12.5168 20.2272 12.5168Z" fill="white"/>
<defs>
<radialGradient id="paint0_radial_1_13379" cx="0" cy="0" r="1" gradientUnits="userSpaceOnUse" gradientTransform="translate(2.94789 41.5665) scale(52.9451)">
<stop offset="0.09" stop-color="#FA8F21"/>
<stop offset="0.78" stop-color="#D82D7E"/>
</radialGradient>
<radialGradient id="paint1_radial_1_13379" cx="0" cy="0" r="1" gradientUnits="userSpaceOnUse" gradientTransform="translate(28.7298 39.9461) scale(46.2599 45.8335)">
<stop offset="0.64" stop-color="#8C3AAA" stop-opacity="0"/>
<stop offset="1" stop-color="#8C3AAA"/>
</radialGradient>
</defs>
</svg>
