<svg width="42" height="43" viewBox="0 0 42 43" fill="none" xmlns="http://www.w3.org/2000/svg">
<circle cx="21.1006" cy="21.6294" r="20.8506" fill="url(#paint0_radial_1_4017)"/>
<circle cx="20.7527" cy="21.4808" r="20.7019" fill="url(#paint1_radial_1_4017)"/>
<path d="M28.4442 15.2926C28.4442 16.2125 27.6985 16.9581 26.7787 16.9581C25.8588 16.9581 25.1131 16.2125 25.1131 15.2926C25.1131 14.3728 25.8588 13.6271 26.7787 13.6271C27.6985 13.6271 28.4442 14.3728 28.4442 15.2926Z" fill="white"/>
<path fill-rule="evenodd" clip-rule="evenodd" d="M20.6718 26.9512C23.7379 26.9512 26.2235 24.4656 26.2235 21.3995C26.2235 18.3334 23.7379 15.8478 20.6718 15.8478C17.6057 15.8478 15.1201 18.3334 15.1201 21.3995C15.1201 24.4656 17.6057 26.9512 20.6718 26.9512ZM20.6718 24.7305C22.5115 24.7305 24.0028 23.2392 24.0028 21.3995C24.0028 19.5598 22.5115 18.0685 20.6718 18.0685C18.8321 18.0685 17.3408 19.5598 17.3408 21.3995C17.3408 23.2392 18.8321 24.7305 20.6718 24.7305Z" fill="white"/>
<path fill-rule="evenodd" clip-rule="evenodd" d="M9.56836 20.9554C9.56836 17.2243 9.56836 15.3587 10.2945 13.9336C10.9332 12.6801 11.9524 11.6609 13.2059 11.0222C14.631 10.2961 16.4965 10.2961 20.2276 10.2961H21.1159C24.847 10.2961 26.7126 10.2961 28.1377 11.0222C29.3912 11.6609 30.4104 12.6801 31.0491 13.9336C31.7752 15.3587 31.7752 17.2243 31.7752 20.9554V21.8436C31.7752 25.5747 31.7752 27.4403 31.0491 28.8654C30.4104 30.1189 29.3912 31.1381 28.1377 31.7768C26.7126 32.5029 24.847 32.5029 21.1159 32.5029H20.2276C16.4965 32.5029 14.631 32.5029 13.2059 31.7768C11.9524 31.1381 10.9332 30.1189 10.2945 28.8654C9.56836 27.4403 9.56836 25.5747 9.56836 21.8436V20.9554ZM20.2276 12.5168H21.1159C23.0181 12.5168 24.3112 12.5185 25.3107 12.6002C26.2843 12.6797 26.7822 12.8239 27.1295 13.0008C27.9652 13.4267 28.6446 14.1061 29.0704 14.9418C29.2474 15.2891 29.3916 15.787 29.4711 16.7606C29.5528 17.7601 29.5545 19.0532 29.5545 20.9554V21.8436C29.5545 23.7458 29.5528 25.0389 29.4711 26.0384C29.3916 27.012 29.2474 27.5099 29.0704 27.8572C28.6446 28.6929 27.9652 29.3723 27.1295 29.7982C26.7822 29.9751 26.2843 30.1193 25.3107 30.1988C24.3112 30.2805 23.0181 30.2822 21.1159 30.2822H20.2276C18.3254 30.2822 17.0324 30.2805 16.0329 30.1988C15.0593 30.1193 14.5614 29.9751 14.2141 29.7982C13.3784 29.3723 12.6989 28.6929 12.2731 27.8572C12.0962 27.5099 11.952 27.012 11.8724 26.0384C11.7908 25.0389 11.789 23.7458 11.789 21.8436V20.9554C11.789 19.0532 11.7908 17.7601 11.8724 16.7606C11.952 15.787 12.0962 15.2891 12.2731 14.9418C12.6989 14.1061 13.3784 13.4267 14.2141 13.0008C14.5614 12.8239 15.0593 12.6797 16.0329 12.6002C17.0324 12.5185 18.3254 12.5168 20.2276 12.5168Z" fill="white"/>
<defs>
<radialGradient id="paint0_radial_1_4017" cx="0" cy="0" r="1" gradientUnits="userSpaceOnUse" gradientTransform="translate(2.94886 41.5665) scale(52.9451)">
<stop offset="0.09" stop-color="#FA8F21"/>
<stop offset="0.78" stop-color="#D82D7E"/>
</radialGradient>
<radialGradient id="paint1_radial_1_4017" cx="0" cy="0" r="1" gradientUnits="userSpaceOnUse" gradientTransform="translate(28.7298 39.9462) scale(46.2599 45.8335)">
<stop offset="0.64" stop-color="#8C3AAA" stop-opacity="0"/>
<stop offset="1" stop-color="#8C3AAA"/>
</radialGradient>
</defs>
</svg>
