<svg width="43" height="43" viewBox="0 0 43 43" fill="none" xmlns="http://www.w3.org/2000/svg">
<circle cx="21.1971" cy="21.6322" r="20.8533" fill="#0077B5"/>
<path fill-rule="evenodd" clip-rule="evenodd" d="M16.3678 12.312C16.3678 13.4861 15.4738 14.4363 14.0758 14.4363C12.7322 14.4363 11.8382 13.4861 11.8659 12.312C11.8382 11.0808 12.7322 10.1583 14.1025 10.1583C15.4738 10.1583 16.341 11.0808 16.3678 12.312ZM11.9783 29.7905V16.1144H16.2286V29.7897H11.9783V29.7905Z" fill="white"/>
<path fill-rule="evenodd" clip-rule="evenodd" d="M19.6358 20.4788C19.6358 18.773 19.5796 17.3187 19.5234 16.1161H23.2152L23.4115 17.9897H23.4954C24.0548 17.1225 25.4528 15.8092 27.718 15.8092C30.5141 15.8092 32.6116 17.6551 32.6116 21.6806V29.7922H28.3613V22.2132C28.3613 20.4503 27.7466 19.2485 26.2085 19.2485C25.0335 19.2485 24.3349 20.0595 24.0556 20.8419C23.9432 21.1221 23.8879 21.5129 23.8879 21.9054V29.7922H19.6376V20.4788H19.6358Z" fill="white"/>
</svg>
