<svg width="36" height="36" viewBox="0 0 36 36" fill="none" xmlns="http://www.w3.org/2000/svg">
<path d="M32.653 16.3321C32.5417 16.221 32.3909 16.159 32.2338 16.159C32.2331 16.159 32.2324 16.159 32.2324 16.159L31.5441 16.1611C30.5279 16.1611 29.6026 15.6412 29.0688 14.7705L28.8158 14.3576C28.7078 14.1813 28.5161 14.074 28.3094 14.074C28.1028 14.074 27.9111 14.1813 27.8031 14.3576L27.5499 14.7705C27.0162 15.6412 26.0908 16.1611 25.0746 16.1611H24.715C23.6989 16.1611 22.7734 15.6412 22.2398 14.7706L21.9867 14.3578C21.8787 14.1815 21.6869 14.0742 21.4805 14.0742C21.2738 14.0742 21.082 14.1815 20.9741 14.3578L20.721 14.7706C20.1873 15.6412 19.262 16.1611 18.2457 16.1611H17.8864C16.8703 16.1611 15.945 15.6412 15.4111 14.7706L15.1581 14.3575C15.0502 14.1814 14.8585 14.074 14.6519 14.074C14.4453 14.074 14.2535 14.1813 14.1455 14.3575L13.8924 14.7706C13.3585 15.6412 12.4331 16.1611 11.417 16.1611H11.0575C10.0413 16.1611 9.11595 15.6412 8.5822 14.7705L8.32915 14.3576C8.22115 14.1813 8.02955 14.074 7.82283 14.074C7.61618 14.074 7.42451 14.1813 7.31651 14.3576L7.06338 14.7705C6.52971 15.6412 5.60447 16.1611 4.59063 16.1611L3.90045 16.159C3.74077 16.1562 3.59107 16.2206 3.47927 16.3321C3.36755 16.4435 3.30469 16.5949 3.30469 16.7527V34.1322C3.30469 34.4602 3.57068 34.726 3.89855 34.726H21.221C21.5488 34.726 21.8147 34.4602 21.8147 34.1322V21.4076H29.0476V34.1322C29.0476 34.4602 29.3135 34.726 29.6414 34.726H32.2339C32.5619 34.726 32.8276 34.4602 32.8276 34.1322V16.7527C32.8275 16.595 32.7647 16.4435 32.653 16.3321ZM18.1569 21.4076V27.7699H7.29914V21.4076H18.1569Z" fill="#EAEAE9"/>
<path opacity="0.15" d="M4.7276 34.1322V16.7526C4.7276 16.5947 4.7906 16.4434 4.90219 16.3319C5.01406 16.2205 5.16375 16.1561 5.32336 16.1588L5.47727 16.1593C5.48184 16.1593 5.48627 16.1587 5.49091 16.1588L6.02838 16.1604C7.03638 16.1554 7.95523 13.7566 8.48637 12.8903L8.53432 12.8121L8.32915 12.4772C8.22115 12.301 8.02955 12.1936 7.82283 12.1936C7.61618 12.1936 7.42451 12.301 7.31651 12.4772L7.06338 12.8901C6.52971 13.7608 5.60447 16.1607 4.59063 16.1607L3.90045 16.1586C3.74077 16.1559 3.59107 16.2203 3.47927 16.3317C3.36755 16.4431 3.30469 16.5945 3.30469 16.7524V34.1319C3.30469 34.4598 3.57068 34.7257 3.89855 34.7257H5.3216C4.99359 34.7259 4.7276 34.4601 4.7276 34.1322Z" fill="#30302F"/>
<path d="M28.9764 13.3433L28.4842 9.42813C28.4549 9.19357 28.327 8.99374 28.1457 8.86634C28.1467 8.8508 28.1479 8.83554 28.1479 8.81979C28.1479 8.63635 28.0871 8.4671 27.9844 8.33133L25.8307 5.05406C25.6807 4.82618 25.4261 4.68872 25.1532 4.68872H20.8965C20.6534 4.68872 20.4228 4.79806 20.2689 4.98642C20.1149 5.17465 20.0538 5.42236 20.1021 5.66058L20.7759 8.98123C20.7966 9.08339 20.8364 9.17733 20.8905 9.26058C20.8556 9.35986 20.8395 9.46561 20.8452 9.57291L21.0532 13.435C21.06 15.5136 22.7531 17.2024 24.8333 17.2024H25.2025C27.2517 17.2024 28.9473 15.5358 28.9823 13.4844L28.9827 13.4558C28.9832 13.4182 28.981 13.3806 28.9764 13.3433Z" fill="#FFD05C"/>
<path d="M15.1034 4.68848H10.8469C10.5741 4.68848 10.3195 4.82594 10.1697 5.05382L7.98751 8.37447C7.89054 8.52205 7.84744 8.69418 7.85694 8.86476C7.67454 8.99188 7.54552 9.1927 7.51599 9.42789L7.02584 13.3274L7.02408 13.3416C7.01923 13.3792 7.01705 13.4171 7.01769 13.4552L7.01797 13.4872C7.05291 15.5357 8.7485 17.2021 10.7975 17.2021H11.1668C13.2436 17.2021 14.9347 15.5189 14.947 13.445L15.1549 9.57238C15.1605 9.46501 15.1446 9.35912 15.1097 9.26005C15.1637 9.17659 15.2035 9.0828 15.2243 8.98084L15.8981 5.6602C15.9465 5.42198 15.8851 5.17434 15.7312 4.98604C15.5771 4.79788 15.3469 4.68848 15.1034 4.68848Z" fill="#FFD05C"/>
<path d="M10.7119 5.11443C10.5705 4.85217 10.2964 4.68855 9.99853 4.68855H5.85051C5.65076 4.68855 5.45817 4.76252 5.30946 4.89562L1.86605 7.98171L1.86591 7.98185L1.68837 8.14075H1.6883L1.60448 8.21599C1.59668 8.22281 1.58979 8.23061 1.58241 8.23778C1.54486 8.27273 1.50893 8.30711 1.47455 8.34072C1.15617 8.6875 0.73521 9.28734 0.580593 10.1474L0.0190071 13.2743L0.0120462 13.3145C0.00283522 13.3672 -0.00103196 13.4205 0.00023366 13.4742L0.00114772 13.515C0.0504368 15.5482 1.74567 17.2021 3.77995 17.2021H4.14937C6.22387 17.2021 7.91362 15.5222 7.92951 13.4514L8.36405 9.99511L8.46129 9.3085C8.47247 9.29451 8.48365 9.2801 8.49377 9.26484L11.9515 4.06382C12.1149 3.81506 10.8534 5.37663 10.7119 5.11443Z" fill="#EF5440"/>
<path d="M25.2872 5.11451C25.4287 4.85224 25.7026 4.68863 26.0006 4.68863H30.1485C30.3484 4.68863 30.541 4.7626 30.6896 4.8957L34.1331 7.98185L34.1332 7.98199L34.3108 8.1409L34.3946 8.21614C34.4024 8.22296 34.4093 8.23076 34.4167 8.23793C34.4542 8.27288 34.4902 8.30726 34.5245 8.34087C34.843 8.68765 35.2639 9.28749 35.4185 10.1475L35.9801 13.2744L35.9871 13.3146C35.9962 13.3673 36.0001 13.4207 35.9989 13.4744L35.998 13.5151C35.9487 15.5483 34.2534 17.2022 32.2191 17.2022H31.8497C29.7751 17.2022 28.0855 15.5224 28.0695 13.4515L27.6351 9.99525L27.5378 9.30865C27.5266 9.29466 27.5154 9.28024 27.5053 9.26499L24.0478 4.06411C23.8843 3.81514 25.1459 5.37671 25.2872 5.11451Z" fill="#EF5440"/>
<path d="M21.9645 13.4502C21.9645 13.4422 21.9645 13.4346 21.9643 13.4268L21.9637 13.4082C21.9637 13.3995 21.9632 13.3906 21.9629 13.382L21.7896 10.1595L21.7894 10.154L21.7534 9.48548C21.7529 9.47852 21.7514 9.47205 21.7508 9.46509L21.7328 9.14383L21.6522 8.72659C21.648 8.69073 21.6414 8.65565 21.6328 8.62112L21.6084 8.50089L21.6083 8.50005L20.9666 5.33802C20.8899 4.96016 20.5576 4.68848 20.1722 4.68848H15.8274C15.442 4.68848 15.1099 4.96016 15.033 5.33802L14.3914 8.50005L14.3912 8.50089L14.3667 8.62112C14.3581 8.65551 14.3516 8.69066 14.3476 8.72659L14.2667 9.14383L14.2488 9.46509C14.2483 9.47205 14.2467 9.47852 14.2463 9.48548L14.2102 10.154L14.21 10.1595L14.0368 13.382C14.0361 13.3906 14.0359 13.3996 14.0358 13.4082L14.0353 13.4268C14.0352 13.4346 14.0352 13.4422 14.0352 13.4502C14.0494 15.3899 15.5405 16.9904 17.4319 17.1828C17.558 17.1956 17.6858 17.2021 17.8152 17.2021H18.1844C18.3137 17.2021 18.4416 17.1956 18.5676 17.1828C20.4591 16.9905 21.9502 15.3899 21.9645 13.4502Z" fill="#EF5440"/>
<g opacity="0.15">
<path opacity="0.15" d="M11.9507 4.06389C12.0404 3.92728 11.7013 4.3353 11.3535 4.68848H11.5353L11.9507 4.06389Z" fill="#30302F"/>
<path opacity="0.15" d="M12.9914 5.21504C13.1171 5.13791 13.2631 5.09375 13.415 5.09375H12.5664C12.7194 5.09382 12.8657 5.13741 12.9914 5.21504Z" fill="#30302F"/>
<path opacity="0.15" d="M11.9953 4.80952C12.1212 4.73239 12.2669 4.68823 12.4188 4.68823H11.5703C11.7233 4.68823 11.8697 4.73197 11.9953 4.80952Z" fill="#30302F"/>
<path opacity="0.15" d="M1.57319 13.5148L1.57228 13.4741C1.57101 13.4204 1.57488 13.367 1.58409 13.3143L1.59105 13.2741L2.15264 10.1472C2.30733 9.28709 2.72822 8.68726 3.04659 8.34054C3.08098 8.30687 3.11691 8.27255 3.15445 8.23761C3.16191 8.23037 3.1688 8.22263 3.17653 8.21581L3.26034 8.14058H3.26041L3.43795 7.98167L3.43809 7.98153L6.88158 4.8953C7.03029 4.76227 7.22287 4.68823 7.42263 4.68823H5.85044C5.65069 4.68823 5.4581 4.7622 5.30939 4.8953L1.86605 7.98146L1.86591 7.9816L1.68837 8.14051H1.6883L1.60448 8.21574C1.59668 8.22256 1.58979 8.23037 1.58241 8.23754C1.54486 8.27248 1.50893 8.30687 1.47455 8.34047C1.15617 8.68726 0.73521 9.28709 0.580593 10.1472L0.0190071 13.274L0.0120462 13.3142C0.00283522 13.3669 -0.00103196 13.4203 0.00023366 13.474L0.00114772 13.5147C0.0504368 15.5479 1.74567 17.2018 3.77995 17.2018H4.14937C4.30252 17.2018 4.45326 17.191 4.60169 17.1731C4.55276 17.1473 4.50473 17.12 4.45692 17.0921C2.84276 16.6924 1.61496 15.2405 1.57319 13.5148Z" fill="#30302F"/>
</g>
<path d="M31.0132 5.20341V1.89682C31.0132 1.55279 30.7344 1.27393 30.3905 1.27393H5.66761C5.32357 1.27393 5.04492 1.55279 5.04492 1.89682V5.20348H31.0132V5.20341Z" fill="#415B6B"/>
<path d="M28.9819 3.86957H7.15048C6.84294 3.86957 6.59375 3.62038 6.59375 3.31284C6.59375 3.00536 6.84301 2.7561 7.15048 2.7561H28.9819C29.2894 2.7561 29.5387 3.00543 29.5387 3.31284C29.5387 3.62046 29.2894 3.86957 28.9819 3.86957Z" fill="#698593"/>
<path d="M21.1465 20.7397V23.7086V24.3767V34.7261H29.7155V24.3767V23.7086V20.7397H21.1465Z" fill="#FFD05C"/>
<path d="M21.1465 20.7397V20.9225V23.7086V23.8914V24.3767V24.5594V34.7261H22.5567V25.7861V25.6034V25.1181V24.9354V22.1491H29.7155V21.9663V20.9225V20.7397H21.1465Z" fill="#FBB85F"/>
<path d="M18.8244 20.7397H6.63086V28.4385H18.8244V20.7397Z" fill="#60B7E2"/>
<path opacity="0.15" d="M8.04984 28.4381V22.1404H18.8246V20.8769V20.7397H6.63086V28.4381H6.69941H8.04984Z" fill="#30302F"/>
<path d="M29.7155 23.6343H21.1465V24.897H29.7155V23.6343Z" fill="#EAEAE9"/>
</svg>
