<svg width="36" height="36" viewBox="0 0 36 36" fill="none" xmlns="http://www.w3.org/2000/svg">
<g clip-path="url(#clip0_1_18193)">
<path d="M23.625 19.125L30.9375 31.5L27 30.9375L24.75 34.3125L17.4375 21.9375L23.625 19.125Z" fill="#DE5540"/>
<path d="M12.375 19.125L5.0625 31.5L9 30.9375L11.25 34.3125L18.5625 21.9375L12.375 19.125Z" fill="#DE5540"/>
<path d="M20.1393 4.59885C20.8509 5.08531 21.7071 5.31472 22.5666 5.24924C23.3278 5.19122 24.0888 5.36441 24.75 5.74613C25.4112 6.12785 25.9417 6.70031 26.272 7.38857C26.6451 8.16567 27.2718 8.79242 28.0489 9.16543C28.7372 9.49582 29.3096 10.0263 29.6913 10.6875C30.0731 11.3486 30.2463 12.1097 30.1882 12.8709C30.1228 13.7304 30.3522 14.5866 30.8386 15.2982C31.2695 15.9284 31.5 16.6741 31.5 17.4375C31.5 18.2009 31.2695 18.9466 30.8386 19.5768C30.3522 20.2884 30.1228 21.1446 30.1882 22.0041C30.2463 22.7653 30.0731 23.5263 29.6913 24.1875C29.3096 24.8487 28.7372 25.3792 28.0489 25.7095C27.2718 26.0826 26.6451 26.7093 26.272 27.4864C25.9417 28.1747 25.4112 28.7471 24.75 29.1288C24.0888 29.5106 23.3278 29.6838 22.5666 29.6257C21.7071 29.5603 20.8509 29.7897 20.1393 30.2761C19.5091 30.707 18.7634 30.9375 18 30.9375C17.2366 30.9375 16.4909 30.707 15.8607 30.2761C15.1491 29.7897 14.2929 29.5603 13.4334 29.6257C12.6722 29.6838 11.9111 29.5106 11.25 29.1288C10.5888 28.7471 10.0583 28.1747 9.72793 27.4864C9.35492 26.7093 8.72817 26.0826 7.95107 25.7095C7.26281 25.3792 6.69035 24.8487 6.30863 24.1875C5.92691 23.5263 5.75372 22.7653 5.81174 22.0041C5.87722 21.1446 5.64781 20.2884 5.16135 19.5768C4.73051 18.9466 4.5 18.2009 4.5 17.4375C4.5 16.6741 4.73051 15.9284 5.16135 15.2982C5.64781 14.5866 5.87722 13.7304 5.81174 12.8709C5.75372 12.1097 5.92691 11.3486 6.30863 10.6875C6.69035 10.0263 7.26281 9.49582 7.95107 9.16543C8.72817 8.79242 9.35492 8.16567 9.72793 7.38857C10.0583 6.70031 10.5888 6.12785 11.25 5.74613C11.9111 5.36441 12.6722 5.19122 13.4334 5.24924C14.2929 5.31472 15.1491 5.08531 15.8607 4.59885C16.4909 4.16801 17.2366 3.9375 18 3.9375C18.7634 3.9375 19.5091 4.16801 20.1393 4.59885Z" fill="#FFB431"/>
<path d="M18 27.5625C23.5919 27.5625 28.125 23.0294 28.125 17.4375C28.125 11.8456 23.5919 7.3125 18 7.3125C12.4081 7.3125 7.875 11.8456 7.875 17.4375C7.875 23.0294 12.4081 27.5625 18 27.5625Z" fill="#F99E0C"/>
<path d="M11.25 14.0398H16.3307V21.9375H11.25V14.0398Z" fill="#426887"/>
<path d="M20.2868 14.0794L20.9701 11.9484C21.0219 11.7868 21.04 11.6163 21.0232 11.4474C21.0065 11.2785 20.9553 11.1149 20.8727 10.9666C20.7902 10.8183 20.6781 10.6885 20.5435 10.5853C20.4088 10.482 20.2543 10.4075 20.0897 10.3664C19.8159 10.2979 19.5269 10.3249 19.2705 10.4428C19.0141 10.5608 18.8056 10.7626 18.6794 11.0151L17.9994 12.3749L16.3301 14.0624V21.9374H22.4994C22.9469 21.9374 23.3761 21.7596 23.6926 21.4432C24.0091 21.1267 24.1869 20.6975 24.1869 20.2499V16.8749L24.6056 16.0373C24.7001 15.8483 24.7494 15.6399 24.7494 15.4287C24.7494 15.2495 24.714 15.0721 24.6453 14.9066C24.5766 14.7411 24.4759 14.5909 24.3489 14.4644C24.222 14.338 24.0714 14.2378 23.9056 14.1697C23.7399 14.1016 23.5624 14.0669 23.3832 14.0676L20.2868 14.0794Z" fill="#FDC8A2"/>
<path d="M13.7812 18.5625C13.6144 18.5625 13.4512 18.612 13.3125 18.7047C13.1737 18.7974 13.0656 18.9292 13.0017 19.0834C12.9379 19.2375 12.9212 19.4072 12.9537 19.5709C12.9863 19.7345 13.0666 19.8849 13.1846 20.0029C13.3026 20.1209 13.453 20.2012 13.6166 20.2338C13.7803 20.2663 13.95 20.2496 14.1041 20.1858C14.2583 20.1219 14.3901 20.0138 14.4828 19.875C14.5755 19.7363 14.625 19.5731 14.625 19.4062C14.6248 19.1825 14.5358 18.9681 14.3776 18.8099C14.2194 18.6517 14.005 18.5627 13.7812 18.5625Z" fill="#2D475C"/>
<path d="M1.125 17.4375H2.8125V18.5625H1.125V17.4375Z" fill="#FADE8D"/>
<path d="M2.69531 3.4917L3.49069 2.69632L7.70881 6.91445L6.91343 7.70982L2.69531 3.4917Z" fill="#FADE8D"/>
<path d="M0.726562 1.52271L1.52194 0.72733L2.64675 1.85214L1.85137 2.64751L0.726562 1.52271Z" fill="#FADE8D"/>
<path d="M0.90625 11.2063L1.354 10.1735L4.73064 11.6375L4.28289 12.6702L0.90625 11.2063Z" fill="#FADE8D"/>
<path d="M0.890625 24.7979L4.26492 23.2224L4.74079 24.2417L1.3665 25.8171L0.890625 24.7979Z" fill="#FADE8D"/>
<path d="M0.722656 34.4749L3.53475 31.6628L4.33013 32.4581L1.51803 35.2702L0.722656 34.4749Z" fill="#FADE8D"/>
<path d="M17.4375 32.625H18.5625V34.875H17.4375V32.625Z" fill="#FADE8D"/>
<path d="M17.4375 1.125H18.5625V2.25H17.4375V1.125Z" fill="#FADE8D"/>
<path d="M10.1758 1.34497L11.2086 0.897192L12.3347 3.49456L11.3019 3.94234L10.1758 1.34497Z" fill="#FADE8D"/>
<path d="M33.1875 17.4375H34.875V18.5625H33.1875V17.4375Z" fill="#FADE8D"/>
<path d="M28.2871 6.91724L32.5052 2.69911L33.3006 3.49449L29.0825 7.71261L28.2871 6.91724Z" fill="#FADE8D"/>
<path d="M33.3496 1.85669L34.4744 0.731881L35.2698 1.52726L34.145 2.65206L33.3496 1.85669Z" fill="#FADE8D"/>
<path d="M31.2949 11.6262L34.6716 10.1623L35.1193 11.195L31.7427 12.659L31.2949 11.6262Z" fill="#FADE8D"/>
<path d="M31.2617 24.2559L31.7376 23.2366L35.1119 24.812L34.636 25.8313L31.2617 24.2559Z" fill="#FADE8D"/>
<path d="M31.6582 32.4604L32.4536 31.6651L35.2657 34.4772L34.4703 35.2725L31.6582 32.4604Z" fill="#FADE8D"/>
<path d="M23.6816 3.48828L24.8077 0.890916L25.8405 1.33869L24.7145 3.93606L23.6816 3.48828Z" fill="#FADE8D"/>
</g>
<defs>
<clipPath id="clip0_1_18193">
<rect width="36" height="36" fill="white"/>
</clipPath>
</defs>
</svg>
