<svg width="16" height="16" viewBox="0 0 16 16" fill="none" xmlns="http://www.w3.org/2000/svg">
<path d="M11.1666 8.44008L5.83325 14.4401C5.71647 14.5725 5.5519 14.6532 5.37566 14.6645C5.19943 14.6757 5.02593 14.6166 4.89325 14.5001C4.7608 14.3833 4.68008 14.2187 4.66884 14.0425C4.65759 13.8663 4.71672 13.6928 4.83325 13.5601L9.77325 8.00008L4.83325 2.44008C4.7255 2.3063 4.67355 2.13608 4.68822 1.96493C4.7029 1.79378 4.78308 1.6349 4.91203 1.52142C5.04099 1.40793 5.20877 1.34861 5.3804 1.35581C5.55203 1.36301 5.71426 1.43619 5.83325 1.56008L11.1666 7.56008C11.2735 7.68174 11.3324 7.83814 11.3324 8.00008C11.3324 8.16201 11.2735 8.31842 11.1666 8.44008Z" fill="#0198E9"/>
</svg>
