<svg width="36" height="15" viewBox="0 0 36 15" fill="none" xmlns="http://www.w3.org/2000/svg">
<path d="M23.1611 5.802H16.8932C16.7691 5.802 16.707 5.89081 16.707 5.97962V6.45325C16.707 6.57166 16.8001 6.63087 16.8932 6.63087H21.5786V9.11746C21.4545 8.93984 21.2993 8.76223 21.1442 8.58462C20.5857 8.05178 19.9961 7.78536 19.3755 7.78536C18.8791 7.78536 18.4757 8.02217 18.1344 8.43661C17.8551 8.79183 17.7 9.20627 17.7 9.5911C17.7 9.97592 17.762 10.4792 18.0723 10.9528C18.4447 11.5152 19.0652 11.6929 19.6238 11.6929C20.3374 11.6929 20.927 11.2192 20.927 10.5976C20.927 10.2423 20.7408 9.94632 20.3995 9.73911L20.0582 9.56149V10.0943C20.0271 10.2423 19.7789 10.4496 19.4997 10.4496C19.2514 10.4496 19.0342 10.3608 18.8791 10.2127C18.786 10.1239 18.7239 9.94632 18.755 9.82791C18.755 9.6503 18.817 9.50229 18.9411 9.35428C19.0963 9.17666 19.2514 9.08786 19.4997 9.08786C20.1202 9.08786 20.6477 9.35428 21.0821 9.94632C21.4235 10.4496 21.6096 10.9232 21.6096 11.456V12.6993L22.5405 13.2322C22.5715 13.2618 22.6026 13.2618 22.6336 13.2618C22.7577 13.2618 22.8198 13.173 22.8198 13.0842V6.66047H23.1921C23.3162 6.66047 23.3783 6.57166 23.3783 6.48285V6.00922C23.3783 5.89081 23.2852 5.802 23.1611 5.802Z" fill="#ED1C24"/>
<path d="M35.697 5.80206H27.7536C27.6294 5.80206 27.5674 5.89087 27.5674 5.97967V6.80853C26.7917 6.03888 26.109 5.65405 25.4884 5.65405C24.8989 5.65405 24.4024 5.77246 23.968 6.09808C23.5646 6.3941 23.3164 6.77893 23.3164 7.22296C23.3164 8.55505 24.8679 8.52545 25.2712 8.34784C25.3333 8.31824 25.4264 8.25903 25.5195 8.25903C25.8298 8.25903 25.9539 8.49585 25.9539 8.70306C25.9539 8.99908 25.4884 9.2655 24.9299 9.2655C24.6196 9.2655 24.4335 9.1767 24.3093 8.99908L24.0611 8.64386L23.906 9.05829C23.8749 9.14709 23.8129 9.2655 23.8129 9.41351C23.8129 9.70953 23.968 10.0056 24.2783 10.272C24.5576 10.5088 24.8989 10.6272 25.2712 10.6272C25.8608 10.6272 26.3572 10.42 26.6675 10.0056C26.9468 9.67993 27.0709 9.2951 27.0709 8.85107C27.0709 8.61426 26.9778 8.34784 26.7606 8.05182C26.5124 7.69659 26.2021 7.51898 25.8608 7.51898C25.7367 7.51898 25.5815 7.54858 25.4264 7.60779C25.3643 7.63739 25.2402 7.66699 25.2092 7.66699C25.1471 7.66699 25.054 7.63739 24.992 7.54858C24.9299 7.48938 24.8679 7.40057 24.8679 7.25256C24.8679 6.92694 25.1781 6.60132 25.7367 6.60132H25.7677C26.14 6.60132 26.5124 6.77893 26.8537 7.10455C27.133 7.37097 27.3502 7.63739 27.5363 7.93341V12.6401L28.4672 13.173C28.4982 13.2026 28.5293 13.2026 28.5603 13.2026C28.6844 13.2026 28.7465 13.1138 28.7465 13.025V6.66052H30.1738V10.7752L31.2909 11.2192H31.3529C31.446 11.2192 31.5391 11.16 31.5391 11.0416V11.012C31.7253 9.79834 32.2838 8.96948 33.2147 8.46625V8.70306C33.2147 8.88068 33.2147 9.32471 33.2457 9.56152C33.2457 9.70953 33.2457 9.79834 33.2767 9.88715C33.2767 10.3608 33.3388 11.0712 33.4939 11.6041C33.8042 12.6105 34.3317 12.8474 34.704 12.8474H34.7351C34.9523 12.8474 35.1384 12.7881 35.2626 12.6697C35.3246 12.6105 35.4177 12.4921 35.4177 12.2849C35.4177 12.1073 35.3867 11.9593 35.3246 11.8409L35.2315 11.6929L35.0454 11.7225C34.8592 11.7817 34.7661 11.7817 34.7661 11.7521H34.7351C34.673 11.7521 34.673 11.7521 34.642 11.7225C34.5799 11.6929 34.4558 11.6041 34.3627 11.2784C34.3007 11.0416 34.2696 10.716 34.2696 10.5384C34.2696 9.2063 34.5489 8.19983 35.0143 7.99261H35.0454C35.1074 7.96301 35.1695 7.90381 35.1695 7.815C35.1695 7.7854 35.1695 7.7558 35.1384 7.7262V7.69659C34.9212 7.28217 34.4558 6.98615 33.8352 6.83813H33.7111C33.2147 6.92694 32.6251 7.25256 31.8804 7.8446C31.6942 7.99261 31.5081 8.14062 31.3529 8.28864V6.66052H35.697C35.8211 6.66052 35.8831 6.57172 35.8831 6.48291V6.00928C35.9142 5.89087 35.8211 5.80206 35.697 5.80206Z" fill="#ED1C24"/>
<path d="M14.6614 7.99264C14.6614 8.19986 14.6614 8.37747 14.6303 8.55509C14.5683 9.38395 14.3511 10.1536 14.0098 10.8641C13.8856 11.1601 13.7305 11.4265 13.5443 11.6929C12.2411 13.6467 9.94495 14.9492 7.3385 14.9492C6.22145 14.9492 5.16646 14.7123 4.23559 14.2979C1.75326 13.2026 0.015625 10.7752 0.015625 7.99264C0.015625 5.23964 1.6912 2.87147 4.08044 1.74658C3.89427 1.9834 3.70809 2.22022 3.55295 2.48664C3.55295 2.51624 3.52192 2.51624 3.52192 2.54584C3.42883 2.63465 3.33574 2.69385 3.24266 2.78266C3.11854 2.87147 3.02545 2.98987 2.90133 3.07868L2.83928 3.13788L2.77722 3.19709C2.74619 3.22669 2.71516 3.2859 2.6531 3.3155C2.59104 3.4043 2.49796 3.49311 2.4359 3.58192C2.12561 3.96675 1.87737 4.38118 1.6912 4.82521C1.66017 4.85481 1.66017 4.91402 1.62914 4.94362C1.59811 5.00282 1.59811 5.06203 1.56708 5.09163C1.56708 5.12123 1.53605 5.15083 1.53605 5.18044C1.50502 5.26924 1.47399 5.32845 1.44297 5.41725C1.41194 5.47646 1.41194 5.53566 1.38091 5.56526C1.38091 5.59487 1.34988 5.62447 1.34988 5.65407C1.34988 5.71328 1.31885 5.77248 1.31885 5.83168L1.22576 6.36452C1.22576 6.42373 1.22576 6.45333 1.19473 6.51253V7.22299C1.19473 9.11753 2.09458 10.8345 3.55295 11.9297C4.67 12.7882 6.06631 13.321 7.58673 13.321C8.98304 13.321 10.2552 12.9066 11.3102 12.1666C12.086 11.6337 12.7065 10.9529 13.172 10.1536C13.234 10.0352 13.2961 9.94639 13.3582 9.82798C13.7305 9.08792 13.9477 8.28867 13.9477 7.4302V7.22299C13.9477 7.01577 13.9477 6.83816 13.9167 6.63094L13.9477 6.66055C14.0408 6.74935 14.1339 6.80856 14.227 6.89736C14.3201 6.74935 14.4131 6.63094 14.5062 6.48293C14.5683 6.74935 14.5993 7.01577 14.6303 7.31179C14.6614 7.57821 14.6614 7.78543 14.6614 7.99264Z" fill="#ED1C24"/>
<path d="M8.20532 2.39778L6.84004 0C4.5749 0.976874 3.02344 3.13784 3.02344 5.65403C3.02344 6.92693 3.42682 8.11102 4.10946 9.08789C4.0474 8.76227 4.0474 8.43664 4.0474 8.08141C4.07843 5.50602 5.78504 3.31545 8.20532 2.39778Z" fill="#F7941D"/>
<path d="M9.29311 3.58194C9.85163 3.43393 10.4722 3.37472 11.0618 3.37472C11.4341 3.37472 11.8375 3.40433 12.1788 3.46353L12.1478 2.39785L12.0857 0.26648C11.8375 0.236878 11.5582 0.207275 11.279 0.207275C10.0378 0.207275 8.88972 0.592106 7.95884 1.21375L8.70355 2.51626C7.36929 2.96029 6.28326 3.84836 5.60061 5.00285C5.25929 5.5653 5.01106 6.21655 4.91797 6.8974C5.10414 6.54217 5.32135 6.21655 5.56958 5.92052C6.46944 4.79564 7.77267 3.93717 9.29311 3.58194Z" fill="#ED1C24"/>
<path d="M12.5516 2.36816L12.6137 3.87787C12.0862 3.72986 11.5587 3.64105 10.9691 3.64105C9.88313 3.64105 8.85917 3.93707 7.95933 4.44031C6.84228 5.09155 5.97347 6.12762 5.53906 7.34131C5.97347 6.77887 6.50096 6.27563 7.12154 5.89081C8.02139 5.32837 9.1074 5.00275 10.2555 5.00275C11.1243 5.00275 11.931 5.18036 12.6757 5.50598C13.2343 5.7428 13.7307 6.06842 14.1651 6.48285L15.034 5.23956L16.151 3.61145C15.1581 2.8418 13.9169 2.36816 12.5516 2.36816Z" fill="#F7941D"/>
<path d="M13.9482 7.28216V7.48937C13.9482 8.73267 13.4207 9.76876 13.3587 9.88717C13.2966 10.0056 13.2346 10.0944 13.1725 10.2128C12.7071 11.0121 12.0865 11.6929 11.3108 12.2258C10.2558 12.9362 8.9836 13.3802 7.58729 13.3802C6.06687 13.3802 4.63953 12.877 3.55352 11.9889C2.12618 10.864 1.19531 9.17671 1.19531 7.28216V6.5717C1.19531 6.5125 1.19531 6.48289 1.22634 6.42369L1.31943 5.89085C1.31943 5.83164 1.35046 5.77244 1.35046 5.71323C1.35046 5.68363 1.38149 5.65403 1.38149 5.62442C1.41252 5.56522 1.41252 5.50601 1.44354 5.47641C1.47457 5.3876 1.5056 5.2988 1.53663 5.23959C1.53663 5.20999 1.56766 5.18039 1.56766 5.15079C1.59869 5.09158 1.59869 5.03238 1.62972 5.00277C1.66075 4.97317 1.66075 4.91397 1.69178 4.88436C1.87795 4.44033 2.15721 4.02589 2.43647 3.64106C2.49853 3.55226 2.59162 3.46345 2.65368 3.37464C2.68471 3.34504 2.71573 3.28584 2.77779 3.25623C2.80882 3.22663 2.80882 3.19703 2.83985 3.19703C2.87088 3.16743 2.87088 3.13782 2.90191 3.13782C2.995 3.01941 3.11911 2.93061 3.24323 2.8418C3.33631 2.75299 3.4294 2.69379 3.52249 2.60498C3.52249 2.63458 3.49146 2.63458 3.49146 2.66419C3.49146 2.69379 3.46043 2.72339 3.46043 2.72339C3.08808 3.43385 2.83985 4.29232 2.74676 5.18039C2.71573 5.41721 2.71573 5.65403 2.71573 5.92045C2.71573 9.11751 4.67056 11.6929 7.09083 11.6929H7.33906C7.68038 11.6929 8.0217 11.6337 8.36302 11.5745C10.0076 11.1601 11.2177 9.70955 11.2177 8.02222V7.93341C11.1867 6.92693 10.7523 6.00925 10.0386 5.3876C10.535 5.3876 11.0315 5.47641 11.4969 5.59482C12.3968 5.80204 13.2035 6.21647 13.9172 6.74931L13.9482 6.77892C13.9172 6.89733 13.9482 7.10454 13.9482 7.28216Z" fill="#F7941D"/>
<path d="M13.9435 7.2821V7.48932C13.9435 8.79181 13.3229 9.91669 13.3229 9.91669C13.2608 10.0351 13.1988 10.1239 13.1367 10.2423C12.6713 11.0416 12.0197 11.7224 11.244 12.2552C10.1579 13.0249 8.85471 13.4097 7.48943 13.4097C6.00003 13.4097 4.57269 12.9065 3.42462 12.0184C1.93522 10.864 1.06641 9.11743 1.06641 7.2821C1.06641 5.44678 1.93522 3.70026 3.42462 2.54578L3.48668 2.48657C3.48668 2.51617 3.45565 2.51617 3.45565 2.54578C3.45565 2.57538 3.42462 2.57538 3.42462 2.60498C1.96625 3.75946 1.12846 5.44678 1.12846 7.2821C1.12846 9.11743 1.96625 10.8047 3.45565 11.9888C4.57269 12.8769 6.03106 13.3505 7.48943 13.3505C8.82368 13.3505 10.1269 12.9657 11.2129 12.196C11.9886 11.6632 12.6092 10.9824 13.0747 10.1831C13.1367 10.0647 13.1988 9.97589 13.2298 9.85748C13.2298 9.85748 13.8504 8.76221 13.8504 7.45972V7.2525C13.8504 7.04529 13.8504 6.86768 13.8194 6.66046V6.63086L13.8504 6.66046L13.8814 6.69006C13.9435 6.92688 13.9435 7.10449 13.9435 7.2821Z" fill="#F7941D"/>
</svg>
