<svg width="16" height="16" viewBox="0 0 16 16" fill="none" xmlns="http://www.w3.org/2000/svg">
<path d="M4.83342 8.44008L10.1667 14.4401C10.2835 14.5725 10.4481 14.6532 10.6243 14.6645C10.8006 14.6757 10.9741 14.6166 11.1067 14.5001C11.2392 14.3833 11.3199 14.2187 11.3312 14.0425C11.3424 13.8663 11.2833 13.6928 11.1667 13.5601L6.22675 8.00008L11.1667 2.44008C11.2745 2.3063 11.3265 2.13608 11.3118 1.96493C11.2971 1.79378 11.2169 1.6349 11.088 1.52142C10.959 1.40793 10.7912 1.34861 10.6196 1.35581C10.448 1.36301 10.2857 1.43619 10.1667 1.56008L4.83342 7.56008C4.72654 7.68174 4.6676 7.83814 4.6676 8.00008C4.6676 8.16201 4.72654 8.31842 4.83342 8.44008Z" fill="#0198E9"/>
</svg>
