<svg width="80" height="80" viewBox="0 0 80 80" fill="none" xmlns="http://www.w3.org/2000/svg">
<path d="M41.8809 49.7114L44.5434 55.0366H67.6836L65.021 49.7114H41.8809Z" fill="#0198E9"/>
<path d="M37.5723 49.7114H14.4321L11.7695 55.0366H34.9097L37.5723 49.7114Z" fill="#0198E9"/>
<path d="M41.0569 54.02V65.687H38.3943V54.02L36.5547 57.6993H17.0938V78.9998H38.3943V69.6808H41.0569V78.9998H62.3575V57.6993H42.8965L41.0569 54.02ZM27.744 76.3372H19.7563V73.6747H27.744V76.3372ZM27.744 71.0121H19.7563V68.3495H27.744V71.0121ZM33.0692 76.3372H30.4066V73.6747H33.0692V76.3372Z" fill="#0198E9"/>
<path d="M33.5789 20.7749L39.727 19.2077L45.8751 20.7749L46.3567 14.1731L49.6239 8.59378L43.8476 6.09373L39.727 1L35.607 6.09373L29.8301 8.59378L33.0972 14.1731L33.5789 20.7749Z" fill="#0198E9"/>
<path d="M13.0734 23.492L15.0092 20.1878L11.5809 18.7031L9.10615 15.644L6.63144 18.7031L3.20312 20.1878L5.13895 23.492L5.42367 27.4312L9.10615 26.4939L12.7886 27.4312L13.0734 23.492Z" fill="#0198E9"/>
<path d="M66.6639 27.4312L70.3464 26.4939L74.0289 27.4312L74.3136 23.492L76.2494 20.1878L72.8211 18.7031L70.3464 15.644L67.8717 18.7031L64.4434 20.1878L66.3792 23.492L66.6639 27.4312Z" fill="#0198E9"/>
<path d="M15.0239 30.8499C17.5584 32.5406 19.8108 34.6045 21.7135 36.9843L26.9866 43.5731L25.8965 34.8502C25.3264 30.296 22.8939 26.1039 19.2225 23.351L17.9471 22.3948L14.0449 30.1979L15.0239 30.8499Z" fill="#0198E9"/>
<path d="M53.5556 34.8503L52.4648 43.5732L57.7386 36.9831C59.6419 34.6033 61.893 32.5394 64.4282 30.8486L65.4052 30.1967L61.503 22.3936L60.2276 23.3524C56.5575 26.1053 54.1237 30.2961 53.5556 34.8503Z" fill="#0198E9"/>
<path d="M45.0508 44.3865H47.7134V38.8085C47.7134 32.4146 49.967 26.1892 54.0623 21.2755L52.016 19.5718C47.5242 24.9619 45.0508 31.7939 45.0508 38.8085V44.3865Z" fill="#0198E9"/>
<path d="M54.3711 15.0981H57.0337V17.7607H54.3711V15.0981Z" fill="#0198E9"/>
<path d="M58.3652 9.77295H61.0278V12.4355H58.3652V9.77295Z" fill="#0198E9"/>
<path d="M31.7383 44.3865H34.4009V38.8085C34.4009 31.7926 31.9274 24.9619 27.437 19.5718L25.3906 21.2755C29.4846 26.1892 31.7383 32.4146 31.7383 38.8085V44.3865Z" fill="#0198E9"/>
<path d="M22.4199 15.0981H25.0825V17.7607H22.4199V15.0981Z" fill="#0198E9"/>
<path d="M18.4258 9.77295H21.0884V12.4355H18.4258V9.77295Z" fill="#0198E9"/>
<path d="M38.3945 21.7546H41.0571V24.4172H38.3945V21.7546Z" fill="#0198E9"/>
<path d="M38.3945 27.0796H41.0571V44.3863H38.3945V27.0796Z" fill="#0198E9"/>
<path d="M73.0078 35.0674H75.6704V37.7299H73.0078V35.0674Z" fill="#0198E9"/>
<path d="M73.0078 40.3926H75.6704V43.0552H73.0078V40.3926Z" fill="#0198E9"/>
<path d="M75.6719 37.73H78.3344V40.3926H75.6719V37.73Z" fill="#0198E9"/>
<path d="M70.3457 37.73H73.0083V40.3926H70.3457V37.73Z" fill="#0198E9"/>
<path d="M71.6777 1.78516H74.3403V4.44773H71.6777V1.78516Z" fill="#0198E9"/>
<path d="M71.6777 7.11035H74.3403V9.77292H71.6777V7.11035Z" fill="#0198E9"/>
<path d="M74.3398 4.44775H77.0024V7.11032H74.3398V4.44775Z" fill="#0198E9"/>
<path d="M69.0156 4.44775H71.6782V7.11032H69.0156V4.44775Z" fill="#0198E9"/>
<path d="M3.78125 40.3926H6.44382V43.0552H3.78125V40.3926Z" fill="#0198E9"/>
<path d="M3.78125 45.7178H6.44382V48.3803H3.78125V45.7178Z" fill="#0198E9"/>
<path d="M6.44336 43.0552H9.10593V45.7177H6.44336V43.0552Z" fill="#0198E9"/>
<path d="M1.11914 43.0552H3.78171V45.7177H1.11914V43.0552Z" fill="#0198E9"/>
<path d="M3.78125 1.78516H6.44382V4.44773H3.78125V1.78516Z" fill="#0198E9"/>
<path d="M3.78125 7.11035H6.44382V9.77292H3.78125V7.11035Z" fill="#0198E9"/>
<path d="M6.44336 4.44775H9.10593V7.11032H6.44336V4.44775Z" fill="#0198E9"/>
<path d="M1.11914 4.44775H3.78171V7.11032H1.11914V4.44775Z" fill="#0198E9"/>
</svg>
