<svg width="24" height="21" viewBox="0 0 24 21" fill="none" xmlns="http://www.w3.org/2000/svg">
<path d="M20.9221 3.26176L20.927 3.26718L20.932 3.27251C21.6648 4.05314 22.108 5.06551 22.3917 6.38653C22.7109 8.32436 22.3418 10.0719 21.1436 11.8007L21.1435 11.8006L21.136 11.8119C20.2064 13.2062 19.0394 14.5027 17.383 15.8679L17.3829 15.8678L17.3735 15.8759C15.7702 17.2424 13.9958 18.4332 11.9497 19.5764C11.7914 19.6611 11.7261 19.6717 11.635 19.6717C11.544 19.6717 11.4787 19.6611 11.3205 19.5765C8.97513 18.2649 7.13058 17.0019 5.53249 15.5854L5.52483 15.5786L5.51697 15.572C4.37783 14.6166 3.14925 13.454 2.17719 11.9517L2.1772 11.9517L2.17539 11.949C1.32524 10.6477 0.885762 9.31677 0.834578 7.87111C0.784732 6.3531 1.26433 4.87341 2.26914 3.54068C3.19078 2.40981 4.40941 1.72485 5.96369 1.55638C7.42086 1.45574 8.66454 1.73195 9.72897 2.3702C10.2707 2.69876 10.7573 3.13295 11.1483 3.57486L11.7407 4.2446L12.2971 3.54461C13.3113 2.26868 14.745 1.55579 16.5395 1.50293H16.7725C18.4746 1.50293 19.8587 2.08389 20.9221 3.26176Z" stroke="#999999" stroke-opacity="0.4" stroke-width="1.5"/>
</svg>
