<svg width="80" height="80" viewBox="0 0 80 80" fill="none" xmlns="http://www.w3.org/2000/svg">
<path d="M69.615 20L75 32.5C75 36.6425 71.0825 40 66.25 40C61.6025 40 57.8 36.8925 57.5175 32.97C57.515 32.925 57.4875 32.925 57.4825 32.97C57.2 36.8925 53.3975 40 48.75 40C44.1025 40 40.3 36.8925 40.0175 32.97C40.015 32.925 39.9875 32.925 39.9825 32.97C39.7 36.8925 35.8975 40 31.25 40C26.6025 40 22.8 36.8925 22.5175 32.97C22.515 32.925 22.4875 32.925 22.4825 32.97C22.2 36.8925 18.3975 40 13.75 40C8.9175 40 5 36.6425 5 32.5L10.385 20H69.615Z" fill="#0198E9"/>
<path d="M70 15H10V7.5C10 6.12 11.12 5 12.5 5H67.5C68.88 5 70 6.12 70 7.5V15Z" fill="#0198E9"/>
<path d="M70 44.5148V74.9998H10V44.5148C11.195 44.8248 12.4475 44.9998 13.75 44.9998C15.0525 44.9998 16.3 44.7898 17.5 44.4773V63.7498C17.5 64.4398 18.06 64.9998 18.75 64.9998H61.25C61.94 64.9998 62.5 64.4398 62.5 63.7498V44.4773C63.7 44.7898 64.9475 44.9998 66.25 44.9998C67.5525 44.9998 68.805 44.8248 70 44.5148Z" fill="#0198E9"/>
</svg>
