<svg width="60" height="78" viewBox="0 0 60 78" fill="none" xmlns="http://www.w3.org/2000/svg">
<path d="M59.5284 63.3409C57.7947 58.1811 50.8848 54.9512 45.9582 52.7862C44.0282 51.9409 38.685 50.5067 38.0428 48.0766C37.813 47.2011 37.844 46.3756 38.0325 45.5845C37.7355 45.6413 37.4342 45.6749 37.1226 45.6749H33.9125C31.3498 45.6749 29.2675 43.5899 29.2675 41.0289C29.2675 38.4697 31.3507 36.389 33.9125 36.389H37.1226C38.1831 36.389 39.1886 36.748 39.9995 37.3885C41.1883 37.2301 42.3349 36.9761 43.4041 36.643C44.8081 33.7015 45.9031 30.1841 46.1485 27.1566C47.1961 14.2027 39.2549 6.62392 27.8686 7.93412C19.5899 8.88706 14.6444 15.0601 14.1099 23.0073C13.5692 31.1078 16.5727 37.0906 19.763 41.4792C21.1601 43.398 22.6278 44.6315 22.4023 46.9437C22.1406 49.6778 19.2172 50.4396 17.1262 51.2798C14.6487 52.2749 11.9801 53.7848 10.7199 54.4829C6.37868 56.8804 1.61395 59.7676 0.543073 63.7171C-1.82853 72.4701 6.18069 75.1215 12.7928 76.3456C18.4674 77.3924 24.866 77.475 30.1292 77.475C39.6491 77.475 56.7677 77.0937 59.5284 69.9375C60.3135 67.9068 59.9769 64.6709 59.5284 63.3409Z" fill="#0198E9"/>
<path d="M39.1515 39.7215C38.716 39.0578 37.9713 38.6171 37.1217 38.6171H33.9116C32.5722 38.6171 31.4918 39.6992 31.4918 41.0317C31.4918 42.3695 32.5722 43.4533 33.9116 43.4533H37.1217C38.0591 43.4533 38.8545 42.9187 39.2557 42.1457C43.7312 41.7936 47.6239 40.4266 50.3562 38.4079C50.9837 38.8125 51.7258 39.0492 52.5263 39.0492H52.7278C54.9591 39.0492 56.7634 37.2432 56.7634 35.0093V26.945C56.7634 25.3387 55.8216 23.9528 54.4632 23.3088C53.871 10.3593 43.151 0 30.0559 0C16.9609 0 6.2392 10.3593 5.64953 23.3088C4.28855 23.9536 3.34766 25.3387 3.34766 26.945V35.0093C3.34766 37.2432 5.15369 39.0492 7.37981 39.0492H7.58383C9.81167 39.0492 11.6186 37.2432 11.6186 35.0093V26.945C11.6186 25.3619 10.7035 23.9967 9.37351 23.3364C9.94941 12.4253 19.0037 3.72828 30.0559 3.72828C41.1039 3.72828 50.1625 12.4253 50.7358 23.3364C49.4075 23.9975 48.4933 25.3619 48.4933 26.945V35.0093C48.4933 35.5448 48.5975 36.0432 48.7808 36.5089C46.429 38.1918 43.0055 39.391 39.1515 39.7215Z" fill="#0198E9"/>
</svg>
