<svg width="19" height="5" viewBox="0 0 19 5" fill="none" xmlns="http://www.w3.org/2000/svg">
<path d="M4.374 2.488C4.374 1.534 3.636 0.796 2.556 0.796C1.458 0.796 0.72 1.534 0.72 2.488C0.72 3.406 1.458 4.144 2.556 4.144C3.636 4.144 4.374 3.406 4.374 2.488ZM11.2541 2.488C11.2541 1.534 10.5161 0.796 9.43608 0.796C8.33808 0.796 7.60008 1.534 7.60008 2.488C7.60008 3.406 8.33808 4.144 9.43608 4.144C10.5161 4.144 11.2541 3.406 11.2541 2.488ZM18.1342 2.488C18.1342 1.534 17.3962 0.796 16.3162 0.796C15.2182 0.796 14.4802 1.534 14.4802 2.488C14.4802 3.406 15.2182 4.144 16.3162 4.144C17.3962 4.144 18.1342 3.406 18.1342 2.488Z" fill="#757575"/>
</svg>
