<svg width="43" height="43" viewBox="0 0 43 43" fill="none" xmlns="http://www.w3.org/2000/svg">
<circle cx="21.492" cy="21.6322" r="20.8533" fill="#1DA1F2"/>
<path fill-rule="evenodd" clip-rule="evenodd" d="M32.6462 14.4533C31.8258 14.8177 30.943 15.0631 30.017 15.174C30.9623 14.6072 31.6882 13.7103 32.0296 12.6415C31.146 13.1666 30.165 13.5466 29.123 13.7527C28.2878 12.8631 27.097 12.3068 25.7813 12.3068C23.2533 12.3068 21.2035 14.3566 21.2035 16.8846C21.2035 17.2431 21.2444 17.5927 21.3225 17.9281C17.5174 17.7377 14.1445 15.9147 11.8865 13.145C11.4923 13.8211 11.2669 14.6072 11.2669 15.4462C11.2669 17.0341 12.0739 18.4353 13.3033 19.2564C12.5521 19.2326 11.8471 19.0266 11.229 18.6838V18.741C11.229 20.9596 12.808 22.8094 14.9009 23.2311C14.5171 23.3352 14.1125 23.3917 13.6953 23.3917C13.4 23.3917 13.1129 23.3627 12.8333 23.3092C13.4156 25.1276 15.1069 26.4515 17.1099 26.4887C15.5435 27.7159 13.5696 28.4485 11.4246 28.4485C11.0542 28.4485 10.6898 28.4269 10.332 28.3838C12.358 29.6824 14.7641 30.441 17.3494 30.441C25.7694 30.441 30.374 23.4653 30.374 17.4164C30.374 17.2178 30.3703 17.02 30.3606 16.8244C31.2561 16.1773 32.0326 15.3711 32.6462 14.4533Z" fill="white"/>
</svg>
