<svg width="26" height="26" viewBox="0 0 26 26" fill="none" xmlns="http://www.w3.org/2000/svg">
<g clip-path="url(#clip0_1_14155)">
<path d="M21.9052 18.4455L14.8707 5.4888C14.6845 5.14662 14.4094 4.86099 14.0745 4.66197C13.7396 4.46295 13.3572 4.35791 12.9677 4.35791C12.5781 4.35791 12.1957 4.46295 11.8608 4.66197C11.5259 4.86099 11.2508 5.14662 11.0646 5.4888L4.02294 18.4455C3.83863 18.7763 3.74425 19.1496 3.74921 19.5283C3.75416 19.907 3.85828 20.2777 4.05118 20.6036C4.24408 20.9295 4.51903 21.1991 4.84862 21.3856C5.1782 21.5722 5.55092 21.669 5.92961 21.6666H19.9985C20.3741 21.6669 20.7433 21.5696 21.07 21.3842C21.3966 21.1989 21.6694 20.9317 21.8617 20.6091C22.054 20.2865 22.1591 19.9194 22.1667 19.5439C22.1743 19.1684 22.0842 18.7973 21.9052 18.4671V18.4455ZM11.8879 9.20103C11.8879 8.91371 12.0021 8.63816 12.2052 8.43499C12.4084 8.23183 12.684 8.11769 12.9713 8.11769C13.2586 8.11769 13.5341 8.23183 13.7373 8.43499C13.9405 8.63816 14.0546 8.91371 14.0546 9.20103V14.1771C14.0546 14.4645 13.9405 14.74 13.7373 14.9432C13.5341 15.1463 13.2586 15.2605 12.9713 15.2605C12.684 15.2605 12.4084 15.1463 12.2052 14.9432C12.0021 14.74 11.8879 14.4645 11.8879 14.1771V9.20103ZM13.0002 18.9583C12.7545 18.9583 12.5143 18.8854 12.31 18.7489C12.1057 18.6124 11.9465 18.4184 11.8525 18.1914C11.7585 17.9644 11.7339 17.7147 11.7818 17.4737C11.8297 17.2327 11.9481 17.0114 12.1218 16.8376C12.2955 16.6639 12.5169 16.5456 12.7578 16.4977C12.9988 16.4497 13.2486 16.4743 13.4755 16.5684C13.7025 16.6624 13.8965 16.8216 14.033 17.0259C14.1695 17.2302 14.2424 17.4703 14.2424 17.716C14.2424 18.0455 14.1115 18.3615 13.8785 18.5944C13.6456 18.8274 13.3296 18.9583 13.0002 18.9583Z" fill="#DBA534"/>
</g>
<defs>
<clipPath id="clip0_1_14155">
<rect width="26" height="26" fill="white"/>
</clipPath>
</defs>
</svg>
