<svg width="24" height="24" viewBox="0 0 24 24" fill="none" xmlns="http://www.w3.org/2000/svg">
<path d="M4.0005 16.246C4.0005 15.004 5.0073 13.9971 6.2494 13.9971H17.7511C18.9931 13.9971 20 15.004 20 16.246V17.166C20 17.7381 19.8216 18.2959 19.4896 18.7618C17.9475 20.9261 15.4245 21.9983 12.0035 21.9983C8.5833 21.9983 6.059 20.9266 4.5131 18.7634C4.1797 18.2969 4.0005 17.7378 4.0005 17.1645V16.246Z" fill="#4A5568"/>
<path d="M7.00326 7.00195C7.00326 4.24053 9.24186 2.00195 12.0033 2.00195C13.6538 2.00195 15.1175 2.80167 16.0281 4.03476C16.0989 4.01263 16.1741 4.00071 16.2522 4.00071H18.75C19.1642 4.0007 19.5 4.33649 19.5 4.75071V10.2495C19.5 11.7683 18.2688 12.9995 16.75 12.9995H16.5V12.9952C16.4966 12.9952 16.4932 12.9952 16.4898 12.9952C15.9389 12.9952 15.4923 12.5486 15.4923 11.9977C15.4923 11.4468 15.9389 11.0002 16.4898 11.0002C16.8091 11.0002 17.0935 11.1503 17.276 11.3837C17.7036 11.1851 18 10.7519 18 10.2495V9.99902H17.2522C16.8715 9.99902 16.5192 9.87748 16.232 9.67108C15.3461 11.0718 13.7833 12.002 12.0033 12.002C9.24186 12.002 7.00326 9.76338 7.00326 7.00195ZM17.0022 6.896C17.0029 6.93123 17.0033 6.96655 17.0033 7.00195C17.0033 7.03736 17.0029 7.07268 17.0022 7.10791V8.24902C17.0022 8.38709 17.1141 8.49902 17.2522 8.49902H18V5.50071H17.0022V6.896Z" fill="#4A5568"/>
</svg>
