<svg width="25" height="21" viewBox="0 0 25 21" fill="none" xmlns="http://www.w3.org/2000/svg">
<path d="M21.8945 6.74833C21.6355 5.53289 21.2147 4.52812 20.4702 3.73403C19.4182 2.56721 18.0425 2 16.4079 2H16.1975C14.4657 2.04862 13.0414 2.74547 12.038 4.00953C11.6657 3.58818 11.1964 3.16683 10.6623 2.84271C9.61026 2.21068 8.3964 1.95138 7.02069 2.04862C5.49933 2.21068 4.28547 2.89132 3.37912 4.00953C2.42422 5.27359 1.95486 6.69971 2.00342 8.17445C2.05197 9.55195 2.47278 10.816 3.26583 12.0315C4.15599 13.409 5.27274 14.4623 6.27619 15.3051C7.70045 16.5691 9.33511 17.6873 11.3906 18.8379C11.601 18.9514 11.7628 19 11.9732 19C12.1836 19 12.3455 18.9514 12.5559 18.8379C14.3524 17.8332 15.9223 16.7798 17.3466 15.5643C18.8194 14.3489 19.8714 13.1821 20.713 11.918C21.8459 10.2812 22.202 8.59581 21.8945 6.74833Z" fill="#4A5568"/>
</svg>
