<svg width="30" height="33" viewBox="0 0 30 33" fill="none" xmlns="http://www.w3.org/2000/svg">
<path d="M27.7592 17.7493H22.4826C22.132 17.7493 21.8477 18.0336 21.8477 18.3843C21.8477 18.7349 22.132 19.0192 22.4826 19.0192H27.7592C28.0011 19.0192 28.1977 19.2159 28.1977 19.4577V22.2459H11.0531V19.4577C11.0531 19.2159 11.2498 19.0192 11.4916 19.0192H16.7682C17.1188 19.0192 17.4031 18.7349 17.4031 18.3843C17.4031 18.0336 17.1188 17.7493 16.7682 17.7493H14.8736L16.3079 2.06527C16.3563 1.53675 16.1788 1.00879 15.821 0.616845C15.4633 0.224833 14.9537 0 14.423 0H1.89284C1.3621 0 0.852492 0.224833 0.494703 0.616845C0.136914 1.00886 -0.040552 1.53675 0.00783044 2.06527L2.19076 25.9346V30.312C2.19076 31.5235 3.17631 32.509 4.38778 32.509H26.0121C27.9175 32.509 29.4677 30.9589 29.4677 29.0535V24.1835C29.4677 23.8804 29.3976 23.5935 29.273 23.3378C29.3928 23.2223 29.4677 23.0605 29.4677 22.881V19.4578C29.4676 18.5157 28.7012 17.7493 27.7592 17.7493ZM11.4916 17.7493C10.5496 17.7493 9.78319 18.5157 9.78319 19.4577V22.8809C9.78319 23.0604 9.85805 23.2222 9.97786 23.3378C9.85328 23.5934 9.78319 23.8804 9.78319 24.1834V25.2706H3.40521L1.47473 4.1621H14.841L13.5984 17.7494H11.4916V17.7493ZM1.4327 1.47287C1.55213 1.34201 1.71557 1.26988 1.89284 1.26988H14.423C14.6002 1.26988 14.7636 1.34195 14.8831 1.47287C15.0026 1.6038 15.0595 1.77314 15.0434 1.94959L14.9571 2.89216H1.3586L1.27238 1.94959C1.25625 1.77314 1.31321 1.6038 1.4327 1.47287ZM3.46064 30.3119V26.5405H9.78325V28.6998C9.77982 28.6998 9.77658 28.6993 9.77315 28.6993H6.54277C5.83697 28.6993 5.26279 29.2735 5.26279 29.9793V31.2391H4.38771C3.87652 31.2391 3.46064 30.8232 3.46064 30.3119ZM6.53261 31.2391V29.9793C6.53261 29.9737 6.53712 29.9692 6.5427 29.9692H9.77309C9.77868 29.9692 9.78319 29.9737 9.78319 29.9793V31.2391H6.53261ZM28.1977 29.0534C28.1977 30.2586 27.2173 31.2391 26.0121 31.2391H13.2388C12.0336 31.2391 11.0531 30.2586 11.0531 29.0534V24.1834C11.0531 23.8153 11.3526 23.5158 11.7208 23.5158H27.5302C27.8984 23.5158 28.1979 23.8153 28.1979 24.1834V29.0534H28.1977Z" fill="#0970CD"/>
<path d="M23.2444 25.3457H16.006C15.6554 25.3457 15.3711 25.63 15.3711 25.9806V28.7744C15.3711 29.1251 15.6554 29.4093 16.006 29.4093H23.2444C23.595 29.4093 23.8793 29.1251 23.8793 28.7744V25.9806C23.8793 25.63 23.595 25.3457 23.2444 25.3457ZM22.6094 28.1394H16.641V26.6156H22.6094V28.1394Z" fill="#0970CD"/>
<path d="M8.92805 10.7629C8.73604 10.5357 8.45533 10.4055 8.15793 10.4055C7.86052 10.4055 7.57981 10.5358 7.38781 10.7629L6.12523 12.2566C5.23917 13.3048 5.30533 14.8862 6.2759 15.8567C6.77858 16.3594 7.44698 16.6363 8.15793 16.6363C8.86887 16.6363 9.53727 16.3594 10.04 15.8567C11.0105 14.8862 11.0767 13.3048 10.1907 12.2566L8.92805 10.7629ZM9.14202 14.9588C8.87916 15.2217 8.52968 15.3664 8.15793 15.3664C7.78623 15.3664 7.43676 15.2217 7.17389 14.9588C6.66639 14.4514 6.63178 13.6245 7.0951 13.0764L8.15793 11.819L9.22075 13.0764C9.68413 13.6245 9.64953 14.4514 9.14202 14.9588Z" fill="#0970CD"/>
<path d="M29.795 7.01805C28.7854 6.08945 27.5348 5.51216 26.1786 5.34854C24.4374 5.13818 22.7196 5.62029 21.3418 6.7056C19.971 7.78544 19.105 9.3305 18.9035 11.0561C18.8206 11.7654 18.8525 12.4728 18.9964 13.1603C18.7515 13.7397 18.5854 14.3552 18.5103 14.9907C18.4692 15.3389 18.718 15.6546 19.0663 15.6958C19.0916 15.6988 19.1167 15.7002 19.1417 15.7002C19.459 15.7002 19.7333 15.4627 19.7714 15.1398C19.8203 14.7264 19.9137 14.3269 20.0474 13.9459C20.4869 14.0999 20.9428 14.2072 21.4101 14.2648C21.6755 14.2975 21.9398 14.3135 22.2022 14.3135C24.9583 14.3135 27.4823 12.5502 28.3846 9.89439C28.638 9.1484 29.1123 8.48845 29.7561 7.98589C29.9031 7.87109 29.9923 7.69744 29.9998 7.51102C30.0071 7.3246 29.9323 7.14434 29.795 7.01805ZM27.182 9.48581C26.3864 11.8276 24.0242 13.3073 21.5653 13.0045C21.239 12.9643 20.92 12.8938 20.6104 12.7953C21.0746 12.0772 21.7085 11.4699 22.4796 11.0247C22.7833 10.8494 22.8873 10.4611 22.712 10.1574C22.5367 9.85369 22.1483 9.74963 21.8446 9.925C21.203 10.2954 20.6339 10.7674 20.1537 11.3145C20.1572 11.2775 20.1605 11.2405 20.1648 11.2035C20.3269 9.81566 21.024 8.57251 22.1276 7.70315C23.2383 6.82827 24.6231 6.44006 26.0264 6.60921C26.8837 6.71271 27.6888 7.02192 28.3887 7.5126C27.8439 8.07859 27.4322 8.74953 27.182 9.48581Z" fill="#0970CD"/>
<path d="M19.6252 19.0191C19.9758 19.0191 20.2601 18.7349 20.2601 18.3842C20.2601 18.0335 19.9758 17.7493 19.6252 17.7493C19.2745 17.7493 18.9902 18.0335 18.9902 18.3842C18.9902 18.7349 19.2745 19.0191 19.6252 19.0191Z" fill="#0970CD"/>
</svg>
