<svg width="32" height="28" viewBox="0 0 32 28" fill="none" xmlns="http://www.w3.org/2000/svg">
<path d="M5.00316 9.43058L5.00316 9.43058L3.74776 9.68876C3.74776 9.68876 3.74775 9.68876 3.74774 9.68876C3.71445 9.69562 3.68132 9.69894 3.64863 9.69894C3.42077 9.69894 3.21682 9.53945 3.16914 9.30769L5.00316 9.43058ZM5.00316 9.43058C5.26826 9.37603 5.43878 9.11681 5.38424 8.85197L5.00316 9.43058ZM4.80562 8.47089L4.80563 8.47089C5.0707 8.41635 5.32968 8.58687 5.38424 8.85196L4.80562 8.47089ZM4.80562 8.47089L3.55021 8.7293M4.80562 8.47089L3.55021 8.7293M3.55021 8.7293C3.55021 8.7293 3.55021 8.7293 3.55021 8.7293M3.55021 8.7293L3.55021 8.7293M3.55021 8.7293C3.28514 8.78385 3.11459 9.04282 3.16913 9.30768L3.55021 8.7293Z" fill="#0970CD" stroke="#0970CD" stroke-width="0.1"/>
<path d="M7.88013 11.0089L7.88012 11.0089L6.62472 11.2673L6.6247 11.2673L7.88013 11.0089ZM7.88013 11.0089C8.145 10.9543 8.31548 10.6953 8.2612 10.4303L8.26119 10.4302M7.88013 11.0089L8.26119 10.4302M8.26119 10.4302C8.20665 10.1654 7.94746 9.99433 7.68248 10.0494M8.26119 10.4302L7.68248 10.0494M7.68248 10.0494L6.42716 10.3078C6.42716 10.3078 6.42716 10.3078 6.42716 10.3078C6.16209 10.3623 5.99154 10.6213 6.04609 10.8862L7.68248 10.0494ZM7.68248 10.0494L7.68258 10.0494L7.69266 10.0984L7.68248 10.0494Z" fill="#0970CD" stroke="#0970CD" stroke-width="0.1"/>
<mask id="path-3-outside-1_1_4160" maskUnits="userSpaceOnUse" x="0" y="0" width="32" height="28" fill="black">
<rect fill="white" width="32" height="28"/>
<path d="M30.4321 12.2354V11.3693C30.4321 10.8547 30.2463 10.3571 29.9085 9.96873L28.515 8.36565C28.3164 8.13722 28.2072 7.84494 28.2072 7.54236V5.65019C28.6208 5.6312 28.952 5.2897 28.952 4.87131V1.78072C28.952 1.35019 28.6018 1 28.1712 1H23.1786C22.7484 1 22.3979 1.35019 22.3979 1.78072V4.87131C22.3979 5.26933 22.6975 5.59801 23.0827 5.64561V7.54236C23.0827 7.84494 22.9733 8.13722 22.7749 8.36565L21.4446 9.89572C21.4401 9.8884 21.4357 9.88062 21.4309 9.87329L20.8566 9.004C21.1226 8.87697 21.3073 8.60597 21.3073 8.29195V6.65567C21.3073 6.22057 20.9532 5.86649 20.5181 5.86649H14.5045C14.2614 5.86649 14.0646 6.06332 14.0646 6.3064C14.0646 6.54924 14.2614 6.74608 14.5045 6.74608H20.4275V8.20154H10.6622V6.74608H12.4713C12.7142 6.74608 12.911 6.54924 12.911 6.3064C12.911 6.06332 12.7142 5.86649 12.4713 5.86649H10.5718C10.1365 5.86649 9.78242 6.22057 9.78242 6.65567V8.29195C9.78242 8.60597 9.96713 8.87697 10.2333 9.004L9.65883 9.87329C9.64967 9.88702 9.64189 9.90144 9.63319 9.91541C9.53157 9.26973 9.40408 8.71675 9.28163 8.27409C8.89642 6.8802 7.72409 5.87839 6.29472 5.72206C6.05737 5.6962 5.83238 5.68887 5.63165 5.69185L6.28671 4.4861C6.40276 4.27255 6.32356 4.00568 6.11024 3.88963C5.8967 3.77359 5.62982 3.85255 5.51355 4.0661L5.04045 4.937L4.70697 3.31651C4.65799 3.07848 4.42545 2.92513 4.18741 2.97433C3.94937 3.02332 3.79625 3.25586 3.84523 3.49367L4.17871 5.11438L3.40005 4.50121C3.20917 4.35083 2.93268 4.38356 2.7823 4.57468C2.63193 4.76556 2.66489 5.04205 2.85577 5.19243L3.93381 6.04135C3.74818 6.1178 3.54448 6.21324 3.33665 6.33089C2.08536 7.03905 1.40375 8.42264 1.60036 9.85521C1.6855 10.4743 1.8416 11.2848 2.12541 12.2159H1.73311C1.3289 12.2159 1 12.5448 1 12.949V15.2248C1 15.629 1.3289 15.9579 1.73311 15.9579H2.78551L3.12219 17.8967C3.16362 18.1362 3.39113 18.2964 3.63077 18.2549C3.87018 18.2133 4.0304 17.9855 3.98897 17.7461L3.67838 15.9579H28.3216L26.7847 24.8097C26.6082 25.8254 25.7318 26.5627 24.7007 26.5627H7.29906C6.26794 26.5627 5.39156 25.8254 5.21532 24.8097L4.33801 19.7571C4.29659 19.5177 4.06885 19.3572 3.82944 19.3989C3.59003 19.4406 3.42981 19.6683 3.47124 19.9077L4.34854 24.96C4.59825 26.3983 5.83925 27.4425 7.29906 27.4425H24.7009C26.1608 27.4425 27.4017 26.3983 27.6515 24.96L29.2145 15.9579H30.2669C30.6711 15.9579 31 15.629 31 15.2248V12.949C31 12.6018 30.7569 12.3107 30.4321 12.2354ZM23.2778 1.87982H28.0721V4.77243H23.2778V1.87982ZM21.7374 11.3693C21.7374 11.0667 21.8466 10.7744 22.0452 10.546L23.4389 8.94289C23.7765 8.55447 23.9626 8.05711 23.9626 7.54236V5.65202H27.3274V7.54236C27.3274 8.05688 27.5134 8.55424 27.851 8.94289L29.2447 10.546C29.4431 10.7744 29.5526 11.0667 29.5526 11.3693V12.2159H21.7374V11.3693ZM10.2322 10.8925C10.2322 10.7018 10.2878 10.5171 10.3929 10.3583L11.2365 9.08136H19.8532L20.6969 10.3583C20.8019 10.5171 20.8576 10.7018 20.8576 10.8923V12.2157H19.6857V11.1981C19.6857 10.7939 19.3568 10.465 18.9526 10.465H12.1372C11.733 10.465 11.4041 10.7939 11.4041 11.1981V12.2157H10.2322V10.8925ZM18.8061 11.3448V12.2159H12.2836V11.3448H18.8061ZM3.76993 7.09673C4.368 6.75821 4.93608 6.63644 4.9402 6.63553C4.94455 6.63461 5.26704 6.57098 5.7168 6.57098C5.86603 6.57098 6.02899 6.57808 6.19905 6.59662C7.26793 6.71358 8.145 7.46385 8.43362 8.50847C8.62772 9.21091 8.91977 10.5361 8.94861 12.2159H3.05009C2.70769 11.1564 2.5461 10.2754 2.47217 9.73573C2.32477 8.66205 2.83426 7.62636 3.76993 7.09673ZM30.1202 15.0781H1.87982V13.0957H9.66249C9.70346 13.1083 9.74718 13.1152 9.79227 13.1152H21.1901C21.2245 13.1236 21.2604 13.1289 21.2975 13.1289H29.9925C30.0369 13.1289 30.0797 13.122 30.1202 13.1099V15.0781Z"/>
</mask>
<path d="M30.4321 12.2354V11.3693C30.4321 10.8547 30.2463 10.3571 29.9085 9.96873L28.515 8.36565C28.3164 8.13722 28.2072 7.84494 28.2072 7.54236V5.65019C28.6208 5.6312 28.952 5.2897 28.952 4.87131V1.78072C28.952 1.35019 28.6018 1 28.1712 1H23.1786C22.7484 1 22.3979 1.35019 22.3979 1.78072V4.87131C22.3979 5.26933 22.6975 5.59801 23.0827 5.64561V7.54236C23.0827 7.84494 22.9733 8.13722 22.7749 8.36565L21.4446 9.89572C21.4401 9.8884 21.4357 9.88062 21.4309 9.87329L20.8566 9.004C21.1226 8.87697 21.3073 8.60597 21.3073 8.29195V6.65567C21.3073 6.22057 20.9532 5.86649 20.5181 5.86649H14.5045C14.2614 5.86649 14.0646 6.06332 14.0646 6.3064C14.0646 6.54924 14.2614 6.74608 14.5045 6.74608H20.4275V8.20154H10.6622V6.74608H12.4713C12.7142 6.74608 12.911 6.54924 12.911 6.3064C12.911 6.06332 12.7142 5.86649 12.4713 5.86649H10.5718C10.1365 5.86649 9.78242 6.22057 9.78242 6.65567V8.29195C9.78242 8.60597 9.96713 8.87697 10.2333 9.004L9.65883 9.87329C9.64967 9.88702 9.64189 9.90144 9.63319 9.91541C9.53157 9.26973 9.40408 8.71675 9.28163 8.27409C8.89642 6.8802 7.72409 5.87839 6.29472 5.72206C6.05737 5.6962 5.83238 5.68887 5.63165 5.69185L6.28671 4.4861C6.40276 4.27255 6.32356 4.00568 6.11024 3.88963C5.8967 3.77359 5.62982 3.85255 5.51355 4.0661L5.04045 4.937L4.70697 3.31651C4.65799 3.07848 4.42545 2.92513 4.18741 2.97433C3.94937 3.02332 3.79625 3.25586 3.84523 3.49367L4.17871 5.11438L3.40005 4.50121C3.20917 4.35083 2.93268 4.38356 2.7823 4.57468C2.63193 4.76556 2.66489 5.04205 2.85577 5.19243L3.93381 6.04135C3.74818 6.1178 3.54448 6.21324 3.33665 6.33089C2.08536 7.03905 1.40375 8.42264 1.60036 9.85521C1.6855 10.4743 1.8416 11.2848 2.12541 12.2159H1.73311C1.3289 12.2159 1 12.5448 1 12.949V15.2248C1 15.629 1.3289 15.9579 1.73311 15.9579H2.78551L3.12219 17.8967C3.16362 18.1362 3.39113 18.2964 3.63077 18.2549C3.87018 18.2133 4.0304 17.9855 3.98897 17.7461L3.67838 15.9579H28.3216L26.7847 24.8097C26.6082 25.8254 25.7318 26.5627 24.7007 26.5627H7.29906C6.26794 26.5627 5.39156 25.8254 5.21532 24.8097L4.33801 19.7571C4.29659 19.5177 4.06885 19.3572 3.82944 19.3989C3.59003 19.4406 3.42981 19.6683 3.47124 19.9077L4.34854 24.96C4.59825 26.3983 5.83925 27.4425 7.29906 27.4425H24.7009C26.1608 27.4425 27.4017 26.3983 27.6515 24.96L29.2145 15.9579H30.2669C30.6711 15.9579 31 15.629 31 15.2248V12.949C31 12.6018 30.7569 12.3107 30.4321 12.2354ZM23.2778 1.87982H28.0721V4.77243H23.2778V1.87982ZM21.7374 11.3693C21.7374 11.0667 21.8466 10.7744 22.0452 10.546L23.4389 8.94289C23.7765 8.55447 23.9626 8.05711 23.9626 7.54236V5.65202H27.3274V7.54236C27.3274 8.05688 27.5134 8.55424 27.851 8.94289L29.2447 10.546C29.4431 10.7744 29.5526 11.0667 29.5526 11.3693V12.2159H21.7374V11.3693ZM10.2322 10.8925C10.2322 10.7018 10.2878 10.5171 10.3929 10.3583L11.2365 9.08136H19.8532L20.6969 10.3583C20.8019 10.5171 20.8576 10.7018 20.8576 10.8923V12.2157H19.6857V11.1981C19.6857 10.7939 19.3568 10.465 18.9526 10.465H12.1372C11.733 10.465 11.4041 10.7939 11.4041 11.1981V12.2157H10.2322V10.8925ZM18.8061 11.3448V12.2159H12.2836V11.3448H18.8061ZM3.76993 7.09673C4.368 6.75821 4.93608 6.63644 4.9402 6.63553C4.94455 6.63461 5.26704 6.57098 5.7168 6.57098C5.86603 6.57098 6.02899 6.57808 6.19905 6.59662C7.26793 6.71358 8.145 7.46385 8.43362 8.50847C8.62772 9.21091 8.91977 10.5361 8.94861 12.2159H3.05009C2.70769 11.1564 2.5461 10.2754 2.47217 9.73573C2.32477 8.66205 2.83426 7.62636 3.76993 7.09673ZM30.1202 15.0781H1.87982V13.0957H9.66249C9.70346 13.1083 9.74718 13.1152 9.79227 13.1152H21.1901C21.2245 13.1236 21.2604 13.1289 21.2975 13.1289H29.9925C30.0369 13.1289 30.0797 13.122 30.1202 13.1099V15.0781Z" fill="#0970CD"/>
<path d="M30.4321 12.2354V11.3693C30.4321 10.8547 30.2463 10.3571 29.9085 9.96873L28.515 8.36565C28.3164 8.13722 28.2072 7.84494 28.2072 7.54236V5.65019C28.6208 5.6312 28.952 5.2897 28.952 4.87131V1.78072C28.952 1.35019 28.6018 1 28.1712 1H23.1786C22.7484 1 22.3979 1.35019 22.3979 1.78072V4.87131C22.3979 5.26933 22.6975 5.59801 23.0827 5.64561V7.54236C23.0827 7.84494 22.9733 8.13722 22.7749 8.36565L21.4446 9.89572C21.4401 9.8884 21.4357 9.88062 21.4309 9.87329L20.8566 9.004C21.1226 8.87697 21.3073 8.60597 21.3073 8.29195V6.65567C21.3073 6.22057 20.9532 5.86649 20.5181 5.86649H14.5045C14.2614 5.86649 14.0646 6.06332 14.0646 6.3064C14.0646 6.54924 14.2614 6.74608 14.5045 6.74608H20.4275V8.20154H10.6622V6.74608H12.4713C12.7142 6.74608 12.911 6.54924 12.911 6.3064C12.911 6.06332 12.7142 5.86649 12.4713 5.86649H10.5718C10.1365 5.86649 9.78242 6.22057 9.78242 6.65567V8.29195C9.78242 8.60597 9.96713 8.87697 10.2333 9.004L9.65883 9.87329C9.64967 9.88702 9.64189 9.90144 9.63319 9.91541C9.53157 9.26973 9.40408 8.71675 9.28163 8.27409C8.89642 6.8802 7.72409 5.87839 6.29472 5.72206C6.05737 5.6962 5.83238 5.68887 5.63165 5.69185L6.28671 4.4861C6.40276 4.27255 6.32356 4.00568 6.11024 3.88963C5.8967 3.77359 5.62982 3.85255 5.51355 4.0661L5.04045 4.937L4.70697 3.31651C4.65799 3.07848 4.42545 2.92513 4.18741 2.97433C3.94937 3.02332 3.79625 3.25586 3.84523 3.49367L4.17871 5.11438L3.40005 4.50121C3.20917 4.35083 2.93268 4.38356 2.7823 4.57468C2.63193 4.76556 2.66489 5.04205 2.85577 5.19243L3.93381 6.04135C3.74818 6.1178 3.54448 6.21324 3.33665 6.33089C2.08536 7.03905 1.40375 8.42264 1.60036 9.85521C1.6855 10.4743 1.8416 11.2848 2.12541 12.2159H1.73311C1.3289 12.2159 1 12.5448 1 12.949V15.2248C1 15.629 1.3289 15.9579 1.73311 15.9579H2.78551L3.12219 17.8967C3.16362 18.1362 3.39113 18.2964 3.63077 18.2549C3.87018 18.2133 4.0304 17.9855 3.98897 17.7461L3.67838 15.9579H28.3216L26.7847 24.8097C26.6082 25.8254 25.7318 26.5627 24.7007 26.5627H7.29906C6.26794 26.5627 5.39156 25.8254 5.21532 24.8097L4.33801 19.7571C4.29659 19.5177 4.06885 19.3572 3.82944 19.3989C3.59003 19.4406 3.42981 19.6683 3.47124 19.9077L4.34854 24.96C4.59825 26.3983 5.83925 27.4425 7.29906 27.4425H24.7009C26.1608 27.4425 27.4017 26.3983 27.6515 24.96L29.2145 15.9579H30.2669C30.6711 15.9579 31 15.629 31 15.2248V12.949C31 12.6018 30.7569 12.3107 30.4321 12.2354ZM23.2778 1.87982H28.0721V4.77243H23.2778V1.87982ZM21.7374 11.3693C21.7374 11.0667 21.8466 10.7744 22.0452 10.546L23.4389 8.94289C23.7765 8.55447 23.9626 8.05711 23.9626 7.54236V5.65202H27.3274V7.54236C27.3274 8.05688 27.5134 8.55424 27.851 8.94289L29.2447 10.546C29.4431 10.7744 29.5526 11.0667 29.5526 11.3693V12.2159H21.7374V11.3693ZM10.2322 10.8925C10.2322 10.7018 10.2878 10.5171 10.3929 10.3583L11.2365 9.08136H19.8532L20.6969 10.3583C20.8019 10.5171 20.8576 10.7018 20.8576 10.8923V12.2157H19.6857V11.1981C19.6857 10.7939 19.3568 10.465 18.9526 10.465H12.1372C11.733 10.465 11.4041 10.7939 11.4041 11.1981V12.2157H10.2322V10.8925ZM18.8061 11.3448V12.2159H12.2836V11.3448H18.8061ZM3.76993 7.09673C4.368 6.75821 4.93608 6.63644 4.9402 6.63553C4.94455 6.63461 5.26704 6.57098 5.7168 6.57098C5.86603 6.57098 6.02899 6.57808 6.19905 6.59662C7.26793 6.71358 8.145 7.46385 8.43362 8.50847C8.62772 9.21091 8.91977 10.5361 8.94861 12.2159H3.05009C2.70769 11.1564 2.5461 10.2754 2.47217 9.73573C2.32477 8.66205 2.83426 7.62636 3.76993 7.09673ZM30.1202 15.0781H1.87982V13.0957H9.66249C9.70346 13.1083 9.74718 13.1152 9.79227 13.1152H21.1901C21.2245 13.1236 21.2604 13.1289 21.2975 13.1289H29.9925C30.0369 13.1289 30.0797 13.122 30.1202 13.1099V15.0781Z" stroke="#0970CD" stroke-width="0.2" mask="url(#path-3-outside-1_1_4160)"/>
<path d="M7.93296 18.2108L7.93297 18.2109L9.06319 24.1346C9.1139 24.4004 8.93964 24.6567 8.67413 24.7075C8.67407 24.7076 8.67401 24.7076 8.67395 24.7076L8.66457 24.6585C8.63665 24.664 8.60896 24.6665 8.58149 24.6665C8.37458 24.6665 8.1901 24.5198 8.15005 24.309L7.93296 18.2108ZM7.93296 18.2108C7.882 17.9451 7.62541 17.7707 7.35995 17.8216M7.93296 18.2108L8.10093 24.3183L6.97049 18.3944C6.97049 18.3944 6.97049 18.3944 6.97048 18.3944C6.91976 18.1288 7.09409 17.8721 7.35995 17.8216M7.35995 17.8216C7.35997 17.8216 7.35999 17.8216 7.36 17.8216L7.36933 17.8707L7.3599 17.8216C7.35991 17.8216 7.35993 17.8216 7.35995 17.8216Z" fill="#0970CD" stroke="#0970CD" stroke-width="0.1"/>
<path d="M12.9205 17.8146C12.6508 17.8371 12.4508 18.0739 12.4732 18.3435L12.4732 18.3435L12.9676 24.2672L12.9676 24.2672C12.989 24.523 13.2034 24.7161 13.4555 24.7161C13.4689 24.7161 13.4824 24.7156 13.4962 24.7146L13.4967 24.7146C13.7662 24.6921 13.9665 24.4551 13.9441 24.1857L13.9441 24.1856L13.4495 18.262C13.4495 18.262 13.4495 18.262 13.4495 18.262C13.427 17.9924 13.1906 17.7914 12.9205 17.8146ZM12.9205 17.8146C12.9205 17.8146 12.9205 17.8146 12.9206 17.8146L12.9247 17.8644L12.9204 17.8146C12.9205 17.8146 12.9205 17.8146 12.9205 17.8146Z" fill="#0970CD" stroke="#0970CD" stroke-width="0.1"/>
<path d="M23.8995 24.3183L23.8995 24.3183C23.8547 24.5531 23.6495 24.7165 23.419 24.7165L23.8995 24.3183ZM23.8995 24.3183L25.03 18.3944C25.03 18.3944 25.03 18.3944 25.03 18.3944C25.0807 18.1288 24.9064 17.8721 24.6405 17.8216L24.6311 17.8707L24.6406 17.8216C24.3749 17.7706 24.1182 17.9453 24.0675 18.2109L24.0675 18.2109M23.8995 24.3183L24.0675 18.2109M24.0675 18.2109L22.9373 24.1346M24.0675 18.2109L22.9373 24.1346M22.9373 24.1346C22.8866 24.4004 23.0608 24.6568 23.3264 24.7075L22.9373 24.1346Z" fill="#0970CD" stroke="#0970CD" stroke-width="0.1"/>
<path d="M19.0788 17.8146C18.8089 17.7914 18.5723 17.9927 18.5498 18.2622C18.5498 18.2622 18.5498 18.2622 18.5498 18.2622L18.0552 24.1859L18.0552 24.1859C18.0328 24.4553 18.2331 24.6921 18.5025 24.7148L18.5031 24.7148C18.5169 24.7158 18.5304 24.7163 18.5438 24.7163C18.7959 24.7163 19.0103 24.5232 19.0317 24.2672L19.0317 24.2672L19.5261 18.3435M19.0788 17.8146C19.3485 17.8371 19.5488 18.0739 19.5261 18.3435M19.0788 17.8146C19.0788 17.8146 19.0789 17.8146 19.0789 17.8146L19.0746 17.8644M19.0788 17.8146C19.0788 17.8146 19.0788 17.8146 19.0787 17.8146L19.0746 17.8644M19.5261 18.3435L19.4763 18.3394M19.5261 18.3435L19.5261 18.3435L19.4763 18.3394M19.4763 18.3394L18.9819 24.263L19.0746 17.8644M19.4763 18.3394C19.4967 18.0972 19.3168 17.8846 19.0746 17.8644" fill="#0970CD" stroke="#0970CD" stroke-width="0.1"/>
</svg>
