<svg width="30" height="30" viewBox="0 0 30 30" fill="none" xmlns="http://www.w3.org/2000/svg">
<g clip-path="url(#clip0_1_4206)">
<path d="M17.8451 16.105H16.9746V16.9755H17.8451V16.105Z" fill="#0970CD"/>
<path d="M19.5873 16.105H18.7168V16.9755H19.5873V16.105Z" fill="#0970CD"/>
<path d="M20.9279 18.9714C21.1824 18.49 21.3193 17.9551 21.3272 17.4106V16.1048C21.4427 16.1048 21.5534 16.0589 21.635 15.9773C21.7166 15.8957 21.7625 15.785 21.7625 15.6695V14.3637C21.7618 13.7867 21.5323 13.2336 21.1243 12.8256C20.7163 12.4176 20.1631 12.1881 19.5862 12.1874H18.2804V11.3169C18.2804 11.2014 18.2345 11.0907 18.1529 11.0091C18.0713 10.9274 17.9606 10.8816 17.8451 10.8816C17.5394 10.9067 17.2457 11.0117 16.9934 11.1862C16.7411 11.3608 16.5392 11.5986 16.408 11.8758L15.9765 11.4444C15.9312 11.3985 15.8761 11.3635 15.8154 11.3418C15.7547 11.3201 15.6899 11.3123 15.6258 11.319C15.5617 11.3253 15.4999 11.3458 15.4446 11.3789C15.3894 11.4121 15.3423 11.4571 15.3066 11.5107C15.0979 11.7911 14.9561 12.1155 14.8919 12.4591C14.8278 12.8027 14.843 13.1564 14.9364 13.4932H14.363C14.2475 13.4932 14.1368 13.5391 14.0552 13.6207C13.9736 13.7023 13.9277 13.813 13.9277 13.9285C13.9277 14.801 14.8187 15.5781 15.2335 15.8927V17.4106C15.2415 17.9551 15.3783 18.49 15.6328 18.9714L13.6559 20.5529C13.6049 20.5937 13.5637 20.6454 13.5354 20.7042C13.5071 20.763 13.4924 20.8275 13.4924 20.8928V22.1986C13.4924 22.314 13.5383 22.4247 13.6199 22.5063C13.7015 22.588 13.8123 22.6338 13.9277 22.6338C14.0431 22.6338 14.1539 22.588 14.2355 22.5063C14.3171 22.4247 14.363 22.314 14.363 22.1986V21.1019L16.1534 19.6695C16.2716 19.7862 16.4009 19.8911 16.5393 19.9829V20.0222C16.5393 20.484 16.7227 20.9268 17.0492 21.2533C17.3758 21.5799 17.8186 21.7633 18.2804 21.7633C18.7421 21.7633 19.185 21.5799 19.5115 21.2533C19.838 20.9268 20.0214 20.484 20.0214 20.0222V19.9829C20.1599 19.8911 20.2891 19.7862 20.4074 19.6695L22.1978 21.1019V25.2454H19.1509V24.3749H20.892C21.0074 24.3749 21.1181 24.329 21.1997 24.2474C21.2814 24.1658 21.3272 24.0551 21.3272 23.9396V22.6338C21.3272 22.5184 21.2814 22.4077 21.1997 22.326C21.1181 22.2444 21.0074 22.1986 20.892 22.1986C20.7765 22.1986 20.6658 22.2444 20.5842 22.326C20.5026 22.4077 20.4567 22.5184 20.4567 22.6338V23.5044H17.8451C17.4989 23.5047 17.167 23.6424 16.9222 23.8872C16.6774 24.132 16.5397 24.464 16.5393 24.8102V25.2454H15.2335V24.8102C15.2331 24.464 15.0954 24.132 14.8506 23.8872C14.6058 23.6424 14.2739 23.5047 13.9277 23.5044H12.6219V17.8459C12.6219 17.7304 12.576 17.6197 12.4944 17.5381C12.4128 17.4565 12.3021 17.4106 12.1866 17.4106H5.22238C5.10694 17.4106 4.99623 17.4565 4.9146 17.5381C4.83297 17.6197 4.78711 17.7304 4.78711 17.8459V27.4218C4.78711 27.5372 4.83297 27.6479 4.9146 27.7296C4.99623 27.8112 5.10694 27.857 5.22238 27.857H22.633C22.7485 27.857 22.8592 27.8112 22.9408 27.7296C23.0224 27.6479 23.0683 27.5372 23.0683 27.4218V20.8928C23.0683 20.8275 23.0536 20.763 23.0253 20.7042C22.997 20.6454 22.9559 20.5937 22.9049 20.5529L20.9279 18.9714ZM18.2804 19.5882C16.1808 19.5882 16.1058 17.6331 16.104 17.4119V15.7907C16.1935 15.6347 16.3194 15.5028 16.471 15.4061C16.6226 15.3094 16.7954 15.2509 16.9746 15.2355C17.1672 15.2576 17.3515 15.3266 17.5113 15.4364C17.671 15.5462 17.8014 15.6936 17.891 15.8655C17.9272 15.9372 17.9825 15.9975 18.0509 16.0398C18.1192 16.082 18.1979 16.1045 18.2782 16.1048H18.281C18.3611 16.1045 18.4395 16.0823 18.5078 16.0406C18.5761 15.9988 18.6317 15.9391 18.6684 15.868C18.7579 15.6955 18.8884 15.5476 19.0484 15.4373C19.2084 15.327 19.3931 15.2577 19.5862 15.2355C19.7653 15.2508 19.9381 15.3093 20.0897 15.406C20.2413 15.5027 20.3673 15.6346 20.4567 15.7906V17.4104C20.455 17.6331 20.38 19.5882 18.2804 19.5882ZM15.6688 14.3637C15.7549 14.3637 15.839 14.3382 15.9106 14.2904C15.9822 14.2426 16.0379 14.1746 16.0709 14.095C16.1038 14.0155 16.1124 13.928 16.0956 13.8436C16.0788 13.7591 16.0374 13.6816 15.9765 13.6207C15.8473 13.4653 15.7617 13.2783 15.7284 13.079C15.6951 12.8796 15.7153 12.675 15.7869 12.486L16.2315 12.9304C16.284 12.9829 16.349 13.0211 16.4204 13.0413C16.4917 13.0616 16.5671 13.0633 16.6393 13.0463C16.7115 13.0293 16.7781 12.994 16.8329 12.944C16.8877 12.894 16.9288 12.8308 16.9522 12.7604C17.0542 12.4739 17.2095 12.2093 17.4098 11.9806V12.6227C17.4098 12.7381 17.4557 12.8488 17.5373 12.9304C17.619 13.0121 17.7297 13.0579 17.8451 13.0579H19.5862C19.9324 13.0583 20.2643 13.196 20.5091 13.4408C20.7539 13.6856 20.8916 14.0175 20.892 14.3637V14.9465C20.7275 14.7631 20.5261 14.6164 20.3012 14.516C20.0762 14.4156 19.8326 14.3637 19.5862 14.3637C19.3398 14.3637 19.0962 14.4156 18.8712 14.516C18.6462 14.6164 18.4449 14.7631 18.2804 14.9465C18.1138 14.7657 17.9121 14.6208 17.6875 14.5206C17.463 14.4204 17.2204 14.367 16.9746 14.3637C16.7054 14.3692 16.4407 14.4333 16.1989 14.5516C15.9571 14.67 15.744 14.8397 15.5746 15.0489C15.3355 14.8514 15.1258 14.6207 14.9521 14.3637H15.6688ZM18.2804 20.8928C18.112 20.8925 17.9473 20.8433 17.8063 20.7514C17.6653 20.6594 17.5539 20.5285 17.4858 20.3745C18.0097 20.4852 18.551 20.4852 19.075 20.3745C19.0068 20.5285 18.8955 20.6594 18.7545 20.7514C18.6134 20.8433 18.4488 20.8925 18.2804 20.8928ZM17.4098 24.8102C17.41 24.6948 17.4559 24.5841 17.5375 24.5026C17.6191 24.421 17.7297 24.375 17.8451 24.3749H18.2804V25.2454H17.4098V24.8102ZM14.363 24.8102V25.2454H5.65765V24.3749H13.9277C14.0431 24.375 14.1537 24.421 14.2353 24.5026C14.3169 24.5841 14.3628 24.6948 14.363 24.8102ZM5.65765 18.2811H11.7514V23.5044H5.65765V18.2811ZM22.1978 26.9865H5.65765V26.116H22.1978V26.9865Z" fill="#0970CD"/>
<path d="M8.70619 19.5872C8.44793 19.5872 8.19547 19.6637 7.98073 19.8072C7.76599 19.9507 7.59862 20.1546 7.49979 20.3933C7.40096 20.6319 7.3751 20.8944 7.42548 21.1477C7.47587 21.401 7.60023 21.6337 7.78285 21.8163C7.96547 21.9989 8.19814 22.1233 8.45145 22.1737C8.70475 22.2241 8.9673 22.1982 9.2059 22.0994C9.44451 22.0005 9.64845 21.8332 9.79193 21.6184C9.93541 21.4037 10.012 21.1512 10.012 20.893C10.0116 20.5468 9.87393 20.2148 9.62912 19.97C9.38432 19.7252 9.0524 19.5875 8.70619 19.5872ZM8.70619 21.3282C8.62011 21.3282 8.53595 21.3027 8.46437 21.2549C8.39279 21.207 8.337 21.1391 8.30406 21.0595C8.27112 20.98 8.2625 20.8925 8.27929 20.808C8.29609 20.7236 8.33754 20.6461 8.39841 20.5852C8.45929 20.5243 8.53684 20.4829 8.62128 20.4661C8.70571 20.4493 8.79323 20.4579 8.87276 20.4908C8.9523 20.5238 9.02028 20.5796 9.06811 20.6511C9.11593 20.7227 9.14146 20.8069 9.14146 20.893C9.14131 21.0084 9.09541 21.119 9.01381 21.2006C8.93221 21.2822 8.82159 21.3281 8.70619 21.3282Z" fill="#0970CD"/>
<path d="M27.7015 11.4188L14.2083 0.101805C14.1299 0.0360455 14.0309 0 13.9286 0C13.8263 0 13.7272 0.0360455 13.6489 0.101805L0.155624 11.4188C0.0871573 11.4762 0.0380128 11.5532 0.0148636 11.6395C-0.00828555 11.7258 -0.00431774 11.8171 0.0262283 11.9011C0.0567743 11.985 0.112418 12.0576 0.185605 12.1088C0.258791 12.16 0.345974 12.1875 0.435314 12.1875H3.48219V27.4219C3.48219 27.5373 3.52805 27.648 3.60968 27.7297C3.69131 27.8113 3.80202 27.8571 3.91746 27.8571C4.0329 27.8571 4.14361 27.8113 4.22524 27.7297C4.30687 27.648 4.35273 27.5373 4.35273 27.4219V11.7522C4.35273 11.6368 4.30687 11.5261 4.22524 11.4445C4.14361 11.3628 4.0329 11.317 3.91746 11.317H1.63166L13.9286 1.00337L26.2255 11.317H23.9397C23.8242 11.317 23.7135 11.3628 23.6319 11.4445C23.5503 11.5261 23.5044 11.6368 23.5044 11.7522V27.4219C23.5044 27.5373 23.5503 27.648 23.6319 27.7297C23.7135 27.8113 23.8242 27.8571 23.9397 27.8571C24.0551 27.8571 24.1658 27.8113 24.2475 27.7297C24.3291 27.648 24.375 27.5373 24.375 27.4219V12.1875H27.4218C27.5112 12.1875 27.5984 12.16 27.6715 12.1088C27.7447 12.0576 27.8004 11.985 27.8309 11.9011C27.8615 11.8171 27.8654 11.7258 27.8423 11.6395C27.8191 11.5532 27.77 11.4762 27.7015 11.4188H27.7015Z" fill="#0970CD"/>
<path d="M5.50407 10.7781L13.9276 3.61827L22.3511 10.7781C22.439 10.8528 22.553 10.8896 22.6681 10.8803C22.7831 10.8709 22.8897 10.8163 22.9645 10.7284C23.0392 10.6404 23.0759 10.5264 23.0666 10.4114C23.0573 10.2963 23.0027 10.1897 22.9147 10.115L14.2094 2.71543C14.1307 2.64854 14.0308 2.61182 13.9276 2.61182C13.8243 2.61182 13.7244 2.64854 13.6458 2.71543L4.94043 10.115C4.8525 10.1897 4.79786 10.2963 4.78853 10.4114C4.77921 10.5264 4.81596 10.6404 4.8907 10.7284C4.96544 10.8163 5.07206 10.8709 5.18709 10.8803C5.30212 10.8896 5.41614 10.8528 5.50407 10.7781Z" fill="#0970CD"/>
</g>
<defs>
<clipPath id="clip0_1_4206">
<rect width="30" height="30" fill="white"/>
</clipPath>
</defs>
</svg>
