<svg width="30" height="30" viewBox="0 0 30 30" fill="none" xmlns="http://www.w3.org/2000/svg">
<path d="M25.7118 5.98012C25.705 5.97876 25.6981 5.97724 25.6913 5.97588C25.4682 4.99995 24.0341 4.51647 22.9659 5.05534C21.1316 4.07658 20.9408 2.89427 20.9324 2.83562C20.8502 1.70386 16.353 1.60718 14.9007 1.60718C13.4483 1.60718 8.95232 1.70392 8.86891 2.83513C8.85694 2.91647 8.65274 4.08582 6.83488 5.05566C5.76846 4.51642 4.33296 5.00163 4.11008 5.97582C2.51363 6.29558 1.50781 7.38779 1.50781 8.5752C1.50781 8.58554 1.5083 8.59588 1.50928 8.60616C1.52447 8.76079 1.90089 12.4357 3.69741 16.1758C5.28091 19.4724 7.92901 22.7024 12.3114 23.6343C11.9626 24.5114 11.3716 25.036 11.1186 25.2307H10.1376C9.85569 25.2307 9.58368 25.3104 9.37178 25.4552L7.87674 26.4765C7.62607 26.6477 7.48226 26.8948 7.48226 27.1542V28.5621C7.48226 29.0596 8.00277 29.4643 8.64259 29.4643H13.6761C13.966 29.4643 14.2009 29.2816 14.2009 29.0562C14.2009 28.8308 13.966 28.6481 13.6761 28.6481H8.64253C8.5815 28.6481 8.53189 28.6095 8.53189 28.5621V27.1542C8.53189 27.1295 8.54553 27.1059 8.56947 27.0896L10.0645 26.0683C10.0847 26.0545 10.1107 26.0468 10.1376 26.0468H11.3215H18.4798H19.6637C19.6906 26.0468 19.7165 26.0545 19.7368 26.0683L21.2318 27.0896C21.2557 27.106 21.2694 27.1295 21.2694 27.1543V28.5621C21.2694 28.6096 21.2198 28.6482 21.1587 28.6482H16.1252C15.8353 28.6482 15.6004 28.8308 15.6004 29.0563C15.6004 29.2817 15.8353 29.4643 16.1252 29.4643H21.1587C21.7986 29.4643 22.3191 29.0596 22.3191 28.5621V27.1543C22.3191 26.8948 22.1753 26.6477 21.9246 26.4766L20.4296 25.4553C20.2177 25.3105 19.9457 25.2308 19.6637 25.2308H18.6829C18.4284 25.035 17.8382 24.5105 17.4899 23.6344C21.8591 22.7053 24.5039 19.4918 26.0886 16.2075C26.1904 15.9965 26.0529 15.7612 25.7815 15.6821C25.5101 15.603 25.2076 15.7098 25.1057 15.9209C23.5673 19.1095 21.0417 22.2345 16.7389 22.9366C14.9914 23.2233 13.7596 23.0141 13.0282 22.9324C9.45037 22.338 6.6502 19.9817 4.68783 15.9052C2.99656 12.3918 2.58592 8.82342 2.55751 8.55948C2.56626 7.74275 3.25206 7.03005 4.2443 6.79397C4.41148 7.07755 4.69931 7.31417 5.06593 7.45727C4.38034 7.72496 3.96956 8.31981 4.10952 8.93664V8.9367C4.24941 9.55375 4.89763 10.0027 5.65999 10.0718C4.44598 11.0708 5.65292 12.69 7.36575 12.3726C7.06511 12.9124 7.23089 13.5749 7.85728 13.9835C8.47128 14.3841 9.33812 14.4091 9.98334 14.0793C9.93876 14.6748 10.3959 15.2487 11.153 15.463H11.153C11.9127 15.6779 12.7356 15.4645 13.1927 14.9868C13.6981 16.3023 16.1033 16.3022 16.6087 14.9868C17.6643 16.0898 19.9205 15.447 19.8181 14.0793C21.2938 14.834 23.1319 13.6296 22.4346 12.3724C24.1624 12.6934 25.3452 11.0634 24.1421 10.0723C25.8961 9.91562 26.3102 8.06996 24.7374 7.45727C24.9984 7.35558 25.2244 7.20459 25.3966 7.01345C25.4595 6.94359 25.5131 6.87014 25.558 6.79419C26.5496 7.03038 27.2351 7.74302 27.2438 8.55953C27.2203 8.77853 26.9342 11.285 25.8638 14.1416C25.7827 14.3579 25.9426 14.5844 26.2209 14.6474C26.4996 14.7106 26.7906 14.5859 26.8716 14.3698C28.0169 11.3133 28.2814 8.71531 28.2921 8.60622C28.2931 8.59588 28.2935 8.58554 28.2935 8.5752C28.2936 7.35013 27.2319 6.28296 25.7118 5.98012ZM13.3416 23.8059C14.361 23.93 15.4386 23.9302 16.4598 23.8059C16.6883 24.4119 17.0169 24.8845 17.3243 25.2307H12.477C12.7844 24.8845 13.1131 24.4118 13.3416 23.8059ZM23.3989 5.83191C23.8084 5.48647 24.553 5.65644 24.6582 6.11963C24.7273 6.42529 24.4679 6.72427 24.0636 6.77977C23.6636 6.83429 23.2849 6.62721 23.2145 6.31751C23.1768 6.15069 23.2298 5.98039 23.3989 5.83191ZM14.9007 2.42331C17.3866 2.42331 19.0179 2.67495 19.6554 2.87186C18.5048 3.22687 16.1464 3.32051 14.9007 3.32051C13.6714 3.32051 11.2852 3.22562 10.146 2.87186C10.7834 2.675 12.4147 2.42331 14.9007 2.42331ZM5.44466 5.75177C5.97693 5.46188 6.70003 5.81782 6.5868 6.31746C6.44285 6.95143 5.22856 6.95524 5.1336 6.24868C5.12031 6.04802 5.23892 5.86374 5.44466 5.75177ZM5.14319 8.79491C5.07307 8.48548 5.33976 8.18934 5.73767 8.13476C6.1362 8.08052 6.51654 8.2876 6.5868 8.59702C6.65713 8.90726 6.39121 9.20237 5.99225 9.25716C5.59323 9.31184 5.21366 9.10509 5.14319 8.79491ZM7.32131 11.5175C6.97057 11.675 6.52263 11.5818 6.32011 11.309C6.039 10.9303 6.39156 10.4543 6.95363 10.4543C7.7013 10.4543 7.9682 11.2271 7.32131 11.5175ZM9.56458 13.2881C9.14624 13.6756 8.32979 13.476 8.27296 12.9715C8.23762 12.6578 8.53567 12.3817 8.93924 12.3542C9.58508 12.3094 9.98404 12.8995 9.56458 13.2881ZM12.4514 14.3555C12.3132 14.6507 11.8917 14.8035 11.512 14.6961C11.1322 14.5886 10.9358 14.261 11.0739 13.9658C11.2121 13.6705 11.6334 13.5177 12.0133 13.6252C12.3931 13.7326 12.5896 14.0603 12.4514 14.3555ZM14.9007 15.1606C14.4966 15.1606 14.1678 14.905 14.1678 14.5907C14.1678 14.2765 14.4965 14.0209 14.9007 14.0209C15.3048 14.0209 15.6336 14.2765 15.6336 14.5907C15.6336 14.905 15.3048 15.1606 14.9007 15.1606ZM18.2895 14.696C17.9096 14.8035 17.4883 14.6507 17.35 14.3555C17.2118 14.0602 17.4083 13.7326 17.7881 13.6251C18.1672 13.5176 18.5892 13.67 18.7275 13.9657C18.8657 14.2609 18.6692 14.5886 18.2895 14.696ZM21.2694 13.3584C20.7711 13.6838 20.0114 13.3762 20.0682 12.8722C20.1251 12.367 20.9417 12.1682 21.3598 12.5556C21.6196 12.7963 21.579 13.1565 21.2694 13.3584ZM21.2107 11.5733C20.0439 11.3595 18.9501 12.0763 19.0186 13.0045C18.0042 12.4872 16.6705 12.8837 16.3312 13.7648C16.006 13.4253 15.4858 13.2048 14.9007 13.2048C14.3156 13.2048 13.7954 13.4253 13.4702 13.7648C13.1321 12.8873 11.8001 12.4847 10.7817 13.0051C10.8518 12.0803 9.76157 11.3588 8.59074 11.5733C9.06373 10.7187 8.3477 9.75588 7.15979 9.64777C7.53335 9.33981 7.72215 8.90329 7.62054 8.45529C7.51886 8.00679 7.14874 7.64655 6.6614 7.45667C7.14839 7.26673 7.51886 6.90747 7.62054 6.45919C7.68191 6.1884 7.63685 5.92201 7.50948 5.68544C8.79676 4.97862 9.39901 4.16657 9.67822 3.60382C11.0302 4.04181 13.4768 4.13653 14.9007 4.13653C16.2508 4.13653 18.8898 4.02608 20.1223 3.60414C20.4008 4.16657 21.0025 4.97764 22.291 5.68495C22.1602 5.9274 22.1208 6.19406 22.1809 6.45914C22.2826 6.90752 22.6531 7.26678 23.1402 7.45672C22.0753 7.87153 21.816 8.96559 22.6396 9.64717C21.4471 9.75751 20.7401 10.7231 21.2107 11.5733ZM23.4812 11.3089C23.2787 11.5818 22.8309 11.6749 22.48 11.5175C22.1301 11.3603 22.0097 11.0111 22.2117 10.739C22.4145 10.4662 22.8621 10.373 23.2129 10.5305C23.5629 10.6877 23.6833 11.0369 23.4812 11.3089ZM23.8091 9.25722C23.4101 9.20248 23.1442 8.90726 23.2145 8.59708C23.3273 8.10054 24.1616 7.95266 24.5368 8.36916C24.9097 8.78332 24.4508 9.34471 23.8091 9.25722Z" fill="#0970CD"/>
</svg>
