<svg width="30" height="30" viewBox="0 0 30 30" fill="none" xmlns="http://www.w3.org/2000/svg">
<path d="M7.87209 7.18738L7.87214 7.18738C7.89039 6.97764 8.07218 6.81224 8.28509 6.82146L8.28944 6.82165L8.28943 6.82175C8.49783 6.83988 8.66453 7.01353 8.65535 7.23452L8.65528 7.23619L8.65527 7.23619C8.60702 8.06339 8.53441 8.60744 8.40961 9.11012C8.28521 9.61118 8.10958 10.0683 7.85979 10.7183L7.85925 10.7197L7.85913 10.72L7.67841 11.1952C7.26074 15.0522 7.09701 17.5503 7.17219 20.0401L7.1722 20.0402C7.23325 22.1771 7.47574 24.3285 7.88733 27.3315L12.7539 27.3381C12.7613 27.2879 12.7698 27.2292 12.7793 27.1629C12.866 26.56 13.0429 25.3298 13.3257 24.1769C13.4923 23.4974 13.6972 22.8381 13.9452 22.3469C14.0691 22.1016 14.2064 21.8927 14.3594 21.7442C14.513 21.5951 14.689 21.5007 14.8868 21.5018M7.87209 7.18738L14.8862 21.6018M7.87209 7.18738L7.87192 7.19033M7.87209 7.18738L7.87192 7.19033M14.8868 21.5018L14.8862 21.6018M14.8868 21.5018C14.8866 21.5018 14.8864 21.5018 14.8862 21.5018V21.6018M14.8868 21.5018C15.0841 21.5019 15.2598 21.5968 15.4131 21.7459C15.566 21.8947 15.7033 22.1036 15.8272 22.3489C16.0752 22.8398 16.2801 23.4983 16.4468 24.1768C16.7312 25.3352 16.9085 26.5716 16.9947 27.1724C17.0036 27.2347 17.0116 27.2902 17.0186 27.3381M14.8862 21.6018C16.0945 21.6018 16.7079 25.8775 16.8955 27.1855C16.9105 27.2899 16.9228 27.3753 16.9324 27.4382M17.0186 27.3381L16.9323 27.3382L16.9324 27.4382M17.0186 27.3381L21.8918 27.3315M17.0186 27.3381C17.0232 27.3698 17.0274 27.3982 17.0312 27.423L16.9324 27.4382M16.9324 27.4382L21.8918 27.3315M21.8918 27.3315L21.9791 27.3314L21.9792 27.4314L21.8801 27.418C21.8841 27.389 21.8879 27.3602 21.8918 27.3315ZM7.87192 7.19033C7.82748 7.96633 7.75934 8.46942 7.64466 8.93148C7.53037 9.39195 7.36927 9.81447 7.1342 10.431L7.13026 10.4413C7.11655 10.4749 7.103 10.5172 7.09002 10.5579L7.08813 10.5638C7.07503 10.6049 7.06173 10.6466 7.04706 10.6864C7.03769 10.7118 7.02828 10.7349 7.01878 10.7553L4.13175 6.99354L7.87192 7.19033ZM22.9424 11.7776L23.5403 12.0846L23.5413 12.0851C23.7068 12.1678 23.9101 12.1228 24.0223 11.9742C24.0225 11.9739 24.0228 11.9736 24.023 11.9732L27.111 8.06184C27.1111 8.06177 27.1111 8.0617 27.1112 8.06163C27.2235 7.92099 27.221 7.72648 27.1129 7.58234L27.1127 7.58208C25.0083 4.79448 22.4631 2.80203 19.4685 1.05347L19.4685 1.05346L19.4671 1.05267C19.4118 1.02155 19.3466 0.987475 19.2732 0.975825C19.1947 0.963354 19.115 0.977466 19.0315 1.02581L19.0313 1.0259C17.523 1.90293 16.2117 2.33765 14.9073 2.34187C13.603 2.34609 12.2936 1.91989 10.7888 1.05318L10.7888 1.05315L10.7868 1.05203C10.7111 1.01077 10.6375 0.975447 10.5548 0.972939C10.4698 0.970362 10.3915 1.00239 10.304 1.05344L22.9424 11.7776ZM22.9424 11.7776C23.3062 15.29 23.4515 17.6774 23.3838 20.0596L23.3838 20.0598C23.2976 22.9597 22.8913 25.8333 22.487 28.6934C22.4723 28.7978 22.4575 28.9022 22.4428 29.0066C22.4308 29.2092 22.2571 29.3716 22.0548 29.3716H16.85H16.75V29.3546C16.5996 29.3179 16.485 29.1881 16.4627 29.0317L16.4624 29.0301C16.2781 27.569 16.0871 26.3403 15.8896 25.3434C15.693 24.9702 15.5127 24.6976 15.3431 24.5193C15.1713 24.3386 15.0218 24.2663 14.887 24.2673C14.7519 24.2683 14.6019 24.3432 14.4296 24.5257C14.2599 24.7056 14.0796 24.9787 13.883 25.3501C13.6924 26.3396 13.5015 27.5535 13.3174 28.9989C13.3059 29.2087 13.1318 29.3716 12.9224 29.3716H7.71766C7.52213 29.3716 7.35769 29.2236 7.3303 29.0317L7.33028 29.0315C7.3156 28.9273 7.3009 28.8231 7.28621 28.7189C6.88165 25.8504 6.47519 22.9683 6.3955 20.0598C6.32106 17.6775 6.46628 15.29 6.83006 11.7776L6.23214 12.0846L6.2293 12.0861L6.22928 12.0861C6.0554 12.1684 5.8538 12.1138 5.74333 11.9674L2.66142 8.055C2.66134 8.0549 2.66126 8.0548 2.66118 8.0547C2.55013 7.91554 2.54992 7.71355 2.66054 7.57415C4.76483 4.79405 7.31659 2.79498 10.304 1.05345L22.9424 11.7776ZM19.0816 1.11235C19.212 1.03681 19.3082 1.07803 19.4181 1.13983L19.0816 1.11235ZM19.0816 1.11235V1.11235V1.11235ZM22.7132 10.8169L22.762 10.9176L22.8301 10.8287L22.7813 10.728L22.7132 10.8169ZM20.6306 2.56272C20.6018 2.54385 20.573 2.52501 20.5442 2.50621C20.5332 2.53891 20.522 2.57143 20.5107 2.60377C20.5395 2.62253 20.5682 2.64134 20.5969 2.66018C20.6083 2.62787 20.6195 2.59539 20.6306 2.56272ZM9.26046 2.61132C9.24957 2.57874 9.23884 2.54599 9.22828 2.51305C9.19926 2.53178 9.17029 2.55056 9.14137 2.56937C9.15203 2.60227 9.16287 2.63499 9.17387 2.66754C9.20269 2.64876 9.23155 2.63002 9.26046 2.61132ZM25.6901 6.92921L25.6408 6.99354C25.6584 7.01396 25.6759 7.03442 25.6934 7.05492L25.7695 6.99001L25.6901 6.92921ZM22.6426 10.4425L22.641 10.4385L22.6391 10.4346L22.5491 10.4782L22.6426 10.4425ZM22.0067 10.6841L21.9132 10.7197L21.9133 10.72L22.0067 10.6841ZM22.0926 11.1824C22.0931 11.1867 22.0936 11.1909 22.094 11.1952L22.0986 11.2072L22.1921 11.1716L22.0926 11.1824ZM17.1927 28.5879C17.18 28.4873 17.1661 28.3873 17.1525 28.2891C17.1444 28.2303 17.1363 28.1722 17.1287 28.115H21.7816L21.714 28.5879H17.1927ZM26.3086 7.81375L23.6135 11.2439L23.4358 11.1517L26.1494 7.6116C26.2023 7.67763 26.2553 7.74534 26.3086 7.81375ZM15.263 22.9905C15.3509 23.225 15.4296 23.4695 15.4857 23.6539C15.2922 23.5413 15.0907 23.483 14.8859 23.4836C14.6812 23.4843 14.4798 23.5438 14.2865 23.6582C14.3425 23.4726 14.4213 23.2268 14.5095 22.9913C14.5845 22.7911 14.6647 22.6024 14.742 22.4653C14.7809 22.3963 14.8165 22.3448 14.8475 22.3119C14.8685 22.2895 14.8813 22.2821 14.8862 22.2797C14.8912 22.2821 14.904 22.2895 14.925 22.3119C14.9559 22.3448 14.9916 22.3962 15.0304 22.4652C15.1077 22.6023 15.188 22.7907 15.263 22.9905ZM8.058 28.5879C8.04717 28.5131 8.0366 28.4362 8.02602 28.3593C8.01471 28.2772 8.0034 28.1949 7.99176 28.115H12.6443C12.6248 28.2703 12.6047 28.4262 12.5817 28.5879H8.058ZM3.46394 7.81367C3.5172 7.74529 3.5702 7.6776 3.62306 7.6116L6.3373 11.1524L6.1654 11.2434L3.46394 7.81367ZM11.5235 2.55155C11.4658 2.44979 11.4084 2.34463 11.3534 2.23701C12.5829 2.82605 13.7329 3.12299 14.8862 3.12299C16.0424 3.12299 17.1951 2.82461 18.428 2.23272C18.4153 2.25893 18.4023 2.28552 18.389 2.31177C18.3548 2.37923 18.3204 2.44215 18.2896 2.48974C18.2742 2.51363 18.261 2.53159 18.2504 2.54371C18.2454 2.54949 18.2421 2.55259 18.2405 2.55396C16.7714 3.20098 15.8141 3.50992 14.8644 3.50489C13.9201 3.4999 12.9717 3.18442 11.5235 2.55155ZM17.3814 3.75529C16.6269 4.56143 15.7663 4.97041 14.9085 4.97781C14.0475 4.98523 13.1713 4.58817 12.3901 3.74864C13.3344 4.1036 14.1067 4.28532 14.8834 4.28687C15.6603 4.28842 16.4341 4.10972 17.3814 3.75529ZM15.5914 5.67809C17.1577 5.31097 18.583 3.90129 19.4243 1.93085C19.4365 1.93825 19.4487 1.94563 19.4609 1.95299C19.6171 2.04727 19.7688 2.13887 19.9171 2.23306C19.0095 4.99191 16.905 6.33 14.8303 6.31587C12.7553 6.30173 10.6881 4.93508 9.85412 2.23394C9.97913 2.15498 10.1079 2.07815 10.2395 1.99968C10.2773 1.97712 10.3153 1.95441 10.3536 1.93149C10.5009 2.29091 10.7247 2.77999 10.9294 3.0754C12.2696 5.32681 13.9849 6.05462 15.5914 5.67809Z" fill="#0970CD" stroke="#0970CD" stroke-width="0.2"/>
<path d="M12.5844 9.93861L10.0289 7.38318C9.92647 7.28072 9.85814 7.15252 9.83897 7.02679C9.81979 6.90105 9.85135 6.78809 9.9267 6.71274C10.0021 6.63739 10.115 6.60583 10.2408 6.625C10.3665 6.64417 10.4947 6.71251 10.5971 6.81497L13.1526 9.3704C13.255 9.47286 13.3234 9.60106 13.3425 9.7268C13.3617 9.85253 13.3302 9.9655 13.2548 10.0408C13.1795 10.1162 13.0665 10.1478 12.9408 10.1286C12.815 10.1094 12.6868 10.0411 12.5844 9.93861Z" fill="#0970CD" fill-opacity="0.75"/>
<path d="M20.6845 6.17717C20.6091 6.10182 20.4969 6.06954 20.3725 6.08742C20.248 6.1053 20.1216 6.17188 20.0209 6.27251L19.6415 6.65195C19.5409 6.75259 19.4743 6.87904 19.4564 7.00348C19.4385 7.12791 19.4708 7.24015 19.5462 7.3155C19.6215 7.39085 19.7338 7.42314 19.8582 7.40526C19.9826 7.38738 20.1091 7.3208 20.2097 7.22017L20.5892 6.84072C20.6898 6.74009 20.7564 6.61364 20.7743 6.4892C20.7921 6.36476 20.7598 6.25252 20.6845 6.17717ZM19.1667 7.69495C19.0914 7.6196 18.9791 7.58731 18.8547 7.60519C18.7302 7.62307 18.6038 7.68965 18.5032 7.79029L16.9854 9.30806C16.8848 9.4087 16.8182 9.53514 16.8003 9.65958C16.7824 9.78402 16.8147 9.89626 16.8901 9.97161C16.9654 10.047 17.0776 10.0792 17.2021 10.0614C17.3265 10.0435 17.453 9.97691 17.5536 9.87627L19.0714 8.3585C19.172 8.25786 19.2386 8.13142 19.2565 8.00698C19.2744 7.88254 19.2421 7.7703 19.1667 7.69495Z" fill="#0970CD"/>
</svg>
