<svg width="30" height="30" viewBox="0 0 30 30" fill="none" xmlns="http://www.w3.org/2000/svg">
<path d="M27.8187 17.2176L27.819 17.2176C28.0999 17.1746 28.355 17.3755 28.3956 17.6582C28.8003 20.4789 29.0678 22.8891 29.1903 24.8212C29.3028 26.5948 28.0583 28.1552 26.3496 28.3675C23.8472 28.6782 20.1791 29.0286 16.3599 29.0286C15.9641 29.0286 15.5667 29.0248 15.1688 29.0168C10.9313 29.1021 6.74957 28.7104 3.98805 28.3675C2.27929 28.1552 1.03484 26.5948 1.14729 24.8212C1.5586 18.3339 3.49513 8.39862 3.67632 7.47903C3.69456 7.21088 3.91012 6.99288 4.1815 6.99288H8.89508C9.01487 5.38292 9.69372 3.89828 10.8381 2.7694L10.9083 2.84059L10.8381 2.7694C11.0417 2.56856 11.3646 2.57758 11.5575 2.78876L11.5575 2.78878C11.7483 2.99782 11.7402 3.32676 11.5388 3.52545L11.5388 3.52547C10.5967 4.45477 10.0301 5.67068 9.91276 6.99283H10.7469C10.9948 4.68955 12.8798 2.88729 15.1688 2.88729C17.4577 2.88729 19.3411 4.68982 19.589 6.99288H20.4246C20.1733 4.20298 17.9092 2.0176 15.1689 2.0176C14.3943 2.0176 13.6481 2.18871 12.9502 2.5264C12.9502 2.5264 12.9502 2.5264 12.9502 2.5264L12.9066 2.43639C12.7028 2.53502 12.4607 2.44317 12.3659 2.23137L27.8187 17.2176ZM27.8187 17.2176C27.5389 17.261 27.3521 17.5296 27.3926 17.8114L27.4916 17.7972M27.8187 17.2176L27.4916 17.7972M27.4916 17.7972L27.3926 17.8114C27.7936 20.6062 28.0579 22.9875 28.1786 24.8895C28.2563 26.1148 27.3964 27.1838 26.2284 27.3289C23.4958 27.6682 19.3623 28.0548 15.182 27.9708M27.4916 17.7972L15.182 27.9708M15.182 27.9708L15.1819 27.9708C15.1819 27.9708 15.182 27.9708 15.182 27.9708ZM25.6289 8.0389H4.70886C4.73 8.33564 4.76464 8.63568 4.79887 8.93202L4.79889 8.9322L4.8011 8.95164C5.2397 12.7484 6.37851 15.3699 8.37369 17.2213C9.0314 17.8316 9.77072 18.3653 10.5711 18.8074C11.4127 19.2722 12.3153 19.5982 13.2427 19.7869V19.1303C13.2427 18.459 13.7688 17.9065 14.4239 17.9065H15.9138C16.5689 17.9065 17.095 18.459 17.095 19.1303V19.7871C18.0223 19.5984 18.9249 19.2722 19.7666 18.8074C23.0434 16.9975 24.9892 13.6898 25.5366 8.95183L25.6289 8.0389ZM25.6289 8.0389C25.6078 8.33563 25.5731 8.63562 25.5389 8.93201L25.5388 8.9322L25.5366 8.95164L25.6289 8.0389ZM4.10917 27.3289C6.84177 27.6683 10.9755 28.0556 15.1556 27.9708L4.10917 27.3289ZM4.10917 27.3289C2.94126 27.1838 2.08135 26.1149 2.15899 24.8895M4.10917 27.3289L2.15899 24.8895M2.15899 24.8895C2.43612 20.5186 3.41723 14.544 4.0718 10.889M2.15899 24.8895L4.0718 10.889M4.0718 10.889C4.67296 13.9888 5.84229 16.2795 7.69541 17.999C8.41394 18.6658 9.22038 19.2479 10.0924 19.7295C11.0827 20.2765 12.1488 20.6496 13.2426 20.8504V21.4027C13.2426 22.074 13.7687 22.6266 14.4238 22.6266H15.9137C16.5688 22.6266 17.0949 22.074 17.0949 21.4027V20.8496M4.0718 10.889L17.0949 20.8496M17.0949 20.8496C18.1886 20.6489 19.2548 20.2765 20.2451 19.7295C22.136 18.6851 23.6376 17.1685 24.7077 15.2237C25.4079 13.951 25.9273 12.487 26.2607 10.8563C26.5129 12.2613 26.8139 14.0119 27.1035 15.8778L17.0949 20.8496ZM16.0811 21.4027C16.0811 21.5044 16.0023 21.5806 15.9138 21.5806H14.4239C14.3354 21.5806 14.2566 21.5044 14.2566 21.4027V19.1303C14.2566 19.0287 14.3354 18.9525 14.4239 18.9525H15.9138C16.0023 18.9525 16.0811 19.0286 16.0811 19.1303V21.4027ZM15.1688 3.93336C16.8918 3.93336 18.3258 5.26221 18.5675 6.99283H11.7691C12.0107 5.26214 13.4457 3.93336 15.1688 3.93336Z" fill="#0970CD" stroke="#0970CD" stroke-width="0.2"/>
</svg>
