<svg width="30" height="30" viewBox="0 0 30 30" fill="none" xmlns="http://www.w3.org/2000/svg">
<g clip-path="url(#clip0_1_4044)">
<path d="M29.5857 9.47543C29.4101 9.29689 29.1529 9.04359 28.8213 8.72262C28.7166 8.62131 28.6042 8.51291 28.4841 8.39754C28.455 8.33566 28.4116 8.2793 28.3538 8.23459C28.3225 8.21027 28.2887 8.19141 28.2538 8.17664C27.7738 7.71709 27.1901 7.16309 26.5095 6.52102C24.8746 4.97877 23.2203 3.4374 23.0244 3.25506C22.9603 3.19453 22.8779 3.15258 22.7851 3.13869L19.6623 2.66807V2.20061C19.6623 1.53158 19.118 0.987305 18.449 0.987305H11.5511C10.882 0.987305 10.3378 1.53158 10.3378 2.20061V2.66238L7.21412 3.13881C7.12559 3.15229 7.04326 3.19213 6.97775 3.25318C6.96064 3.26912 5.24818 4.86357 3.55775 6.45773C2.8043 7.1683 2.16715 7.77322 1.65516 8.26394C1.65486 8.26424 1.65463 8.26447 1.65434 8.26476C1.4915 8.42086 1.34104 8.56564 1.20393 8.6983C0.864668 9.02642 0.601523 9.28529 0.421758 9.46787C0.114844 9.77965 0 9.89631 0 10.1085C0 10.297 0 10.3605 1.71217 12.6386C2.51543 13.7075 3.3293 14.7699 3.33738 14.7806C3.47965 14.9662 3.74121 15.0104 3.93645 14.8815L6.83578 12.9682V14.3745V28.5673C6.83578 28.8133 7.03529 29.0128 7.28133 29.0128H22.7186C22.9646 29.0128 23.1642 28.8133 23.1642 28.5673V12.9681L26.0636 14.8813C26.2588 15.0102 26.5204 14.9661 26.6626 14.7804C26.6708 14.7698 27.4845 13.7075 28.2878 12.6385C30 10.3604 30 10.2969 30 10.1084C30 9.89672 29.8872 9.78199 29.5857 9.47543ZM11.2289 2.20066C11.2289 2.02301 11.3735 1.87846 11.5511 1.87846H18.4489C18.6266 1.87846 18.7712 2.02301 18.7712 2.20066V3.82271C18.7712 4.00037 18.6266 4.14492 18.4489 4.14492C18.2777 4.14492 18.1217 4.24301 18.0474 4.39734L16.7726 7.04748L15.5774 5.85223L18.0992 3.33041C18.2732 3.15639 18.2732 2.87432 18.0992 2.70035C17.9252 2.52633 17.6432 2.52633 17.4691 2.70035L17.1725 2.99695C17.15 2.99344 17.127 2.99109 17.1035 2.99109H12.8033C12.7761 2.99109 12.7495 2.99396 12.7236 2.99859L12.4254 2.70035C12.2514 2.52633 11.9693 2.52633 11.7953 2.70035C11.6213 2.87437 11.6213 3.15645 11.7953 3.33041L14.3171 5.85223L13.1348 7.03453L11.9576 4.40818C11.8858 4.24799 11.7265 4.14492 11.551 4.14492C11.3733 4.14492 11.2288 4.00037 11.2288 3.82271V2.20066H11.2289ZM14.9473 5.22217L13.6072 3.88213H16.2873L14.9473 5.22217ZM3.79248 13.9088C2.62295 12.378 1.40766 10.7571 0.993867 10.1555C1.18295 9.96117 1.50404 9.64635 1.9132 9.25189L4.93359 13.1558L3.79248 13.9088ZM23.156 11.8951V10.1511C23.156 9.90504 22.9564 9.70553 22.7104 9.70553C22.4644 9.70553 22.2649 9.90504 22.2649 10.1511V14.3744C22.2649 14.4032 22.2679 14.4313 22.2731 14.4587V28.1216H7.72693V14.3745V12.1403V10.1512C7.72693 9.90516 7.52742 9.70564 7.28139 9.70564C7.03535 9.70564 6.83584 9.90516 6.83584 10.1512V11.9006L5.67938 12.6637L2.55996 8.63185C3.98514 7.27172 5.99502 5.38629 7.48436 3.99908L10.3378 3.56385V3.82271C10.3378 4.38603 10.7237 4.86094 11.245 4.99693L12.5862 7.98902C12.6461 8.12273 12.7679 8.21848 12.9121 8.24496C12.9389 8.24988 12.9659 8.25234 12.9927 8.25234C13.1098 8.25234 13.2234 8.20617 13.3077 8.12185L14.9472 6.48234L16.5867 8.12185C16.6889 8.22398 16.8343 8.27027 16.9765 8.24602C17.1189 8.22176 17.2407 8.13006 17.3033 7.99992L18.7468 4.99904C19.2722 4.86592 19.6622 4.38902 19.6622 3.82271V3.56936L22.5159 3.99937C24.0138 5.39461 26.0384 7.29375 27.4648 8.65553L24.3492 12.6825L23.156 11.8951ZM26.2076 13.9088L25.0951 13.1747L28.1116 9.2758C28.509 9.65912 28.8209 9.9651 29.0062 10.1555C28.5924 10.757 27.3771 12.378 26.2076 13.9088Z" fill="#0970CD"/>
<path d="M20.6369 10.1309H17.7737C17.5276 10.1309 17.3281 10.3304 17.3281 10.5764V13.9806C17.3281 14.2267 17.5276 14.4262 17.7737 14.4262H20.6369C20.883 14.4262 21.0825 14.2267 21.0825 13.9806V10.5764C21.0825 10.3304 20.883 10.1309 20.6369 10.1309ZM20.1914 13.5352H18.2193V11.022H20.1914V13.5352Z" fill="#0970CD"/>
</g>
<defs>
<clipPath id="clip0_1_4044">
<rect width="30" height="30" fill="white"/>
</clipPath>
</defs>
</svg>
