<svg width="30" height="30" viewBox="0 0 30 30" fill="none" xmlns="http://www.w3.org/2000/svg">
<path d="M25.1867 4.17625L25.6716 5.55414C25.6924 5.61312 25.7335 5.6599 25.7853 5.68353L26.9967 6.23506C27.1679 6.31299 27.1679 6.58852 26.9967 6.66644L25.7853 7.21798C25.7335 7.2416 25.6924 7.28832 25.6716 7.34736L25.1867 8.72525C25.1183 8.91989 24.876 8.91989 24.8075 8.72525L24.3226 7.34736C24.3019 7.28838 24.2607 7.2416 24.2089 7.21798L22.9975 6.66644C22.8264 6.58852 22.8264 6.31293 22.9975 6.23506L24.2089 5.68353C24.2607 5.6599 24.3019 5.61318 24.3226 5.55414L24.8075 4.17625C24.876 3.98161 25.1183 3.98161 25.1867 4.17625Z" fill="#0970CD"/>
<path d="M2.50421 0.10832L2.86392 1.13038C2.87933 1.17414 2.9098 1.20884 2.9483 1.22637L3.84689 1.63549C3.97381 1.69328 3.97381 1.89769 3.84689 1.95549L2.9483 2.36461C2.90986 2.38213 2.87933 2.41683 2.86392 2.4606L2.50421 3.48271C2.45341 3.62708 2.2737 3.62708 2.2229 3.48271L1.86325 2.4606C1.84784 2.41683 1.81738 2.38213 1.77888 2.36461L0.880342 1.95549C0.753428 1.89769 0.753428 1.69328 0.880342 1.63549L1.77888 1.22637C1.81738 1.20884 1.84784 1.17414 1.86325 1.13038L2.2229 0.10832C2.2737 -0.0361066 2.45341 -0.0361066 2.50421 0.10832Z" fill="#0970CD"/>
<path d="M19.8361 4.5961C20.4209 4.5961 20.8949 4.11704 20.8949 3.52608C20.8949 2.93512 20.4209 2.45605 19.8361 2.45605C19.2514 2.45605 18.7773 2.93512 18.7773 3.52608C18.7773 4.11704 19.2514 4.5961 19.8361 4.5961Z" fill="#0970CD"/>
<path d="M26.5336 2.22798C26.7667 2.13035 26.8773 1.86026 26.7807 1.62471C26.6841 1.38916 26.4168 1.27736 26.1838 1.37498C25.9507 1.47261 25.84 1.74271 25.9367 1.97826C26.0333 2.21381 26.3006 2.32561 26.5336 2.22798Z" fill="#0970CD"/>
<path d="M19.9908 9.76912C19.4352 9.76912 18.8902 9.8159 18.3589 9.90431C17.1638 8.07858 15.4575 6.72799 13.4938 5.99461L13.8403 5.42128C14.1679 4.87917 14.1086 4.19499 13.6927 3.71884L12.5144 2.3695C12.2442 2.0601 11.855 1.88257 11.4467 1.88257H8.53033C8.12205 1.88257 7.73293 2.06004 7.46263 2.36944L6.28437 3.71878C5.86847 4.19499 5.80911 4.87917 6.13671 5.42128L6.49372 6.01196C2.70381 7.45356 0 11.1548 0 15.4828C0 21.0604 4.49011 25.5982 10.0092 25.5982C10.5667 25.5982 11.1134 25.5511 11.6464 25.4621C13.4402 28.1943 16.5101 30 19.9908 30C25.5099 30 30 25.4622 30 19.8845C30.0001 14.3069 25.51 9.76912 19.9908 9.76912ZM7.14423 4.79934C7.08822 4.70667 7.09835 4.58972 7.16949 4.50824L8.34775 3.15896C8.39398 3.10602 8.46049 3.0757 8.53033 3.0757H11.4467C11.5164 3.0757 11.583 3.10602 11.6292 3.1589L12.8076 4.50836C12.8786 4.58972 12.8888 4.70667 12.8328 4.79934L12.3252 5.63914C11.5766 5.46096 10.8007 5.36734 10.0093 5.36734C9.19976 5.36734 8.41267 5.46564 7.65834 5.64986L7.14423 4.79934ZM1.18061 15.4828C1.18061 10.563 5.14114 6.56041 10.0093 6.56041C12.8444 6.56041 15.4566 7.90768 17.1194 10.194C16.5882 10.3551 16.0754 10.5595 15.5851 10.8034C14.2026 9.11805 12.1892 8.15781 10.0093 8.15781C6.01267 8.15781 2.76124 11.4438 2.76124 15.4828C2.76124 19.5217 6.01267 22.8077 10.0093 22.8077C14.0059 22.8077 17.2574 19.5217 17.2574 15.4828C17.2574 15.1367 17.2328 14.7901 17.1852 14.449C17.6564 14.1996 18.1638 14.011 18.6972 13.8935C18.7901 14.4157 18.838 14.9483 18.838 15.4828C18.838 20.4026 14.8775 24.4051 10.0093 24.4051C5.14114 24.4051 1.18061 20.4026 1.18061 15.4828ZM14.5404 11.4045C11.7982 13.2108 9.98152 16.3371 9.98152 19.8845C9.98152 20.4738 10.0323 21.0512 10.1287 21.613C10.0889 21.6138 10.0492 21.6146 10.0093 21.6146C6.66365 21.6146 3.94184 18.8638 3.94184 15.4828C3.94184 12.1016 6.6637 9.35094 10.0093 9.35094C11.7634 9.35094 13.3888 10.0937 14.5404 11.4045ZM13.9233 19.8845C13.9233 18.0129 14.7577 16.3346 16.07 15.209C16.0739 15.3002 16.0768 15.3915 16.0768 15.4828C16.0768 17.3546 15.2422 19.033 13.9297 20.1586C13.9257 20.0678 13.9233 19.9764 13.9233 19.8845ZM19.8727 13.7543C19.912 13.7535 19.9513 13.7528 19.9908 13.7528C23.3364 13.7528 26.0582 16.5035 26.0582 19.8846C26.0582 23.2657 23.3364 26.0164 19.9908 26.0164C18.1924 26.0164 16.5753 25.2207 15.4634 23.9603C18.2035 22.1537 20.0185 19.0286 20.0185 15.4828C20.0185 14.9022 19.9696 14.323 19.8727 13.7543ZM19.9908 28.8069C17.0797 28.8069 14.4944 27.3748 12.8854 25.172C13.4165 25.0107 13.9292 24.8059 14.4194 24.5618C15.7497 26.178 17.7528 27.2096 19.9908 27.2096C23.9874 27.2096 27.2389 23.9236 27.2389 19.8847C27.2389 15.8457 23.9874 12.5597 19.9908 12.5597C15.9942 12.5597 12.7428 15.8457 12.7428 19.8847C12.7428 20.2355 12.7682 20.5803 12.8158 20.918C12.3445 21.1675 11.837 21.3562 11.3035 21.4738C11.2113 20.9579 11.1621 20.427 11.1621 19.8847C11.1621 14.9649 15.1227 10.9624 19.9908 10.9624C24.859 10.9624 28.8195 14.9649 28.8195 19.8847C28.8195 24.8043 24.859 28.8069 19.9908 28.8069Z" fill="#0970CD"/>
</svg>
