<svg width="30" height="31" viewBox="0 0 30 31" fill="none" xmlns="http://www.w3.org/2000/svg">
<path d="M29.2044 6.41488L24.4926 1.77045C24.4079 1.69208 24.2986 1.64503 24.1831 1.6372C24.0423 1.62784 11.653 1.6312 11.5119 1.6312C11.3837 1.6312 11.2608 1.68179 11.1701 1.77184C11.0795 1.86189 11.0286 1.98403 11.0286 2.11138V15.3867H10.4056V5.80295C10.4056 5.6756 10.3547 5.55346 10.264 5.46341C10.1734 5.37336 10.0505 5.32277 9.92229 5.32277H7.35566C7.22748 5.32277 7.10455 5.37336 7.01391 5.46341C6.92327 5.55346 6.87235 5.6756 6.87235 5.80295V15.3867H6.24933V8.08636C6.24935 8.005 6.22856 7.92496 6.18891 7.85376L4.80981 5.37996C4.7643 5.30959 4.70173 5.25169 4.62784 5.2116C4.55395 5.17151 4.47111 5.15049 4.38692 5.15049C4.30272 5.15049 4.21988 5.17151 4.14599 5.2116C4.0721 5.25169 4.00953 5.30959 3.96402 5.37996L2.58492 7.85376C2.54527 7.92496 2.52448 8.005 2.5245 8.08636V15.3867H1.97354C1.84536 15.3867 1.72243 15.4373 1.63179 15.5274C1.54115 15.6174 1.49023 15.7395 1.49023 15.8669V26.8272C1.49044 27.5302 1.77133 28.2045 2.27128 28.7021C2.77123 29.1996 3.44942 29.4798 4.15706 29.4812C11.1038 29.4812 10.796 29.5187 11.2793 29.414C11.3496 29.4562 11.4297 29.4794 11.5118 29.4812H28.8641C28.9276 29.4813 28.9904 29.4689 29.0491 29.4448C29.1077 29.4206 29.161 29.3853 29.2059 29.3407C29.2508 29.2961 29.2864 29.2431 29.3107 29.1849C29.3349 29.1266 29.3474 29.0641 29.3474 29.0011V6.7558C29.3423 6.62883 29.2915 6.50788 29.2044 6.41488ZM24.6355 3.26422L27.6906 6.27558H24.6355V3.26422ZM7.83896 6.28312H9.43899V15.3867H7.83896V6.28312ZM3.49097 8.21039L4.38677 6.60363L5.28257 8.21039V15.3867H3.49097V8.21039ZM4.15706 28.5209C3.7057 28.5198 3.27322 28.3408 2.9545 28.0233C2.63578 27.7058 2.45686 27.2756 2.45699 26.8272V16.3468H12.4072V26.8272C12.4088 27.1663 12.3075 27.4981 12.1165 27.7792C11.9254 28.0603 11.6536 28.2777 11.3363 28.403C10.853 28.5887 11.006 28.5209 4.15706 28.5209ZM12.7656 28.5209C13.5727 27.5502 13.3739 27.8265 13.3739 15.8669C13.3739 15.7395 13.323 15.6174 13.2324 15.5274C13.1418 15.4373 13.0188 15.3867 12.8906 15.3867H11.9952V2.59155H23.6689V6.7558C23.6689 6.88315 23.7198 7.00528 23.8105 7.09534C23.9011 7.18538 24.024 7.23597 24.1522 7.23597H28.3806V28.5209H12.7656Z" fill="#0970CD"/>
<path d="M13.9688 8.62402H19.2551V9.58437H13.9688V8.62402Z" fill="#0970CD"/>
<path d="M13.9688 6.37305H22.3966V7.33339H13.9688V6.37305Z" fill="#0970CD"/>
<path d="M13.9688 3.95337H22.3966V4.91372H13.9688V3.95337Z" fill="#0970CD"/>
<path d="M13.9688 10.8745H19.2551V11.8349H13.9688V10.8745Z" fill="#0970CD"/>
<path d="M13.9688 13.1255H19.2551V14.0858H13.9688V13.1255Z" fill="#0970CD"/>
<path d="M13.9688 15.3762H26.3133V16.3366H13.9688V15.3762Z" fill="#0970CD"/>
<path d="M13.9688 17.6272H26.3133V18.5875H13.9688V17.6272Z" fill="#0970CD"/>
<path d="M13.9688 19.8777H26.3133V20.838H13.9688V19.8777Z" fill="#0970CD"/>
<path d="M13.9688 22.1289H26.3133V23.0893H13.9688V22.1289Z" fill="#0970CD"/>
<path d="M13.9688 24.3794H26.3133V25.3397H13.9688V24.3794Z" fill="#0970CD"/>
<path d="M13.9688 26.6304H26.3133V27.5907H13.9688V26.6304Z" fill="#0970CD"/>
<path d="M26.3126 8.62378H20.6435C20.5153 8.62378 20.3923 8.67437 20.3017 8.76442C20.2111 8.85447 20.1602 8.9766 20.1602 9.10395V13.6056C20.1602 13.7329 20.2111 13.8551 20.3017 13.9451C20.3923 14.0352 20.5153 14.0857 20.6435 14.0857H26.3126C26.4408 14.0857 26.5637 14.0352 26.6544 13.9451C26.745 13.8551 26.7959 13.7329 26.7959 13.6056V9.10395C26.7959 8.9766 26.745 8.85447 26.6544 8.76442C26.5637 8.67437 26.4408 8.62378 26.3126 8.62378ZM25.8293 13.1254H21.1268V9.58413H25.8293V13.1254Z" fill="#0970CD"/>
</svg>
