<svg width="30" height="30" viewBox="0 0 30 30" fill="none" xmlns="http://www.w3.org/2000/svg">
<path d="M29.2044 6.19002L24.4926 1.5456C24.4079 1.46722 24.2986 1.42018 24.1831 1.41235C24.0423 1.40299 11.653 1.40635 11.5119 1.40635C11.3837 1.40635 11.2608 1.45694 11.1701 1.54699C11.0795 1.63704 11.0286 1.75917 11.0286 1.88652V15.1619H10.4056V5.57809C10.4056 5.45074 10.3547 5.32861 10.264 5.23856C10.1734 5.14851 10.0505 5.09792 9.92229 5.09792H7.35566C7.22748 5.09792 7.10455 5.14851 7.01391 5.23856C6.92327 5.32861 6.87235 5.45074 6.87235 5.57809V15.1619H6.24933V7.86151C6.24935 7.78014 6.22856 7.70011 6.18891 7.62891L4.80981 5.15511C4.7643 5.08473 4.70173 5.02684 4.62784 4.98675C4.55395 4.94665 4.47111 4.92564 4.38692 4.92564C4.30272 4.92564 4.21988 4.94665 4.14599 4.98675C4.0721 5.02684 4.00953 5.08473 3.96402 5.15511L2.58492 7.62891C2.54527 7.70011 2.52448 7.78014 2.5245 7.86151V15.1619H1.97354C1.84536 15.1619 1.72243 15.2125 1.63179 15.3025C1.54115 15.3926 1.49023 15.5147 1.49023 15.642V26.6023C1.49044 27.3054 1.77133 27.9797 2.27128 28.4772C2.77123 28.9748 3.44942 29.255 4.15706 29.2564C11.1038 29.2564 10.796 29.2938 11.2793 29.1892C11.3496 29.2313 11.4297 29.2545 11.5118 29.2564H28.8641C28.9276 29.2564 28.9904 29.244 29.0491 29.2199C29.1077 29.1958 29.161 29.1604 29.2059 29.1158C29.2508 29.0712 29.2864 29.0183 29.3107 28.96C29.3349 28.9017 29.3474 28.8393 29.3474 28.7762V6.53095C29.3423 6.40397 29.2915 6.28302 29.2044 6.19002ZM24.6355 3.03937L27.6906 6.05073H24.6355V3.03937ZM7.83896 6.05827H9.43899V15.1619H7.83896V6.05827ZM3.49097 7.98554L4.38677 6.37878L5.28257 7.98554V15.1619H3.49097V7.98554ZM4.15706 28.296C3.7057 28.2949 3.27322 28.116 2.9545 27.7985C2.63578 27.4809 2.45686 27.0508 2.45699 26.6023V16.122H12.4072V26.6023C12.4088 26.9415 12.3075 27.2733 12.1165 27.5544C11.9254 27.8355 11.6536 28.0529 11.3363 28.1782C10.853 28.3638 11.006 28.296 4.15706 28.296ZM12.7656 28.296C13.5727 27.3253 13.3739 27.6016 13.3739 15.642C13.3739 15.5147 13.323 15.3926 13.2324 15.3025C13.1418 15.2125 13.0188 15.1619 12.8906 15.1619H11.9952V2.36669H23.6689V6.53095C23.6689 6.6583 23.7198 6.78043 23.8105 6.87048C23.9011 6.96053 24.024 7.01112 24.1522 7.01112H28.3806V28.296H12.7656Z" fill="#0970CD"/>
<path d="M13.9688 8.39917H19.2551V9.35952H13.9688V8.39917Z" fill="#0970CD"/>
<path d="M13.9688 6.14819H22.3966V7.10854H13.9688V6.14819Z" fill="#0970CD"/>
<path d="M13.9688 3.72852H22.3966V4.68886H13.9688V3.72852Z" fill="#0970CD"/>
<path d="M13.9688 10.6497H19.2551V11.61H13.9688V10.6497Z" fill="#0970CD"/>
<path d="M13.9688 12.9006H19.2551V13.861H13.9688V12.9006Z" fill="#0970CD"/>
<path d="M13.9688 15.1514H26.3133V16.1117H13.9688V15.1514Z" fill="#0970CD"/>
<path d="M13.9688 17.4023H26.3133V18.3627H13.9688V17.4023Z" fill="#0970CD"/>
<path d="M13.9688 19.6528H26.3133V20.6132H13.9688V19.6528Z" fill="#0970CD"/>
<path d="M13.9688 21.9041H26.3133V22.8644H13.9688V21.9041Z" fill="#0970CD"/>
<path d="M13.9688 24.1545H26.3133V25.1149H13.9688V24.1545Z" fill="#0970CD"/>
<path d="M13.9688 26.4055H26.3133V27.3659H13.9688V26.4055Z" fill="#0970CD"/>
<path d="M26.3126 8.39893H20.6435C20.5153 8.39893 20.3923 8.44951 20.3017 8.53956C20.2111 8.62961 20.1602 8.75175 20.1602 8.8791V13.3807C20.1602 13.5081 20.2111 13.6302 20.3017 13.7203C20.3923 13.8103 20.5153 13.8609 20.6435 13.8609H26.3126C26.4408 13.8609 26.5637 13.8103 26.6544 13.7203C26.745 13.6302 26.7959 13.5081 26.7959 13.3807V8.8791C26.7959 8.75175 26.745 8.62961 26.6544 8.53956C26.5637 8.44951 26.4408 8.39893 26.3126 8.39893ZM25.8293 12.9005H21.1268V9.35927H25.8293V12.9005Z" fill="#0970CD"/>
</svg>
