<svg width="30" height="30" viewBox="0 0 30 30" fill="none" xmlns="http://www.w3.org/2000/svg">
<path d="M9.89916 13.9379C11.8812 13.9379 13.4936 12.584 13.4936 10.92C13.4936 10.7968 13.4463 10.6787 13.362 10.5917C13.2778 10.5046 13.1635 10.4557 13.0443 10.4557C12.9252 10.4557 12.8109 10.5046 12.7266 10.5917C12.6424 10.6787 12.595 10.7968 12.595 10.92C12.595 11.9534 11.6218 12.8134 10.3485 12.9797V11.5061C10.396 11.4816 10.4416 11.4533 10.4848 11.4215L11.2474 10.8591C11.3873 10.7542 11.501 10.6163 11.5791 10.4569C11.6572 10.2975 11.6974 10.1212 11.6963 9.9425C11.6963 9.32952 11.2322 8.83081 10.6617 8.83081H9.13657C8.56606 8.83081 8.10193 9.32952 8.10193 9.9425C8.1009 10.1212 8.14109 10.2975 8.21917 10.4569C8.29725 10.6163 8.41097 10.7542 8.5509 10.8591L9.31343 11.4215C9.35668 11.4533 9.4023 11.4817 9.44985 11.5061V12.9797C8.17657 12.8134 7.20331 11.9534 7.20331 10.92C7.20331 10.7968 7.15597 10.6787 7.07171 10.5917C6.98744 10.5046 6.87316 10.4557 6.754 10.4557C6.63483 10.4557 6.52055 10.5046 6.43629 10.5917C6.35202 10.6787 6.30469 10.7968 6.30469 10.92C6.30469 12.584 7.91715 13.9379 9.89916 13.9379ZM9.073 10.1031C9.04965 10.084 9.03096 10.0595 9.0184 10.0316C9.00584 10.0037 8.99977 9.9731 9.00066 9.94233C9.00066 9.84309 9.063 9.75922 9.13669 9.75922H10.6619C10.7356 9.75922 10.7979 9.84309 10.7979 9.94233C10.7988 9.97311 10.7927 10.0037 10.7801 10.0316C10.7676 10.0595 10.7488 10.084 10.7255 10.1031L9.96297 10.6654C9.9447 10.6799 9.9223 10.6878 9.89925 10.6878C9.8762 10.6878 9.85379 10.6799 9.83553 10.6654L9.073 10.1031Z" fill="#0970CD"/>
<path d="M12.5958 8.83069C12.8439 8.83069 13.0451 8.62282 13.0451 8.36639C13.0451 8.10997 12.8439 7.9021 12.5958 7.9021C12.3476 7.9021 12.1465 8.10997 12.1465 8.36639C12.1465 8.62282 12.3476 8.83069 12.5958 8.83069Z" fill="#0970CD"/>
<path d="M7.20322 8.83069C7.45136 8.83069 7.65252 8.62282 7.65252 8.36639C7.65252 8.10997 7.45136 7.9021 7.20322 7.9021C6.95507 7.9021 6.75391 8.10997 6.75391 8.36639C6.75391 8.62282 6.95507 8.83069 7.20322 8.83069Z" fill="#0970CD"/>
<path d="M21.5863 18.1164C21.9418 18.1164 22.2892 18.0075 22.5848 17.8035C22.8803 17.5994 23.1107 17.3093 23.2467 16.97C23.3828 16.6306 23.4184 16.2572 23.349 15.897C23.2797 15.5367 23.1085 15.2058 22.8571 14.9461C22.6058 14.6863 22.2856 14.5094 21.9369 14.4378C21.5883 14.3661 21.2269 14.4029 20.8985 14.5435C20.5701 14.684 20.2894 14.9221 20.092 15.2275C19.8945 15.5329 19.7891 15.892 19.7891 16.2593C19.7896 16.7517 19.9791 17.2237 20.3161 17.5719C20.653 17.92 21.1098 18.1159 21.5863 18.1164ZM21.5863 15.3307C21.764 15.3307 21.9378 15.3851 22.0855 15.4872C22.2333 15.5892 22.3485 15.7342 22.4165 15.9039C22.4845 16.0736 22.5023 16.2603 22.4677 16.4404C22.433 16.6206 22.3474 16.786 22.2217 16.9159C22.096 17.0457 21.9359 17.1342 21.7616 17.17C21.5873 17.2058 21.4066 17.1875 21.2424 17.1172C21.0782 17.0469 20.9379 16.9279 20.8391 16.7752C20.7404 16.6225 20.6877 16.4429 20.6877 16.2593C20.688 16.0131 20.7827 15.7771 20.9512 15.603C21.1197 15.4289 21.3481 15.331 21.5863 15.3307Z" fill="#0970CD"/>
<path d="M27.8766 19.045H25.1807V13.0092C25.1808 12.9139 25.1523 12.821 25.0993 12.7431L21.9541 8.10013C21.9127 8.03897 21.8576 7.98903 21.7935 7.95456C21.7294 7.92008 21.6583 7.90208 21.586 7.90208C21.5138 7.90208 21.4426 7.92008 21.3785 7.95456C21.3144 7.98903 21.2594 8.03897 21.2179 8.10013L18.0728 12.7431C18.0199 12.821 17.9916 12.914 17.9918 13.0092V15.9146C17.3765 15.0599 16.5556 14.3507 15.542 13.8036C16.5427 12.5881 17.0881 11.0087 17.0881 9.29481C17.0905 8.53751 16.9793 7.7844 16.7586 7.06226C17.1962 6.82355 17.5732 6.48151 17.8588 6.06393C18.1444 5.64635 18.3306 5.16502 18.4024 4.65906C18.4741 4.1531 18.4293 3.6368 18.2715 3.15211C18.1138 2.66742 17.8476 2.22804 17.4946 1.86967C17.1416 1.5113 16.7118 1.24405 16.24 1.08966C15.7682 0.935271 15.2679 0.898089 14.7796 0.981138C14.2913 1.06419 13.8289 1.26512 13.4299 1.56761C13.0309 1.8701 12.7066 2.26561 12.4834 2.72199C11.6465 2.45551 10.7749 2.32344 9.89915 2.33041C9.02346 2.32345 8.15193 2.45553 7.31505 2.72205C7.09184 2.26567 6.76756 1.87015 6.36857 1.56766C5.96959 1.26516 5.50716 1.06422 5.01888 0.981165C4.5306 0.89811 4.03024 0.935285 3.55847 1.08967C3.08671 1.24405 2.65686 1.51129 2.30386 1.86966C1.95086 2.22802 1.68467 2.66741 1.52693 3.15209C1.36919 3.63677 1.32436 4.15308 1.39607 4.65904C1.46778 5.165 1.65401 5.64633 1.93963 6.06392C2.22525 6.4815 2.60219 6.82355 3.03982 7.06226C2.81907 7.7844 2.70787 8.53751 2.71019 9.29481C2.71019 11.0087 3.25577 12.5882 4.25632 13.8036C2.06886 14.9842 0.779117 16.9205 0.51453 19.4412C0.513969 19.4471 0.513407 19.4529 0.513014 19.4587L0.469824 20.096C0.468392 20.117 0.468392 20.138 0.469824 20.1589C0.505749 20.7024 0.694763 21.2231 1.01357 21.657C1.33238 22.0908 1.76706 22.4187 2.26403 22.6004C1.96758 23.2282 1.81452 23.9179 1.81663 24.6165C1.81663 26.9205 3.42909 28.7951 5.41111 28.7951C6.47822 28.7951 7.43766 28.2512 8.09657 27.3899C8.65101 27.7027 9.27255 27.8665 9.9042 27.8665C10.5359 27.8665 11.1574 27.7027 11.7118 27.3899C12.3707 28.2512 13.3302 28.7951 14.3973 28.7951C15.8057 28.7951 17.0267 27.8482 17.616 26.4737H27.8766C27.9957 26.4737 28.11 26.4247 28.1943 26.3377C28.2786 26.2506 28.3259 26.1325 28.3259 26.0094V19.5093C28.3259 19.3861 28.2786 19.268 28.1943 19.181C28.11 19.0939 27.9957 19.045 27.8766 19.045ZM21.5862 9.17584L23.8685 12.5449H19.304L21.5862 9.17584ZM18.8904 13.4735H24.2821V19.045H19.232C19.1612 18.5705 19.0468 18.1041 18.8904 17.6521V13.4735ZM17.5429 22.5972C17.9662 22.4401 18.3452 22.1767 18.6456 21.8307H19.3397V23.6879H17.9012C17.8277 23.3099 17.7072 22.9433 17.5429 22.5972ZM18.3894 19.5328L18.4298 20.1279C18.3975 20.5209 18.2452 20.8931 17.9948 21.1908C17.7445 21.4885 17.4091 21.6964 17.037 21.7843C16.4737 21.0754 15.7025 20.5939 14.8371 20.4705C14.7553 18.582 14.1393 16.8395 13.1328 15.6196C13.7674 15.3426 14.3558 14.9641 14.8765 14.4981C16.9347 15.5169 18.1473 17.2512 18.3894 19.5325V19.5328ZM15.2909 1.86612C15.7845 1.86596 16.2645 2.03383 16.6566 2.3438C17.0487 2.65376 17.3311 3.08856 17.4601 3.58097C17.5891 4.07339 17.5575 4.596 17.3703 5.06802C17.1831 5.54005 16.8506 5.9352 16.4242 6.19241C16.1106 5.51324 15.6849 4.89571 15.1662 4.3675C14.6309 3.82501 14.0089 3.38231 13.3275 3.05901C13.5226 2.69776 13.8074 2.3968 14.1525 2.18712C14.4976 1.97745 14.8905 1.86664 15.2909 1.86612ZM2.26088 4.18759C2.26075 3.67327 2.4259 3.17348 2.73041 2.76665C3.03492 2.35983 3.46155 2.06902 3.94332 1.93987C4.42508 1.81073 4.93472 1.85056 5.39221 2.05312C5.8497 2.25567 6.22914 2.60948 6.47097 3.05901C5.78962 3.38228 5.16757 3.82498 4.63234 4.3675C4.11362 4.89567 3.6879 5.51319 3.37427 6.19235C3.03574 5.98739 2.75492 5.69459 2.55962 5.34294C2.36433 4.9913 2.26135 4.59302 2.26088 4.18759ZM5.26244 5.02958C6.40234 3.87129 8.00587 3.259 9.89915 3.259C11.7924 3.259 13.396 3.87129 14.5359 5.02964C15.6022 6.11319 16.1895 7.62788 16.1895 9.29481C16.1895 10.9617 15.6022 12.4764 14.5359 13.56C13.396 14.7183 11.7926 15.3306 9.89915 15.3306C8.0057 15.3306 6.40234 14.7183 5.26244 13.56C4.19606 12.4764 3.60881 10.9617 3.60881 9.29481C3.60881 7.62788 4.19606 6.11319 5.26244 5.02958ZM1.3685 20.1278L1.40882 19.5327C1.65095 17.2511 2.86346 15.5168 4.9217 14.4979C5.44472 14.9659 6.03602 15.3457 6.67372 15.623C5.67024 16.8433 5.05357 18.5909 4.97129 20.4702C4.10507 20.5937 3.33305 21.0763 2.76978 21.786C2.39587 21.6996 2.05838 21.4922 1.80637 21.194C1.55436 20.8958 1.40097 20.5223 1.3685 20.1278ZM5.41111 27.8665C3.92456 27.8665 2.71525 26.4086 2.71525 24.6165C2.71525 22.8244 3.92456 21.3664 5.41111 21.3664C6.89765 21.3664 8.10696 22.8244 8.10696 24.6165C8.10696 26.4086 6.89765 27.8665 5.41111 27.8665ZM9.9042 26.938C9.44111 26.9364 8.98511 26.8204 8.57424 26.5996C8.86028 25.9804 9.0077 25.3026 9.00558 24.6165C9.00558 22.4936 7.63648 20.7367 5.87097 20.4733C5.95735 18.6625 6.58689 17.0073 7.59778 15.9536C8.34826 16.1612 9.12226 16.264 9.89915 16.2592C10.6787 16.2641 11.4553 16.1606 12.2081 15.9516C13.2222 17.005 13.8517 18.6537 13.9376 20.4734C12.172 20.7366 10.8028 22.4935 10.8028 24.6165C10.8007 25.3026 10.9481 25.9804 11.2342 26.5996C10.8233 26.8204 10.3673 26.9364 9.9042 26.938ZM14.3973 27.8665C12.9108 27.8665 11.7014 26.4086 11.7014 24.6165C11.7014 22.8244 12.9108 21.3664 14.3973 21.3664C15.8838 21.3664 17.0932 22.8244 17.0932 24.6165C17.0932 26.4086 15.8838 27.8665 14.3973 27.8665ZM17.9918 24.6165H19.789C19.9082 24.6165 20.0225 24.5676 20.1067 24.4805C20.191 24.3934 20.2383 24.2753 20.2383 24.1522V21.3664C20.2383 21.2433 20.191 21.1252 20.1067 21.0381C20.0225 20.9511 19.9082 20.9021 19.789 20.9021H19.18C19.2624 20.6626 19.3124 20.4125 19.3286 20.1589C19.33 20.138 19.33 20.117 19.3286 20.096L19.3203 19.9736H21.1369V25.5451H17.9012C17.9613 25.2395 17.9917 24.9284 17.9918 24.6165ZM27.4273 25.5451H22.0356V19.9736H27.4273V25.5451Z" fill="#0970CD"/>
<path d="M23.3829 24.6164H26.0787C26.1553 24.6164 26.2306 24.5962 26.2975 24.5576C26.3644 24.5191 26.4207 24.4635 26.4609 24.3962C26.5012 24.3289 26.5241 24.252 26.5276 24.173C26.531 24.0939 26.5149 24.0152 26.4806 23.9445L25.1327 21.1587C25.0953 21.0816 25.038 21.0167 24.967 20.9714C24.896 20.9261 24.8143 20.9021 24.7308 20.9021C24.6474 20.9021 24.5656 20.9261 24.4946 20.9714C24.4236 21.0167 24.3663 21.0816 24.329 21.1587L22.981 23.9445C22.9468 24.0152 22.9306 24.0939 22.934 24.173C22.9375 24.252 22.9604 24.3289 23.0007 24.3962C23.041 24.4635 23.0972 24.5191 23.1641 24.5576C23.231 24.5962 23.3063 24.6164 23.3829 24.6164ZM24.7308 22.4046L25.3518 23.6878H24.1099L24.7308 22.4046Z" fill="#0970CD"/>
</svg>
