<svg width="30" height="30" viewBox="0 0 30 30" fill="none" xmlns="http://www.w3.org/2000/svg">
<g clip-path="url(#clip0_1_4078)">
<path d="M28.5088 26.0196C24.9279 22.6935 21.9431 17.8911 19.6683 12.8501C19.6637 12.84 19.66 12.8296 19.6556 12.8195C19.6506 12.8018 19.6448 12.7842 19.6374 12.7666C19.4156 12.2361 19.3469 11.6636 19.431 11.0876C19.4337 11.069 19.4351 11.0506 19.4356 11.0323C19.4965 10.6577 19.6215 10.2849 19.8095 9.92665C20.3157 8.96122 20.4608 8.00789 20.4113 7.23685C20.3965 6.41148 19.9639 5.34538 19.2042 4.00117C18.9994 3.63885 18.7736 3.262 18.5301 2.87421C18.1301 2.23732 17.7023 1.60136 17.2744 0.995715C17.1247 0.78371 16.9855 0.590591 16.8606 0.419949C16.7852 0.317067 16.731 0.244227 16.7015 0.205073C16.4123 -0.178789 15.7631 0.0113471 15.7631 0.479923C15.7631 3.36753 15.4798 5.38481 15.0157 6.67821C14.922 6.93942 14.8261 7.15534 14.7313 7.33035C14.6364 7.15534 14.5406 6.93942 14.4469 6.67821C13.9828 5.38481 13.6996 3.36758 13.6996 0.479923C13.6996 0.0113471 13.0503 -0.178734 12.7611 0.205073C12.7316 0.244171 12.6774 0.317067 12.602 0.419949C12.477 0.590591 12.3379 0.783765 12.1882 0.995715C11.7603 1.60136 11.3325 2.23726 10.9326 2.87421C10.6891 3.262 10.4632 3.63879 10.2584 4.00117C9.49882 5.34532 9.06611 6.41137 9.05689 7.16468C9.00161 8.00828 9.1466 8.96144 9.65255 9.92648C9.84093 10.2855 9.96607 10.6591 10.0268 11.0346C10.0273 11.0521 10.0288 11.0697 10.0314 11.0875C10.1154 11.6628 10.0465 12.2355 9.82482 12.7668C9.81817 12.7828 9.81311 12.7988 9.80836 12.815C9.8033 12.8266 9.79902 12.8384 9.79379 12.85C7.52133 17.8876 4.53467 22.6931 0.953848 26.0196C0.796849 26.1654 0.757912 26.3883 0.857187 26.5728C0.962348 26.7681 1.18515 27.0211 1.55967 27.2603C2.70437 27.9914 4.52932 28.1058 7.15638 27.2923C7.19181 27.2813 7.26523 27.2603 7.3717 27.2325C7.55266 27.1852 7.75709 27.1377 7.98008 27.0933C8.81227 26.9276 9.65695 26.8509 10.4325 26.911C10.6515 26.9279 10.8613 26.9558 11.0608 26.995C12.1503 27.2092 13.025 27.3169 13.8884 27.3169H15.5743C16.4374 27.3169 17.3112 27.2093 18.4017 26.9951C18.6013 26.9558 18.8111 26.928 19.0301 26.911C19.8057 26.8509 20.6503 26.9277 21.4825 27.0934C21.7055 27.1378 21.91 27.1852 22.0909 27.2325C22.1974 27.2604 22.2708 27.2814 22.3062 27.2924C24.9333 28.1059 26.7582 27.9915 27.9029 27.2604C28.2775 27.0212 28.5003 26.7682 28.6054 26.5728C28.7047 26.3883 28.6658 26.1655 28.5088 26.0196ZM11.1009 11.5024H18.3611C18.3564 11.8247 18.3898 12.1459 18.4616 12.4608H11.0003C11.0722 12.1459 11.1055 11.8248 11.1009 11.5024ZM10.081 7.29434C10.0829 7.26529 10.0884 7.1892 10.0884 7.1892C10.0884 6.64088 10.4797 5.67125 11.1718 4.44672C11.3691 4.0977 11.5875 3.73322 11.8237 3.3572C12.1036 2.91143 12.3982 2.46511 12.697 2.02962C12.7832 4.21257 13.0569 5.83532 13.4681 6.98128C13.6522 7.49431 13.8548 7.88325 14.0653 8.16583C14.2104 8.36044 14.3413 8.4821 14.4451 8.54638C14.6184 8.65368 14.8441 8.65368 15.0174 8.54638C15.1213 8.4821 15.2522 8.36044 15.3972 8.16583C15.6078 7.88325 15.8104 7.49431 15.9945 6.98128C16.4057 5.83532 16.6793 4.21257 16.7656 2.02962C17.0643 2.46511 17.359 2.91138 17.6389 3.3572C17.875 3.73322 18.0935 4.0977 18.2907 4.44672C18.9828 5.67131 19.3742 6.64088 19.3742 7.1892C19.378 7.2474 19.3796 7.26496 19.3815 7.29384C19.3952 7.50872 19.3864 7.78849 19.3373 8.11094C19.2657 8.582 19.1194 9.05416 18.882 9.50684C18.7055 9.84304 18.5732 10.1911 18.486 10.5439H10.976C10.8887 10.191 10.7564 9.84298 10.5799 9.50673C10.3427 9.05439 10.1965 8.58244 10.1249 8.11155C10.0759 7.78915 10.0672 7.50938 10.081 7.29434ZM27.3184 26.4706C26.6751 26.8814 25.667 27.0352 24.2041 26.7739C22.6518 25.7656 20.9214 23.1472 20.9214 21.5663C20.9214 21.3016 20.6904 21.087 20.4055 21.087C20.1206 21.087 19.8896 21.3016 19.8896 21.5663C19.8896 22.9567 20.8928 24.8599 22.135 26.2516C21.9977 26.2189 21.8526 26.1869 21.6986 26.1562C20.7754 25.9724 19.8347 25.8869 18.9443 25.9559C18.8805 25.9608 18.8172 25.9666 18.7545 25.9732C18.7434 25.9363 18.7319 25.8981 18.7193 25.8569C18.6867 25.7496 18.6867 25.7496 18.6547 25.6444C18.6303 25.5641 18.6108 25.4993 18.5927 25.4372C18.4181 24.8423 18.3419 24.4314 18.3419 23.9626C18.3419 23.6979 18.111 23.4834 17.826 23.4834C17.5411 23.4834 17.3102 23.6979 17.3102 23.9626C17.3102 24.5312 17.4006 25.0193 17.5972 25.6893C17.6163 25.7544 17.6365 25.8217 17.6616 25.9044C17.6941 26.0111 17.6941 26.0111 17.7264 26.1173C17.729 26.1259 17.7314 26.1338 17.734 26.1422C16.9167 26.2868 16.2351 26.3586 15.5741 26.3586H13.8882C13.4919 26.3586 13.0881 26.3328 12.6525 26.2811C12.68 26.1978 12.7127 26.1004 12.753 25.981C13.0659 25.0536 13.1833 24.5732 13.1833 23.9623C13.1833 23.6976 12.9524 23.4831 12.6674 23.4831C12.3825 23.4831 12.1516 23.6976 12.1516 23.9623C12.1516 24.4455 12.0509 24.8571 11.7685 25.6945C11.7065 25.8783 11.6614 26.0132 11.6253 26.124C11.511 26.1031 11.3942 26.0811 11.2743 26.0575C11.0312 26.0098 10.7788 25.9762 10.518 25.956C9.62764 25.887 8.68696 25.9725 7.76369 26.1563C7.6678 26.1754 7.57584 26.1951 7.48625 26.2151C8.90435 24.7954 10.0881 22.9144 10.0881 21.5664C10.0881 21.3017 9.8571 21.0871 9.57218 21.0871C9.28725 21.0871 9.0563 21.3017 9.0563 21.5664C9.0563 23.043 7.01419 25.6501 5.25861 26.774C3.79551 27.0353 2.78724 26.8816 2.14391 26.4707C2.09647 26.4404 2.05408 26.4107 2.0164 26.3823C5.51608 23.0124 8.41683 18.3341 10.6546 13.4193H18.8074C21.0473 18.3373 23.9464 23.0129 27.4459 26.3821C27.4082 26.4106 27.3658 26.4403 27.3184 26.4706Z" fill="#0970CD"/>
<line x1="11.5898" y1="20.5535" x2="14.6613" y2="20.5535" stroke="#0970CD" stroke-width="1.75" stroke-linecap="round"/>
<line x1="17.4824" y1="20.5535" x2="18.411" y2="20.5535" stroke="#0970CD" stroke-width="1.75" stroke-linecap="round"/>
</g>
<defs>
<clipPath id="clip0_1_4078">
<rect width="30" height="30" fill="white"/>
</clipPath>
</defs>
</svg>
