<svg width="324" height="361" viewBox="0 0 324 361" fill="none" xmlns="http://www.w3.org/2000/svg">
<path d="M117.442 315.673C119.982 315.303 121.806 314.859 122.531 314.318C123.91 313.273 125.048 311.014 125.96 308.465L107.74 308.48V311.443C107.727 311.925 107.524 312.384 107.172 312.73C106.821 313.077 106.345 313.286 105.84 313.315C105.334 313.345 104.835 313.194 104.441 312.891C104.047 312.589 103.786 312.157 103.711 311.68C103.711 311.606 103.711 311.525 103.711 311.443V308.48H49.4801V311.443C49.4481 311.935 49.2203 312.396 48.8431 312.733C48.4659 313.07 47.9677 313.257 47.4501 313.257C46.9324 313.257 46.4343 313.07 46.0571 312.733C45.6799 312.396 45.4521 311.935 45.42 311.443V308.48H27.2158C28.1198 311.029 29.2654 313.288 30.6369 314.333C31.3694 314.866 33.2086 315.325 35.749 315.688H35.8114C36.1543 313.007 37.8064 310.977 39.7702 310.977C40.3222 310.976 40.863 311.125 41.3288 311.406C41.5735 311.547 41.7987 311.716 41.9989 311.91C42.1083 312.006 42.2099 312.11 42.3029 312.221C42.5084 312.452 42.691 312.7 42.8484 312.962C42.9315 313.1 43.0094 313.241 43.0822 313.384C43.1551 313.532 43.2201 313.683 43.277 313.836C43.3541 313.99 43.4142 314.152 43.4562 314.318C43.572 314.654 43.658 314.998 43.7134 315.347C43.7847 315.717 43.8238 316.091 43.8303 316.466C45.6149 316.585 47.5553 316.696 49.5113 316.792C62.2293 317.385 76.6072 317.325 76.6072 317.325C76.6072 317.325 90.9851 317.385 103.719 316.785C108.948 316.54 113.888 316.185 117.442 315.673ZM117.442 315.673L117.442 325.697C117.442 326.457 117.124 327.186 116.559 327.724C115.993 328.262 115.226 328.564 114.426 328.564H106.735C106.338 328.565 105.945 328.491 105.578 328.348C105.211 328.204 104.878 327.993 104.597 327.727C104.316 327.46 104.093 327.144 103.941 326.796C103.789 326.447 103.711 326.074 103.711 325.697V316.807C108.948 316.54 113.888 316.185 117.442 315.673Z" stroke="#93B9F7" stroke-width="1.2" stroke-linecap="round" stroke-linejoin="round"/>
<path d="M49.9355 316.881V325.715C49.9334 326.471 49.6081 327.196 49.031 327.73C48.4538 328.264 47.6719 328.564 46.8568 328.564H39.0249C38.2105 328.564 37.4294 328.264 36.8535 327.729C36.2776 327.195 35.9541 326.47 35.9541 325.715V315.769H36.0176C36.3667 313.104 38.0489 311.087 40.0485 311.087C40.6106 311.086 41.1613 311.234 41.6355 311.514C41.8848 311.654 42.114 311.822 42.3179 312.015C42.429 312.118 42.5322 312.221 42.6274 312.324C42.8367 312.553 43.0226 312.799 43.1829 313.06C43.2675 313.197 43.3469 313.337 43.4209 313.479C43.4952 313.626 43.5614 313.776 43.6193 313.929C43.6978 314.082 43.759 314.242 43.8018 314.407C43.9197 314.741 44.0073 315.083 44.0636 315.43C44.1362 315.797 44.1761 316.169 44.1827 316.542C45.9998 316.674 47.9438 316.785 49.9355 316.881Z" stroke="#93B9F7" stroke-width="1.2" stroke-linecap="round" stroke-linejoin="round"/>
<path d="M49.2592 288.754H33.7244C31.544 288.754 29.7764 290.522 29.7764 292.702V296.931C29.7764 299.112 31.544 300.879 33.7244 300.879H49.2592C51.4397 300.879 53.2073 299.112 53.2073 296.931V292.702C53.2073 290.522 51.4397 288.754 49.2592 288.754Z" stroke="white" stroke-opacity="0.5" stroke-width="1.2" stroke-linecap="round" stroke-linejoin="round"/>
<path d="M49.2592 288.754H33.7244C31.544 288.754 29.7764 290.522 29.7764 292.702V296.931C29.7764 299.112 31.544 300.879 33.7244 300.879H49.2592C51.4397 300.879 53.2073 299.112 53.2073 296.931V292.702C53.2073 290.522 51.4397 288.754 49.2592 288.754Z" stroke="white" stroke-opacity="0.5" stroke-width="1.2" stroke-linecap="round" stroke-linejoin="round"/>
<path d="M29.7764 294.598H53.2073" stroke="white" stroke-opacity="0.5" stroke-width="1.2" stroke-linecap="round" stroke-linejoin="round"/>
<path d="M45.6387 294.598V300.879" stroke="white" stroke-opacity="0.5" stroke-width="1.2" stroke-linecap="round" stroke-linejoin="round"/>
<path d="M49.2592 288.754H33.7244C31.544 288.754 29.7764 290.522 29.7764 292.702V296.931C29.7764 299.112 31.544 300.879 33.7244 300.879H49.2592C51.4397 300.879 53.2073 299.112 53.2073 296.931V292.702C53.2073 290.522 51.4397 288.754 49.2592 288.754Z" stroke="white" stroke-opacity="0.5" stroke-width="1.2" stroke-linecap="round" stroke-linejoin="round"/>
<path d="M49.696 305.186V311.881C49.6639 312.398 49.4358 312.884 49.0581 313.239C48.6805 313.594 48.1817 313.791 47.6634 313.791C47.1451 313.791 46.6463 313.594 46.2687 313.239C45.891 312.884 45.6629 312.398 45.6309 311.881V305.186C45.6329 304.965 45.6725 304.746 45.7479 304.539C45.8093 304.338 45.9071 304.15 46.0366 303.985C46.095 303.901 46.1602 303.823 46.2317 303.751C46.3058 303.681 46.3839 303.616 46.4657 303.556C46.8104 303.298 47.2291 303.158 47.6595 303.158C47.9261 303.157 48.1902 303.209 48.4366 303.311C48.683 303.413 48.9068 303.562 49.0952 303.751C49.3114 303.972 49.4765 304.239 49.5789 304.531V304.531C49.659 304.74 49.6987 304.962 49.696 305.186V305.186Z" stroke="#78A8F5" stroke-width="1.2" stroke-linecap="round" stroke-linejoin="round"/>
<path d="M45.7478 304.539C45.6724 304.747 45.6328 304.966 45.6308 305.186V308.768H23.261C22.7002 308.768 22.1623 308.545 21.7658 308.148C21.3693 307.752 21.1465 307.214 21.1465 306.653C21.1465 306.093 21.3693 305.555 21.7658 305.158C22.1623 304.762 22.7002 304.539 23.261 304.539H45.7478Z" stroke="#93B9F7" stroke-width="1.2" stroke-linecap="round" stroke-linejoin="round"/>
<path d="M43.9997 317.195C43.9911 316.8 43.9546 316.406 43.8905 316.016C43.8295 315.649 43.7435 315.287 43.633 314.932C43.5909 314.757 43.5307 314.587 43.4535 314.425C43.3966 314.263 43.3315 314.104 43.2585 313.949C43.1856 313.798 43.1076 313.65 43.0244 313.504C42.8614 313.231 42.6789 312.97 42.4782 312.724C42.3846 312.614 42.2831 312.505 42.1739 312.396C41.9734 312.192 41.7479 312.013 41.5029 311.865C41.0366 311.569 40.4951 311.412 39.9424 311.413C37.9762 311.413 36.322 313.551 35.9787 316.375C35.9342 316.743 35.9133 317.113 35.9163 317.483C35.9163 320.846 37.7187 323.569 39.9424 323.569C42.1661 323.569 43.9763 320.846 43.9763 317.483C44.0075 317.397 44.0075 317.288 43.9997 317.195ZM39.4586 319.957C39.0308 319.958 38.6122 319.833 38.2558 319.596C37.8993 319.36 37.6211 319.023 37.4563 318.628C37.2915 318.233 37.2476 317.798 37.3301 317.378C37.4126 316.959 37.6179 316.573 37.9198 316.27C38.2218 315.967 38.6068 315.76 39.0263 315.676C39.4458 315.592 39.8807 315.634 40.2761 315.798C40.6715 315.961 41.0095 316.238 41.2473 316.594C41.4852 316.949 41.6121 317.368 41.6121 317.795C41.6101 318.367 41.3828 318.914 40.9796 319.319C40.5764 319.723 40.0299 319.953 39.4586 319.957V319.957Z" stroke="#93B9F7" stroke-width="1.2" stroke-linecap="round" stroke-linejoin="round"/>
<path d="M41.6204 317.795C41.6204 318.223 41.4937 318.641 41.2562 318.996C41.0187 319.352 40.6812 319.629 40.2862 319.792C39.8913 319.956 39.4567 319.998 39.0375 319.915C38.6182 319.832 38.2331 319.626 37.9309 319.324C37.6286 319.021 37.4228 318.636 37.3394 318.217C37.256 317.798 37.2988 317.363 37.4624 316.968C37.626 316.573 37.903 316.236 38.2584 315.998C38.6138 315.761 39.0317 315.634 39.4591 315.634C40.0324 315.634 40.5821 315.862 40.9874 316.267C41.3927 316.672 41.6204 317.222 41.6204 317.795V317.795Z" stroke="white" stroke-opacity="0.5" stroke-width="1.2" stroke-linecap="round" stroke-linejoin="round"/>
<path d="M41.6204 317.795C41.6204 318.223 41.4937 318.641 41.2562 318.996C41.0187 319.352 40.6812 319.629 40.2862 319.792C39.8913 319.956 39.4567 319.998 39.0375 319.915C38.6182 319.832 38.2331 319.626 37.9309 319.324C37.6286 319.021 37.4228 318.636 37.3394 318.217C37.256 317.798 37.2988 317.363 37.4624 316.968C37.626 316.573 37.903 316.236 38.2584 315.998C38.6138 315.761 39.0317 315.634 39.4591 315.634C40.0324 315.634 40.5821 315.862 40.9874 316.267C41.3927 316.672 41.6204 317.222 41.6204 317.795V317.795Z" stroke="#93B9F7" stroke-width="1.2" stroke-linecap="round" stroke-linejoin="round"/>
<path d="M32.7494 302.526C31.6321 302.496 30.5417 302.176 29.5845 301.599C28.6273 301.022 27.8359 300.207 27.2876 299.233C26.7341 298.261 26.4437 297.161 26.4449 296.042V293.124C26.4384 292.034 26.7067 290.961 27.2252 290.003L27.272 289.909C27.8217 288.896 28.6311 288.048 29.617 287.452C30.6029 286.855 31.7298 286.532 32.882 286.515L76.8336 285.945L120.77 286.515C121.923 286.53 123.052 286.852 124.04 287.449C125.027 288.045 125.838 288.895 126.387 289.909L126.434 290.003C126.953 290.961 127.221 292.034 127.214 293.124V296.042C127.213 297.158 126.929 298.257 126.387 299.233C125.835 300.203 125.043 301.016 124.086 301.592C123.13 302.169 122.042 302.49 120.926 302.526M123.157 279.298L118.405 276.348L116.111 273.001L105.227 254.977L76.8258 253.768L48.4168 254.977L37.4933 273.017L35.2072 276.364L30.4398 279.313C30.4398 279.313 24.9781 287.584 24.627 296.331C24.627 296.331 25.1263 300.232 26.1875 304.554H45.6937C45.7551 304.354 45.853 304.166 45.9824 304C46.0408 303.917 46.1061 303.839 46.1775 303.766C46.2516 303.697 46.3298 303.632 46.4116 303.571C46.7562 303.313 47.1749 303.174 47.6053 303.173C47.8719 303.173 48.136 303.225 48.3824 303.326C48.6288 303.428 48.8527 303.578 49.041 303.766C49.2573 303.988 49.4224 304.254 49.5248 304.547H104.01C104.106 304.251 104.272 303.984 104.493 303.766C104.872 303.388 105.386 303.175 105.921 303.173H106.194H106.311C106.362 303.184 106.412 303.2 106.46 303.22H106.514C106.612 303.25 106.706 303.289 106.795 303.337C106.892 303.378 106.981 303.433 107.06 303.501L107.302 303.704C107.373 303.774 107.435 303.86 107.505 303.938C107.557 304.006 107.602 304.079 107.638 304.156L107.685 304.242C107.724 304.312 107.755 304.406 107.794 304.484H127.3C128.338 300.177 128.861 296.26 128.861 296.26C128.619 287.568 123.157 279.298 123.157 279.298ZM44.2035 270.535L49.119 259.323C49.2876 258.933 49.5646 258.599 49.9173 258.361C50.2699 258.123 50.6834 257.991 51.1087 257.981L76.857 257.162L102.558 257.981C102.984 257.992 103.398 258.125 103.752 258.362C104.106 258.6 104.384 258.933 104.556 259.323L109.471 270.535C109.624 270.879 109.688 271.255 109.657 271.63C109.627 272.005 109.503 272.366 109.298 272.681C109.092 272.996 108.812 273.254 108.481 273.433C108.15 273.611 107.78 273.704 107.404 273.703H46.2711C45.8952 273.704 45.525 273.611 45.1942 273.433C44.8634 273.254 44.5825 272.996 44.377 272.681C44.1716 272.366 44.0481 272.005 44.0177 271.63C43.9874 271.255 44.0513 270.879 44.2035 270.535V270.535Z" stroke="#78A8F5" stroke-width="1.2" stroke-linecap="round" stroke-linejoin="round"/>
<path d="M119.911 288.754H104.376C102.195 288.754 100.428 290.522 100.428 292.702V296.931C100.428 299.112 102.195 300.879 104.376 300.879H119.911C122.091 300.879 123.859 299.112 123.859 296.931V292.702C123.859 290.522 122.091 288.754 119.911 288.754Z" stroke="white" stroke-opacity="0.5" stroke-width="1.2" stroke-linecap="round" stroke-linejoin="round"/>
<path d="M119.911 288.754H104.376C102.195 288.754 100.428 290.522 100.428 292.702V296.931C100.428 299.112 102.195 300.879 104.376 300.879H119.911C122.091 300.879 123.859 299.112 123.859 296.931V292.702C123.859 290.522 122.091 288.754 119.911 288.754Z" stroke="white" stroke-opacity="0.5" stroke-width="1.2" stroke-linecap="round" stroke-linejoin="round"/>
<path d="M123.859 294.598H100.428" stroke="white" stroke-opacity="0.5" stroke-width="1.2" stroke-linecap="round" stroke-linejoin="round"/>
<path d="M108.004 294.598V300.879" stroke="#78A8F5" stroke-width="1.2" stroke-linecap="round" stroke-linejoin="round"/>
<path d="M53.2463 296.931C53.2484 297.971 52.8396 298.969 52.1088 299.709C51.3781 300.448 50.3847 300.869 49.3451 300.879H33.7401C32.693 300.879 31.6888 300.463 30.9484 299.723C30.2079 298.982 29.792 297.978 29.792 296.931V292.702C29.7941 291.656 30.2107 290.653 30.9506 289.913C31.6906 289.173 32.6936 288.756 33.7401 288.754H49.2671C50.306 288.766 51.2982 289.188 52.0286 289.927C52.7589 290.666 53.1684 291.663 53.1683 292.702L53.2463 296.931ZM88.3108 297.774C88.3108 298.618 87.9754 299.428 87.3784 300.025C86.7814 300.622 85.9717 300.957 85.1274 300.957H68.5549C67.7106 300.957 66.9009 300.622 66.3038 300.025C65.7068 299.428 65.3714 298.618 65.3714 297.774V292.25C65.3714 291.832 65.4538 291.418 65.6139 291.033C65.774 290.647 66.0086 290.296 66.3043 290.001C66.6 289.706 66.951 289.473 67.3372 289.314C67.7234 289.154 68.1372 289.073 68.5549 289.074H85.0884C85.9313 289.074 86.7399 289.408 87.3367 290.004C87.9334 290.599 88.2698 291.407 88.2718 292.25L88.3108 297.774ZM123.898 296.931C123.899 297.45 123.798 297.964 123.6 298.443C123.402 298.923 123.111 299.358 122.744 299.725C122.377 300.092 121.942 300.383 121.462 300.581C120.983 300.779 120.469 300.88 119.95 300.879H104.376C103.329 300.879 102.325 300.463 101.584 299.723C100.844 298.982 100.428 297.978 100.428 296.931V292.702C100.43 291.656 100.847 290.653 101.587 289.913C102.327 289.173 103.33 288.756 104.376 288.754H119.911C120.958 288.754 121.962 289.17 122.703 289.911C123.443 290.651 123.859 291.655 123.859 292.702L123.898 296.931Z" stroke="#78A8F5" stroke-width="1.2" stroke-linecap="round" stroke-linejoin="round"/>
<path d="M119.911 288.754H104.376C102.195 288.754 100.428 290.522 100.428 292.702V296.931C100.428 299.112 102.195 300.879 104.376 300.879H119.911C122.091 300.879 123.859 299.112 123.859 296.931V292.702C123.859 290.522 122.091 288.754 119.911 288.754Z" stroke="#78A8F5" stroke-width="1.2" stroke-linecap="round" stroke-linejoin="round"/>
<path d="M107.372 273.703H46.271C45.8961 273.704 45.527 273.61 45.1971 273.432C44.8672 273.254 44.587 272.997 44.3817 272.683C44.1764 272.369 44.0526 272.009 44.0215 271.636C43.9903 271.262 44.0528 270.887 44.2033 270.543L49.1189 259.331C49.2871 258.94 49.5638 258.604 49.9164 258.365C50.2689 258.126 50.6826 257.993 51.1085 257.981L76.8568 257.162L102.566 257.981C102.993 257.992 103.408 258.125 103.762 258.364C104.116 258.603 104.394 258.939 104.564 259.331L109.424 270.582C109.566 270.923 109.622 271.292 109.588 271.659C109.553 272.026 109.429 272.379 109.227 272.687C109.024 272.995 108.749 273.249 108.426 273.426C108.103 273.603 107.741 273.698 107.372 273.703V273.703Z" stroke="#93B9F7" stroke-width="1.2" stroke-linecap="round" stroke-linejoin="round"/>
<path d="M108.004 305.186V311.881C107.99 312.388 107.788 312.872 107.436 313.237C107.083 313.602 106.607 313.821 106.101 313.853C105.595 313.884 105.095 313.725 104.701 313.406C104.306 313.087 104.045 312.632 103.97 312.131C103.97 312.053 103.97 311.967 103.97 311.881V305.186C103.969 304.963 104.006 304.742 104.079 304.531C104.175 304.236 104.341 303.968 104.563 303.751C104.942 303.372 105.455 303.159 105.991 303.158H106.264H106.381C106.431 303.169 106.481 303.184 106.529 303.205H106.584C106.681 303.234 106.775 303.273 106.864 303.322C107.051 303.418 107.222 303.541 107.372 303.688C107.442 303.759 107.504 303.844 107.575 303.922C107.627 303.99 107.671 304.063 107.707 304.141L107.754 304.227C107.793 304.297 107.824 304.391 107.863 304.469C107.955 304.697 108.003 304.94 108.004 305.186V305.186Z" stroke="#78A8F5" stroke-width="1.2" stroke-linecap="round" stroke-linejoin="round"/>
<path d="M104.064 304.531C103.991 304.742 103.954 304.963 103.955 305.186V308.768H49.6961V305.186C49.6979 304.965 49.6582 304.745 49.5791 304.539H104.064V304.531Z" stroke="#78A8F5" stroke-width="1.2" stroke-linecap="round" stroke-linejoin="round"/>
<path d="M132.496 306.653C132.494 307.213 132.27 307.75 131.874 308.146C131.478 308.542 130.942 308.766 130.381 308.768H108.004V305.186C108.007 304.966 107.973 304.747 107.902 304.539H130.381C130.942 304.539 131.48 304.762 131.877 305.158C132.273 305.555 132.496 306.093 132.496 306.653V306.653Z" stroke="#78A8F5" stroke-width="1.2" stroke-linecap="round" stroke-linejoin="round"/>
<path d="M107.411 303.751C107.262 303.604 107.091 303.48 106.904 303.384C107.094 303.474 107.266 303.599 107.411 303.751Z" stroke="#78A8F5" stroke-width="1.2" stroke-linecap="round" stroke-linejoin="round"/>
<path d="M32.874 284.939C32.874 284.939 37.1576 280.039 76.8256 280.039C116.494 280.039 120.769 284.939 120.769 284.939" stroke="white" stroke-opacity="0.5" stroke-width="1.2" stroke-linecap="round" stroke-linejoin="round"/>
<path d="M91.4782 251.646C91.4782 253.737 84.9319 254.041 76.8563 254.041C68.7807 254.041 62.2266 253.737 62.2266 251.646C62.2266 249.882 73.2827 247.9 73.2827 247.869C73.2155 247.425 73.245 246.971 73.3692 246.539C73.4934 246.108 73.7094 245.708 74.0024 245.367C74.2954 245.026 74.6585 244.753 75.0669 244.566C75.4753 244.378 75.9193 244.281 76.3686 244.281C76.8179 244.281 77.262 244.378 77.6703 244.566C78.0787 244.753 78.4418 245.026 78.7348 245.367C79.0278 245.708 79.2438 246.108 79.368 246.539C79.4922 246.971 79.5217 247.425 79.4545 247.869C79.4545 247.869 91.4782 249.789 91.4782 251.646Z" stroke="white" stroke-opacity="0.5" stroke-width="1.2" stroke-linecap="round" stroke-linejoin="round"/>
<path d="M59.0039 269.802L67.0249 262.78" stroke="white" stroke-opacity="0.5" stroke-width="1.2" stroke-linecap="round" stroke-linejoin="round"/>
<path d="M82.4668 259.979C83.247 259.331 84.0663 258.691 84.8778 258.052" stroke="white" stroke-opacity="0.5" stroke-width="1.2" stroke-linecap="round" stroke-linejoin="round"/>
<path d="M69.9355 271.066C73.2178 267.914 76.5989 264.873 80.0788 261.945" stroke="white" stroke-opacity="0.5" stroke-width="1.2" stroke-linecap="round" stroke-linejoin="round"/>
<path d="M99.1797 272.205C101.352 270.46 103.374 268.536 105.227 266.455" stroke="white" stroke-opacity="0.5" stroke-width="1.2" stroke-linecap="round" stroke-linejoin="round"/>
<path d="M9.23145 313.433V323.569" stroke="white" stroke-opacity="0.5" stroke-width="1.5" stroke-linecap="round" stroke-linejoin="round"/>
<path d="M109.213 253.338V113.822L59.6591 58.3535H9.23145V306.645" stroke="white" stroke-opacity="0.5" stroke-width="1.5" stroke-linecap="round" stroke-linejoin="round"/>
<path d="M24.6645 66.9206L14.334 61.1858" stroke="white" stroke-opacity="0.5" stroke-width="1.5" stroke-linecap="round" stroke-linejoin="round"/>
<path d="M100.794 109.148L29.7754 69.7529" stroke="white" stroke-opacity="0.5" stroke-width="1.5" stroke-linecap="round" stroke-linejoin="round"/>
<path d="M43.2109 87.0745V248.61" stroke="white" stroke-opacity="0.5" stroke-width="1.5" stroke-linecap="round" stroke-linejoin="round"/>
<path d="M60.2207 97.1008V243.952" stroke="white" stroke-opacity="0.5" stroke-width="1.5" stroke-linecap="round" stroke-linejoin="round"/>
<path d="M77.2305 107.127V240.581" stroke="white" stroke-opacity="0.5" stroke-width="1.5" stroke-linecap="round" stroke-linejoin="round"/>
<path d="M94.2402 236.149V247.393" stroke="white" stroke-opacity="0.5" stroke-width="1.5" stroke-linecap="round" stroke-linejoin="round"/>
<path d="M94.2402 117.146V230.734" stroke="white" stroke-opacity="0.5" stroke-width="1.5" stroke-linecap="round" stroke-linejoin="round"/>
<path d="M26.1943 95.8992V275.334" stroke="white" stroke-opacity="0.5" stroke-width="1.5" stroke-linecap="round" stroke-linejoin="round"/>
<path d="M26.1943 77.0483V90.0239" stroke="white" stroke-opacity="0.5" stroke-width="1.5" stroke-linecap="round" stroke-linejoin="round"/>
<path d="M113.325 215.184H122.61C123.608 215.188 124.565 215.586 125.27 216.292C125.976 216.998 126.375 217.954 126.379 218.953V238.693C126.379 239.69 126.775 240.647 127.48 241.352C128.186 242.057 129.142 242.454 130.14 242.454H134.189C135.187 242.454 136.143 242.057 136.848 241.352C137.554 240.647 137.95 239.69 137.95 238.693V198.9H137.911V178.996H138.691V191.269C138.762 191.163 138.841 191.061 138.925 190.965L168.824 173.799C169.456 173.113 169.815 173.799 169.815 172.879V148.301L171.875 146.826L209.296 120.056L210.076 109.405V119.486L210.232 119.377V238.755C210.241 239.745 210.638 240.692 211.339 241.392C212.04 242.091 212.988 242.487 213.978 242.493H218.885C219.38 242.494 219.87 242.397 220.327 242.209C220.784 242.02 221.2 241.743 221.55 241.394C221.9 241.045 222.177 240.63 222.367 240.173C222.556 239.716 222.654 239.226 222.654 238.732L223.832 194.172C223.841 193.742 223.942 193.319 224.129 192.931L231.44 177.732H231.986V160.465C231.992 159.659 232.317 158.889 232.891 158.323C233.464 157.757 234.239 157.441 235.044 157.445H236.511L237.292 145.242V157.445H238.072C238.88 157.447 239.654 157.77 240.224 158.342C240.794 158.914 241.115 159.688 241.115 160.496V161.276H244.532V160.496C244.532 159.687 244.854 158.911 245.426 158.339C245.998 157.767 246.774 157.445 247.583 157.445H248.878V145.211L249.658 157.414H250.649C251.457 157.416 252.231 157.739 252.802 158.31C253.372 158.882 253.692 159.657 253.692 160.465V177.732H254.239L261.542 192.97C261.728 193.358 261.831 193.781 261.846 194.211L263.04 238.724C263.04 239.724 263.437 240.682 264.144 241.389C264.85 242.096 265.809 242.493 266.808 242.493H273.706C274.703 242.493 275.66 242.889 276.365 243.594C277.07 244.3 277.467 245.256 277.467 246.254V251.442C277.467 252.44 277.863 253.396 278.568 254.102C279.273 254.807 280.23 255.203 281.227 255.203H286.151C287.039 255.2 287.9 255.511 288.58 256.083C289.26 256.654 289.715 257.448 289.865 258.324L291.511 266.907" stroke="white" stroke-opacity="0.5" stroke-width="1.5" stroke-linecap="round" stroke-linejoin="round"/>
<path d="M225.986 117.754H302.232C312.001 117.754 314.357 104.084 305.134 100.87L304.775 100.753C314.981 92.2478 292.596 74.3255 268.275 99.1452C270.171 90.8668 248.551 93.8551 241.934 105.153C239.585 97.733 218.971 110.631 225.986 117.754Z" fill="white" stroke="#263238" stroke-linecap="round" stroke-linejoin="round"/>
<path d="M65.8858 57.2612H108.971C108.971 57.2612 119.115 53.4536 117.765 43.3805C116.415 33.3075 101.208 41.6952 101.208 41.6952C101.208 41.6952 105.827 27.6507 91.0645 31.63C76.3021 35.6092 74.8587 49.5757 74.8587 49.5757C74.8587 49.5757 55.446 46.166 65.8858 57.2612Z" fill="white" stroke="#263238" stroke-linecap="round" stroke-linejoin="round"/>
<path d="M321.426 180.51V329.975H316.744V180.51C316.74 177.726 315.632 175.057 313.663 173.088C311.695 171.12 309.026 170.012 306.242 170.008H302.146V165.326H306.273C310.293 165.339 314.145 166.943 316.985 169.789C319.825 172.635 321.421 176.49 321.426 180.51Z" fill="white" stroke="#263238" stroke-linecap="round" stroke-linejoin="round"/>
<path d="M284.395 141.333V191.394H302.145V141.333H284.395ZM287.804 181.064C287.777 180.841 287.761 180.617 287.757 180.393C287.757 178.934 288.337 177.535 289.369 176.503C290.4 175.472 291.799 174.892 293.258 174.892C294.717 174.892 296.116 175.472 297.148 176.503C298.179 177.535 298.759 178.934 298.759 180.393C298.755 180.617 298.74 180.841 298.712 181.064C298.74 181.284 298.755 181.505 298.759 181.727C298.759 183.186 298.179 184.585 297.148 185.617C296.116 186.648 294.717 187.228 293.258 187.228C291.799 187.228 290.4 186.648 289.369 185.617C288.337 184.585 287.757 183.186 287.757 181.727C287.761 181.505 287.777 181.284 287.804 181.064ZM287.804 166.044C287.777 165.821 287.761 165.597 287.757 165.373C287.757 163.914 288.337 162.515 289.369 161.483C290.4 160.452 291.799 159.872 293.258 159.872C294.717 159.872 296.116 160.452 297.148 161.483C298.179 162.515 298.759 163.914 298.759 165.373C298.755 165.597 298.739 165.821 298.712 166.044C298.74 166.264 298.755 166.486 298.759 166.707C298.759 168.166 298.179 169.565 297.148 170.597C296.116 171.628 294.717 172.208 293.258 172.208C291.799 172.208 290.4 171.628 289.369 170.597C288.337 169.565 287.757 168.166 287.757 166.707C287.761 166.48 287.776 166.254 287.804 166.028V166.044ZM287.804 151.016C287.777 150.796 287.761 150.575 287.757 150.353C287.757 148.894 288.337 147.495 289.369 146.464C290.4 145.432 291.799 144.852 293.258 144.852C294.717 144.852 296.116 145.432 297.148 146.464C298.179 147.495 298.759 148.894 298.759 150.353C298.755 150.575 298.74 150.796 298.712 151.016C298.74 151.239 298.755 151.463 298.759 151.687C298.759 153.146 298.179 154.545 297.148 155.577C296.116 156.609 294.717 157.188 293.258 157.188C291.799 157.188 290.4 156.609 289.369 155.577C288.337 154.545 287.757 153.146 287.757 151.687C287.761 151.463 287.777 151.239 287.804 151.016Z" fill="white" stroke="#263238" stroke-linecap="round" stroke-linejoin="round"/>
<path d="M302.145 191.488C302.145 191.941 302.056 192.391 301.882 192.809C301.708 193.228 301.453 193.609 301.132 193.929C300.811 194.25 300.43 194.503 300.011 194.676C299.592 194.849 299.142 194.938 298.689 194.937H287.851C287.397 194.938 286.948 194.849 286.529 194.676C286.11 194.503 285.728 194.25 285.407 193.929C285.086 193.609 284.832 193.228 284.658 192.809C284.484 192.391 284.395 191.941 284.395 191.488V191.394H302.145V191.488Z" fill="white" stroke="#263238" stroke-linecap="round" stroke-linejoin="round"/>
<path d="M293.259 155.885C294.604 155.894 295.905 155.406 296.913 154.515C297.921 153.624 298.565 152.392 298.72 151.055C298.748 151.278 298.763 151.502 298.767 151.726C298.767 153.185 298.188 154.584 297.156 155.616C296.124 156.647 294.725 157.227 293.266 157.227C291.807 157.227 290.408 156.647 289.377 155.616C288.345 154.584 287.766 153.185 287.766 151.726C287.769 151.502 287.785 151.278 287.812 151.055C287.968 152.389 288.609 153.619 289.614 154.51C290.618 155.4 291.916 155.89 293.259 155.885Z" fill="white" stroke="#263238" stroke-linecap="round" stroke-linejoin="round"/>
<path d="M293.259 144.852C293.979 144.847 294.694 144.985 295.361 145.257C296.028 145.529 296.635 145.93 297.146 146.438C297.657 146.946 298.063 147.55 298.34 148.215C298.617 148.88 298.759 149.594 298.759 150.314C298.756 150.536 298.74 150.757 298.713 150.977C298.713 152.426 298.137 153.815 297.113 154.839C296.089 155.864 294.699 156.439 293.251 156.439C291.802 156.439 290.413 155.864 289.389 154.839C288.364 153.815 287.789 152.426 287.789 150.977C287.761 150.757 287.746 150.536 287.742 150.314C287.742 149.592 287.885 148.877 288.163 148.211C288.441 147.545 288.848 146.94 289.361 146.433C289.874 145.925 290.483 145.524 291.152 145.252C291.821 144.981 292.537 144.845 293.259 144.852Z" fill="#2874F0" stroke="#263238" stroke-linecap="round" stroke-linejoin="round"/>
<path d="M293.259 170.874C294.604 170.883 295.905 170.395 296.913 169.504C297.921 168.612 298.565 167.38 298.72 166.044C298.748 166.264 298.763 166.485 298.767 166.707C298.767 168.166 298.188 169.565 297.156 170.597C296.124 171.628 294.725 172.208 293.266 172.208C291.807 172.208 290.408 171.628 289.377 170.597C288.345 169.565 287.766 168.166 287.766 166.707C287.769 166.485 287.785 166.264 287.812 166.044C287.968 167.378 288.609 168.607 289.614 169.498C290.618 170.389 291.916 170.879 293.259 170.874Z" fill="white" stroke="#263238" stroke-linecap="round" stroke-linejoin="round"/>
<path d="M293.259 159.872C294.711 159.872 296.104 160.446 297.134 161.47C298.165 162.493 298.749 163.882 298.759 165.334C298.755 165.558 298.74 165.782 298.713 166.005C298.713 167.454 298.137 168.843 297.113 169.867C296.089 170.891 294.699 171.467 293.251 171.467C291.802 171.467 290.413 170.891 289.389 169.867C288.364 168.843 287.789 167.454 287.789 166.005C287.762 165.782 287.746 165.558 287.742 165.334C287.752 163.879 288.339 162.488 289.373 161.464C290.406 160.441 291.804 159.868 293.259 159.872Z" fill="#999999" stroke="#263238" stroke-linecap="round" stroke-linejoin="round"/>
<path d="M293.259 185.894C294.604 185.903 295.905 185.415 296.913 184.524C297.921 183.632 298.565 182.4 298.72 181.064C298.748 181.284 298.763 181.505 298.767 181.727C298.767 183.186 298.188 184.585 297.156 185.617C296.124 186.648 294.725 187.228 293.266 187.228C291.807 187.228 290.408 186.648 289.377 185.617C288.345 184.585 287.766 183.186 287.766 181.727C287.769 181.505 287.785 181.284 287.812 181.064C287.968 182.398 288.609 183.627 289.614 184.518C290.618 185.409 291.916 185.899 293.259 185.894Z" fill="white" stroke="#263238" stroke-linecap="round" stroke-linejoin="round"/>
<path d="M293.259 174.9C293.979 174.895 294.694 175.032 295.361 175.304C296.028 175.577 296.635 175.978 297.146 176.486C297.657 176.993 298.063 177.597 298.34 178.263C298.617 178.928 298.759 179.641 298.759 180.362C298.756 180.586 298.74 180.81 298.713 181.033C298.713 182.481 298.137 183.87 297.113 184.895C296.089 185.919 294.699 186.494 293.251 186.494C291.802 186.494 290.413 185.919 289.389 184.895C288.364 183.87 287.789 182.481 287.789 181.033C287.761 180.81 287.746 180.586 287.742 180.362C287.742 179.64 287.885 178.925 288.163 178.259C288.441 177.593 288.848 176.988 289.361 176.48C289.874 175.972 290.483 175.571 291.152 175.3C291.821 175.029 292.537 174.893 293.259 174.9Z" fill="#263238" stroke="#263238" stroke-linecap="round" stroke-linejoin="round"/>
<path d="M155.958 217.759L161.264 241.783C162.83 248.864 165.477 255.662 169.113 261.937L192.84 302.853L203.226 299.326C203.226 299.326 197.592 288.309 193.48 277.604C189.142 266.376 184.827 255.882 177.36 246.394L176.58 218.734L155.958 217.759Z" fill="white" stroke="#263238" stroke-linecap="round" stroke-linejoin="round"/>
<path d="M142.335 227.84C142.335 227.84 130.163 303.844 131.084 303.243C132.005 302.642 142.639 303.391 142.639 303.391L151.222 273.531C153.333 266.168 154.675 258.606 155.225 250.966L155.865 242.095L166.195 217.907L147.945 217.689C148.242 217.665 142.335 227.84 142.335 227.84Z" fill="white" stroke="#263238" stroke-linecap="round" stroke-linejoin="round"/>
<path d="M128.602 181.75V181.836C128.322 181.747 128.03 181.705 127.736 181.711C127.97 181.711 128.259 181.719 128.602 181.75Z" fill="#2874F0" stroke="#263238" stroke-linecap="round" stroke-linejoin="round"/>
<path d="M154.288 181.898C154.397 182.336 154.4 182.794 154.297 183.233C154.195 183.672 153.99 184.081 153.699 184.426C153.409 184.771 153.04 185.042 152.625 185.217C152.209 185.392 151.758 185.466 151.308 185.433C144.457 184.934 130.896 183.927 129.351 183.748C129.092 183.732 128.831 183.732 128.571 183.748C128.298 183.729 128.025 183.729 127.752 183.748C126.191 183.888 110.937 184.59 103.822 184.91C103.389 184.929 102.958 184.85 102.561 184.678C102.164 184.505 101.811 184.245 101.529 183.917C101.248 183.588 101.044 183.2 100.934 182.782C100.824 182.363 100.811 181.925 100.896 181.501L105.702 157.079C105.93 155.967 106.539 154.969 107.423 154.257C108.308 153.545 109.412 153.163 110.547 153.177L143.513 153.575C144.593 153.585 145.639 153.954 146.487 154.623C147.334 155.293 147.935 156.225 148.194 157.274L154.288 181.898Z" fill="#999999" stroke="#263238" stroke-linecap="round" stroke-linejoin="round"/>
<path d="M102.885 171.186L104.835 171.505C120.653 174.126 136.757 174.541 152.688 172.738V172.738" stroke="#263238" stroke-linecap="round" stroke-linejoin="round"/>
<path d="M117.843 155.776C121.229 165.919 126.02 179.425 127.338 180.346C127.561 180.525 127.834 180.628 128.119 180.642C128.735 180.642 129.094 179.956 129.328 179.386C132.449 171.708 135.552 164.036 138.636 156.369" stroke="#263238" stroke-linecap="round" stroke-linejoin="round"/>
<path d="M109.213 159.42C109.72 157.43 111.218 156.829 113.746 157.079" stroke="white" stroke-width="0.75" stroke-linecap="round" stroke-linejoin="round"/>
<path d="M105.327 175.969C106.305 171.49 107.278 167.016 108.245 162.548C108.292 162.33 108.347 162.111 108.394 161.885" stroke="white" stroke-width="0.75" stroke-linecap="round" stroke-linejoin="round"/>
<path d="M143.045 169.539C142.444 175.188 143.045 181.984 144.028 188.148C146.137 201.256 145.564 214.656 142.343 227.535L144.738 228.245C155.311 231.374 166.537 231.554 177.204 228.768C175.683 215.917 176.346 209.051 181.948 197.386C183.166 194.843 185.42 186.003 185.459 183.529C185.639 172.489 182.861 169.898 182.861 169.898C182.861 169.898 144.785 153.201 143.045 169.539Z" fill="#263238" stroke="#263238" stroke-linecap="round" stroke-linejoin="round"/>
<path d="M131.083 303.243C131.083 303.243 126.901 321.751 125.988 321.743C125.075 321.735 114.932 330.427 116.157 330.138C117.382 329.85 130.756 330.326 130.756 330.326L139.682 321.298L141.094 330.451L145.658 330.505L145.838 315.595L141.414 307.324L142.678 303.423L131.083 303.243Z" fill="#263238" stroke="#263238" stroke-linecap="round" stroke-linejoin="round"/>
<path d="M192.817 302.673C192.817 302.673 199.8 320.315 199.059 320.822C198.7 321.056 198.965 323.163 197.147 325.269C195.056 327.712 190.905 330.232 190.905 330.232C201.244 332.791 205.535 327.4 205.535 327.4L210.076 312.715L216.404 319.48L220.204 316.952L211.941 304.53L209.405 303.945C208.107 303.644 206.885 303.077 205.817 302.279C204.749 301.481 203.859 300.47 203.202 299.311L192.817 302.673Z" fill="#263238" stroke="#263238" stroke-linecap="round" stroke-linejoin="round"/>
<path d="M125.029 133.874C122.969 136.48 122.47 136.901 119.723 140.748C118.444 135.84 117.344 135.832 112.428 121.507C112.428 121.507 104.493 113.915 104.571 113.158C104.906 109.92 105.398 104.068 105.398 104.068L113.364 103.288L113.622 113.58L115.393 110.459L116.173 106.901C116.173 106.901 116.236 105.028 117.484 104.895C118.732 104.763 118.132 109.975 118.631 111.551C120.035 115.991 117.117 120.196 117.117 120.196L125.029 133.874Z" fill="white" stroke="#263238" stroke-linecap="round" stroke-linejoin="round"/>
<path d="M117.476 95.8054V95.8912C117.476 95.9537 117.429 96.4686 117.398 96.6715C117.367 96.8744 117.32 97.2645 117.273 97.561C117.226 97.8575 117.164 98.2866 117.109 98.6533C117.109 98.6533 117.109 98.7236 117.109 98.7548C117.07 99.0513 117.015 99.34 116.976 99.6443C116.937 99.9485 116.898 100.245 116.836 100.542C116.774 100.838 116.766 101.002 116.727 101.236C116.664 101.618 116.625 102.016 116.563 102.399C116.5 102.781 116.446 103.179 116.383 103.561C116.337 103.826 116.313 104.099 116.274 104.341C116.274 104.482 116.103 105.41 115.931 106.588C115.556 108.999 115.026 112.456 115.026 112.456V112.55V112.698C115.016 112.821 114.964 112.937 114.878 113.026C114.692 113.175 114.484 113.294 114.261 113.377C114.053 113.462 113.836 113.525 113.614 113.564C113.364 113.626 113.114 113.665 112.833 113.704C112.263 113.794 111.686 113.841 111.109 113.845C110.75 113.845 110.391 113.845 110.048 113.845C109.861 113.845 109.658 113.845 109.47 113.798L108.916 113.704C108.526 113.643 108.142 113.547 107.769 113.416C107.435 113.32 107.123 113.161 106.849 112.948C106.81 112.948 106.779 112.885 106.779 112.831L106.638 111.785C106.638 111.496 106.568 111.215 106.529 110.927C106.474 110.498 106.427 110.076 106.373 109.647L106.256 108.75C106.209 108.352 106.154 107.97 106.108 107.556C106.108 107.291 106.045 107.033 106.006 106.776C106.006 106.698 106.006 106.596 106.006 106.479C105.967 106.159 105.92 105.754 105.889 105.52C105.858 105.285 105.624 103.405 105.476 102.149C105.398 101.532 105.335 101.049 105.319 100.932C105.273 100.542 105.218 100.151 105.171 99.7691C105.124 99.3868 105.062 98.9186 105.015 98.4973C105.015 98.3334 104.976 98.1774 104.953 98.0213C104.898 97.5844 104.836 97.1552 104.789 96.7261C104.789 96.453 104.727 96.1799 104.711 95.899C104.707 95.8706 104.707 95.8417 104.711 95.8132C104.706 95.7697 104.71 95.7255 104.723 95.6837C104.737 95.642 104.759 95.6037 104.789 95.5713L104.851 95.5167C104.959 95.4378 105.077 95.3747 105.202 95.3295C105.326 95.2762 105.454 95.2344 105.585 95.2046C106.153 95.0476 106.732 94.9328 107.317 94.8613C107.699 94.8145 108.097 94.7833 108.464 94.7521C108.994 94.7053 109.509 94.6819 110.024 94.6584C110.376 94.6584 110.727 94.6584 111.078 94.6584C111.624 94.6584 112.162 94.6584 112.708 94.6584H113.364L114.019 94.7131L114.8 94.7677L115.798 94.9003L116.165 94.9627C116.522 95.0341 116.874 95.1306 117.218 95.2514C117.262 95.2564 117.303 95.2756 117.335 95.3061C117.374 95.3311 117.409 95.3628 117.437 95.3997C117.47 95.4613 117.491 95.5289 117.497 95.5986C117.504 95.6683 117.497 95.7386 117.476 95.8054Z" fill="#2874F0"/>
<path d="M113.146 112.05C113.26 112.036 113.371 112.001 113.473 111.949L113.146 112.05Z" fill="#2874F0"/>
<path d="M108.09 111.902C108.668 112.088 109.27 112.19 109.877 112.206C110.415 112.229 110.955 112.216 111.492 112.167" fill="#2874F0"/>
<path d="M118.069 95.2514C118.049 95.3324 118.015 95.4092 117.967 95.4776C117.916 95.5598 117.847 95.63 117.767 95.6838C117.686 95.7376 117.595 95.7737 117.499 95.7897C117.502 95.6539 117.451 95.5224 117.359 95.423C117.333 95.3818 117.299 95.3471 117.257 95.3216C117.223 95.2943 117.183 95.2756 117.14 95.267C116.796 95.1487 116.444 95.0548 116.087 94.9861L115.72 94.9237L114.722 94.7832C114.48 94.7832 114.222 94.7442 113.941 94.7208L113.286 94.6818H112.63C112.084 94.6818 111.546 94.6818 111 94.6818C110.651 94.6818 110.3 94.6818 109.946 94.6818C109.424 94.6818 108.901 94.7286 108.386 94.7754C108.004 94.7754 107.606 94.8378 107.239 94.8847C106.654 94.9561 106.075 95.0709 105.507 95.228C105.377 95.2638 105.249 95.3082 105.124 95.3606C104.999 95.403 104.881 95.4635 104.773 95.5401C104.751 95.5589 104.73 95.5798 104.711 95.6025C104.681 95.6348 104.659 95.6731 104.645 95.7149C104.632 95.7566 104.628 95.8008 104.633 95.8444C104.629 95.8728 104.629 95.9017 104.633 95.9302H104.578C104.493 95.9238 104.41 95.9004 104.333 95.8616C104.257 95.8228 104.189 95.7692 104.134 95.7039C104.077 95.6016 104.05 95.4853 104.056 95.3684C104.053 94.9006 104.089 94.4334 104.165 93.9717C104.174 93.8782 104.203 93.7878 104.251 93.7065C104.377 93.5272 104.562 93.3976 104.773 93.3397C105.029 93.2484 105.289 93.1728 105.554 93.1135L106.537 92.9028C107.091 92.8014 107.668 92.7312 108.23 92.6609C108.503 92.6609 108.776 92.6063 109.01 92.5985L109.892 92.5439C110.251 92.5439 110.61 92.5439 110.969 92.5049C111.104 92.5127 111.239 92.5127 111.374 92.5049C111.624 92.5049 111.858 92.5049 112.108 92.5049C112.357 92.5049 112.459 92.5049 112.63 92.5049C113.138 92.5049 113.645 92.5751 114.152 92.6375C114.659 92.6999 114.971 92.739 115.385 92.817L116.087 92.9496L116.961 93.1603C117.092 93.1995 117.22 93.249 117.343 93.3085L117.593 93.4178C117.683 93.4626 117.76 93.5287 117.819 93.6103C117.877 93.6918 117.915 93.7865 117.928 93.8859C118.006 94.1122 118.053 95.0875 118.069 95.2514Z" fill="#2874F0"/>
<path d="M117.391 93.2074C117.394 93.2385 117.394 93.27 117.391 93.3011H117.351C117.228 93.2416 117.1 93.192 116.969 93.1528L116.095 92.9421L115.393 92.8095C114.98 92.7315 114.574 92.6769 114.16 92.63C113.747 92.5832 113.146 92.513 112.639 92.4974C112.467 92.4974 112.288 92.4974 112.116 92.4974C111.944 92.4974 111.632 92.4974 111.383 92.4974C111.247 92.5052 111.112 92.5052 110.977 92.4974C110.618 92.4974 110.259 92.5364 109.9 92.5364L109.018 92.591C108.753 92.591 108.48 92.591 108.238 92.6535C107.676 92.7237 107.099 92.7939 106.545 92.8953L105.562 93.106C105.297 93.1653 105.037 93.2409 104.782 93.3323C104.779 93.2499 104.792 93.1677 104.821 93.0904C104.883 92.6144 104.93 92.0371 105 91.5299C105.006 91.4753 105.024 91.4226 105.052 91.3755C105.081 91.3284 105.119 91.2879 105.164 91.2568C105.317 91.1322 105.484 91.0273 105.663 90.9447C106.038 90.7829 106.424 90.6473 106.818 90.539C107.2 90.4453 107.598 90.3595 107.965 90.2893C108.191 90.2503 108.41 90.2191 108.636 90.1957L109.128 90.1332C109.268 90.1332 109.409 90.1332 109.541 90.1332L110.197 90.0864C110.392 90.0864 110.595 90.0864 110.797 90.0864C111.172 90.0864 111.578 90.0864 111.913 90.0864C112.249 90.0864 112.693 90.1566 113.044 90.1957L113.676 90.2815C113.939 90.3059 114.2 90.3476 114.457 90.4063C115.019 90.514 115.572 90.6653 116.111 90.8589C116.451 90.971 116.772 91.1341 117.063 91.3426C117.128 91.38 117.184 91.4305 117.229 91.491C117.273 91.5515 117.304 91.6205 117.32 91.6937C117.305 92.1385 117.336 92.7237 117.391 93.2074Z" fill="#2874F0"/>
<path d="M117.476 95.8054V95.8912C117.476 95.9537 117.429 96.4686 117.398 96.6715C117.367 96.8744 117.32 97.2645 117.273 97.561C117.226 97.8575 117.164 98.2866 117.109 98.6533C117.109 98.6533 117.109 98.7236 117.109 98.7548C117.07 99.0513 117.015 99.34 116.976 99.6443C116.937 99.9485 116.898 100.245 116.836 100.542C116.774 100.838 116.766 101.002 116.727 101.236C116.664 101.618 116.625 102.016 116.563 102.399C116.5 102.781 116.446 103.179 116.383 103.561C116.337 103.826 116.313 104.099 116.274 104.341C116.274 104.482 116.103 105.41 115.931 106.588C115.556 108.999 115.026 112.456 115.026 112.456V112.55V112.698C115.016 112.821 114.964 112.937 114.878 113.026C114.692 113.175 114.484 113.294 114.261 113.377C114.053 113.462 113.836 113.525 113.614 113.564C113.364 113.626 113.114 113.665 112.833 113.704C112.263 113.794 111.686 113.841 111.109 113.845C110.75 113.845 110.391 113.845 110.048 113.845C109.861 113.845 109.658 113.845 109.47 113.798L108.916 113.704C108.526 113.643 108.142 113.547 107.769 113.416C107.435 113.32 107.123 113.161 106.849 112.948C106.81 112.948 106.779 112.885 106.779 112.831L106.638 111.785C106.638 111.496 106.568 111.215 106.529 110.927C106.474 110.498 106.427 110.076 106.373 109.647L106.256 108.75C106.209 108.352 106.154 107.97 106.108 107.556C106.108 107.291 106.045 107.033 106.006 106.776C106.006 106.698 106.006 106.596 106.006 106.479C105.967 106.159 105.92 105.754 105.889 105.52C105.858 105.285 105.624 103.405 105.476 102.149C105.398 101.532 105.335 101.049 105.319 100.932C105.273 100.542 105.218 100.151 105.171 99.7691C105.124 99.3868 105.062 98.9186 105.015 98.4973C105.015 98.3334 104.976 98.1774 104.953 98.0213C104.898 97.5844 104.836 97.1552 104.789 96.7261C104.789 96.453 104.727 96.1799 104.711 95.899C104.707 95.8706 104.707 95.8417 104.711 95.8132C104.706 95.7697 104.71 95.7255 104.723 95.6837C104.737 95.642 104.759 95.6037 104.789 95.5713L104.851 95.5167C104.959 95.4378 105.077 95.3747 105.202 95.3295C105.326 95.2762 105.454 95.2344 105.585 95.2046C106.153 95.0476 106.732 94.9328 107.317 94.8613C107.699 94.8145 108.097 94.7833 108.464 94.7521C108.994 94.7053 109.509 94.6819 110.024 94.6584C110.376 94.6584 110.727 94.6584 111.078 94.6584C111.624 94.6584 112.162 94.6584 112.708 94.6584H113.364L114.019 94.7131L114.8 94.7677L115.798 94.9003L116.165 94.9627C116.522 95.0341 116.874 95.1306 117.218 95.2514C117.262 95.2564 117.303 95.2756 117.335 95.3061C117.374 95.3311 117.409 95.3628 117.437 95.3997C117.47 95.4613 117.491 95.5289 117.497 95.5986C117.504 95.6683 117.497 95.7386 117.476 95.8054Z" fill="#2874F0" stroke="#263238" stroke-linecap="round" stroke-linejoin="round"/>
<path d="M113.146 112.05C113.26 112.036 113.371 112.001 113.473 111.949" stroke="#263238" stroke-linecap="round" stroke-linejoin="round"/>
<path d="M108.09 111.902C108.668 112.088 109.27 112.19 109.877 112.206C110.415 112.229 110.955 112.216 111.492 112.167" stroke="#263238" stroke-linecap="round" stroke-linejoin="round"/>
<path d="M118.069 95.2514C118.049 95.3324 118.015 95.4092 117.967 95.4776C117.916 95.5598 117.847 95.63 117.767 95.6838C117.686 95.7376 117.595 95.7737 117.499 95.7897C117.502 95.6539 117.451 95.5224 117.359 95.423C117.333 95.3818 117.299 95.3471 117.257 95.3216C117.223 95.2943 117.183 95.2756 117.14 95.267C116.796 95.1487 116.444 95.0548 116.087 94.9861L115.72 94.9237L114.722 94.7832C114.48 94.7832 114.222 94.7442 113.941 94.7208L113.286 94.6818H112.63C112.084 94.6818 111.546 94.6818 111 94.6818C110.651 94.6818 110.3 94.6818 109.946 94.6818C109.424 94.6818 108.901 94.7286 108.386 94.7754C108.004 94.7754 107.606 94.8378 107.239 94.8847C106.654 94.9561 106.075 95.0709 105.507 95.228C105.377 95.2638 105.249 95.3082 105.124 95.3606C104.999 95.403 104.881 95.4635 104.773 95.5401C104.751 95.5589 104.73 95.5798 104.711 95.6025C104.681 95.6348 104.659 95.6731 104.645 95.7149C104.632 95.7566 104.628 95.8008 104.633 95.8444C104.629 95.8728 104.629 95.9017 104.633 95.9302H104.578C104.493 95.9238 104.41 95.9004 104.333 95.8616C104.257 95.8228 104.189 95.7692 104.134 95.7039C104.077 95.6016 104.05 95.4853 104.056 95.3684C104.053 94.9006 104.089 94.4334 104.165 93.9717C104.174 93.8782 104.203 93.7878 104.251 93.7065C104.377 93.5272 104.562 93.3976 104.773 93.3397C105.029 93.2484 105.289 93.1728 105.554 93.1135L106.537 92.9028C107.091 92.8014 107.668 92.7312 108.23 92.6609C108.503 92.6609 108.776 92.6063 109.01 92.5985L109.892 92.5439C110.251 92.5439 110.61 92.5439 110.969 92.5049C111.104 92.5127 111.239 92.5127 111.374 92.5049C111.624 92.5049 111.858 92.5049 112.108 92.5049C112.357 92.5049 112.459 92.5049 112.63 92.5049C113.138 92.5049 113.645 92.5751 114.152 92.6375C114.659 92.6999 114.971 92.739 115.385 92.817L116.087 92.9496L116.961 93.1603C117.092 93.1995 117.22 93.249 117.343 93.3085L117.593 93.4178C117.683 93.4626 117.76 93.5287 117.819 93.6103C117.877 93.6918 117.915 93.7865 117.928 93.8859C118.006 94.1122 118.053 95.0875 118.069 95.2514Z" fill="white" stroke="#263238" stroke-linecap="round" stroke-linejoin="round"/>
<path d="M117.391 93.2074C117.394 93.2385 117.394 93.27 117.391 93.3011H117.351C117.228 93.2416 117.1 93.192 116.969 93.1528L116.095 92.9421L115.393 92.8095C114.98 92.7315 114.574 92.6769 114.16 92.63C113.747 92.5832 113.146 92.513 112.639 92.4974C112.467 92.4974 112.288 92.4974 112.116 92.4974C111.944 92.4974 111.632 92.4974 111.383 92.4974C111.247 92.5052 111.112 92.5052 110.977 92.4974C110.618 92.4974 110.259 92.5364 109.9 92.5364L109.018 92.591C108.753 92.591 108.48 92.591 108.238 92.6535C107.676 92.7237 107.099 92.7939 106.545 92.8953L105.562 93.106C105.297 93.1653 105.037 93.2409 104.782 93.3323C104.779 93.2499 104.792 93.1677 104.821 93.0904C104.883 92.6144 104.93 92.0371 105 91.5299C105.006 91.4753 105.024 91.4226 105.052 91.3755C105.081 91.3284 105.119 91.2879 105.164 91.2568C105.317 91.1322 105.484 91.0273 105.663 90.9447C106.038 90.7829 106.424 90.6473 106.818 90.539C107.2 90.4453 107.598 90.3595 107.965 90.2893C108.191 90.2503 108.41 90.2191 108.636 90.1957L109.128 90.1332C109.268 90.1332 109.409 90.1332 109.541 90.1332L110.197 90.0864C110.392 90.0864 110.595 90.0864 110.797 90.0864C111.172 90.0864 111.578 90.0864 111.913 90.0864C112.249 90.0864 112.693 90.1566 113.044 90.1957L113.676 90.2815C113.939 90.3059 114.2 90.3476 114.457 90.4063C115.019 90.514 115.572 90.6653 116.111 90.8589C116.451 90.971 116.772 91.1341 117.063 91.3426C117.128 91.38 117.184 91.4305 117.229 91.491C117.273 91.5515 117.304 91.6205 117.32 91.6937C117.305 92.1385 117.336 92.7237 117.391 93.2074Z" fill="white" stroke="#263238" stroke-linecap="round" stroke-linejoin="round"/>
<path d="M117.476 95.8054V95.8912C117.476 95.9537 117.429 96.4686 117.398 96.6715C117.367 96.8744 117.32 97.2645 117.273 97.561C117.226 97.8575 117.164 98.2866 117.109 98.6533C117.109 98.6533 117.109 98.7236 117.109 98.7548C117.07 99.0513 117.015 99.34 116.976 99.6443C116.937 99.9485 116.898 100.245 116.836 100.542C116.774 100.838 116.766 101.002 116.727 101.236C116.664 101.618 116.625 102.016 116.563 102.399C116.5 102.781 116.446 103.179 116.383 103.561C116.337 103.826 116.313 104.099 116.274 104.341C116.274 104.482 116.103 105.41 115.931 106.588C115.556 108.999 115.026 112.456 115.026 112.456V112.55V112.698C115.016 112.821 114.964 112.937 114.878 113.026C114.692 113.175 114.484 113.294 114.261 113.377C114.053 113.462 113.836 113.525 113.614 113.564C113.364 113.626 113.114 113.665 112.833 113.704C112.263 113.794 111.686 113.841 111.109 113.845C110.75 113.845 110.391 113.845 110.048 113.845C109.861 113.845 109.658 113.845 109.47 113.798L108.916 113.704C108.526 113.643 108.142 113.547 107.769 113.416C107.435 113.32 107.123 113.161 106.849 112.948C106.81 112.948 106.779 112.885 106.779 112.831L106.638 111.785C106.638 111.496 106.568 111.215 106.529 110.927C106.474 110.498 106.427 110.076 106.373 109.647L106.256 108.75C106.209 108.352 106.154 107.97 106.108 107.556C106.108 107.291 106.045 107.033 106.006 106.776C106.006 106.698 106.006 106.596 106.006 106.479C105.967 106.159 105.92 105.754 105.889 105.52C105.858 105.285 105.624 103.405 105.476 102.149C105.398 101.532 105.335 101.049 105.319 100.932C105.273 100.542 105.218 100.151 105.171 99.7691C105.124 99.3868 105.062 98.9186 105.015 98.4973C105.015 98.3334 104.976 98.1774 104.953 98.0213C104.898 97.5844 104.836 97.1552 104.789 96.7261C104.789 96.453 104.727 96.1799 104.711 95.899C104.707 95.8706 104.707 95.8417 104.711 95.8132C104.706 95.7697 104.71 95.7255 104.723 95.6837C104.737 95.642 104.759 95.6037 104.789 95.5713L104.851 95.5167C104.959 95.4378 105.077 95.3747 105.202 95.3295C105.326 95.2762 105.454 95.2344 105.585 95.2046C106.153 95.0476 106.732 94.9328 107.317 94.8613C107.699 94.8145 108.097 94.7833 108.464 94.7521C108.994 94.7053 109.509 94.6819 110.024 94.6584C110.376 94.6584 110.727 94.6584 111.078 94.6584C111.624 94.6584 112.162 94.6584 112.708 94.6584H113.364L114.019 94.7131L114.8 94.7677L115.798 94.9003L116.165 94.9627C116.522 95.0341 116.874 95.1306 117.218 95.2514C117.262 95.2564 117.303 95.2756 117.335 95.3061C117.374 95.3311 117.409 95.3628 117.437 95.3997C117.47 95.4613 117.491 95.5289 117.497 95.5986C117.504 95.6683 117.497 95.7386 117.476 95.8054V95.8054Z" stroke="#263238" stroke-linecap="round" stroke-linejoin="round"/>
<path d="M113.146 112.05C113.26 112.036 113.371 112.001 113.473 111.949" stroke="#263238" stroke-linecap="round" stroke-linejoin="round"/>
<path d="M108.09 111.902C108.668 112.088 109.27 112.19 109.877 112.206C110.415 112.229 110.955 112.216 111.492 112.167" stroke="#263238" stroke-linecap="round" stroke-linejoin="round"/>
<path d="M118.069 95.2514C118.049 95.3324 118.015 95.4092 117.967 95.4776C117.916 95.5598 117.847 95.63 117.767 95.6838C117.686 95.7376 117.595 95.7737 117.499 95.7897C117.502 95.6539 117.451 95.5224 117.359 95.423C117.333 95.3818 117.299 95.3471 117.257 95.3216C117.223 95.2943 117.183 95.2756 117.14 95.267C116.796 95.1487 116.444 95.0548 116.087 94.9861L115.72 94.9237L114.722 94.7832C114.48 94.7832 114.222 94.7442 113.941 94.7208L113.286 94.6818H112.63C112.084 94.6818 111.546 94.6818 111 94.6818C110.651 94.6818 110.3 94.6818 109.946 94.6818C109.424 94.6818 108.901 94.7286 108.386 94.7754C108.004 94.7754 107.606 94.8378 107.239 94.8847C106.654 94.9561 106.075 95.0709 105.507 95.228C105.377 95.2638 105.249 95.3082 105.124 95.3606C104.999 95.403 104.881 95.4635 104.773 95.5401C104.751 95.5589 104.73 95.5798 104.711 95.6025C104.681 95.6348 104.659 95.6731 104.645 95.7149C104.632 95.7566 104.628 95.8008 104.633 95.8444C104.629 95.8728 104.629 95.9017 104.633 95.9302H104.578C104.493 95.9238 104.41 95.9004 104.333 95.8616C104.257 95.8228 104.189 95.7692 104.134 95.7039V95.7039C104.077 95.6016 104.05 95.4853 104.056 95.3684C104.053 94.9006 104.089 94.4334 104.165 93.9717C104.174 93.8782 104.203 93.7878 104.251 93.7065C104.377 93.5272 104.562 93.3976 104.773 93.3397C105.029 93.2484 105.289 93.1728 105.554 93.1135L106.537 92.9028C107.091 92.8014 107.668 92.7312 108.23 92.6609C108.503 92.6609 108.776 92.6063 109.01 92.5985L109.892 92.5439C110.251 92.5439 110.61 92.5439 110.969 92.5049C111.104 92.5127 111.239 92.5127 111.374 92.5049C111.624 92.5049 111.858 92.5049 112.108 92.5049C112.357 92.5049 112.459 92.5049 112.63 92.5049C113.138 92.5049 113.645 92.5751 114.152 92.6375C114.659 92.6999 114.971 92.739 115.385 92.817L116.087 92.9496L116.961 93.1603C117.092 93.1995 117.22 93.249 117.343 93.3085L117.593 93.4178C117.683 93.4626 117.76 93.5287 117.819 93.6103C117.877 93.6918 117.915 93.7865 117.928 93.8859C118.006 94.1122 118.053 95.0875 118.069 95.2514Z" stroke="#263238" stroke-linecap="round" stroke-linejoin="round"/>
<path d="M117.391 93.2074C117.394 93.2385 117.394 93.27 117.391 93.3011H117.351C117.228 93.2416 117.1 93.192 116.969 93.1528L116.095 92.9421L115.393 92.8095C114.98 92.7315 114.574 92.6769 114.16 92.63C113.747 92.5832 113.146 92.513 112.639 92.4974C112.467 92.4974 112.288 92.4974 112.116 92.4974C111.944 92.4974 111.632 92.4974 111.383 92.4974C111.247 92.5052 111.112 92.5052 110.977 92.4974C110.618 92.4974 110.259 92.5364 109.9 92.5364L109.018 92.591C108.753 92.591 108.48 92.591 108.238 92.6535C107.676 92.7237 107.099 92.7939 106.545 92.8953L105.562 93.106C105.297 93.1653 105.037 93.2409 104.782 93.3323V93.3323C104.779 93.2499 104.792 93.1677 104.821 93.0904C104.883 92.6144 104.93 92.0371 105 91.5299C105.006 91.4753 105.024 91.4226 105.052 91.3755C105.081 91.3284 105.119 91.2879 105.164 91.2568C105.317 91.1322 105.484 91.0273 105.663 90.9447C106.038 90.7829 106.424 90.6473 106.818 90.539C107.2 90.4453 107.598 90.3595 107.965 90.2893C108.191 90.2503 108.41 90.2191 108.636 90.1957L109.128 90.1332C109.268 90.1332 109.409 90.1332 109.541 90.1332L110.197 90.0864C110.392 90.0864 110.595 90.0864 110.797 90.0864C111.172 90.0864 111.578 90.0864 111.913 90.0864C112.249 90.0864 112.693 90.1566 113.044 90.1957L113.676 90.2815C113.939 90.3059 114.2 90.3476 114.457 90.4063C115.019 90.514 115.572 90.6653 116.111 90.8589C116.451 90.971 116.772 91.1341 117.063 91.3426C117.128 91.38 117.184 91.4305 117.229 91.491C117.273 91.5515 117.304 91.6205 117.32 91.6937C117.305 92.1385 117.336 92.7237 117.391 93.2074Z" stroke="#263238" stroke-linecap="round" stroke-linejoin="round"/>
<path d="M116.227 106.604L105.585 106.479L104.562 98.4973L117.444 98.6534L116.227 106.604Z" fill="white" stroke="#263238" stroke-linecap="round" stroke-linejoin="round"/>
<path d="M114.885 112.792C114.885 112.792 114.885 112.792 114.885 112.839C114.307 113.362 113.89 114.039 113.684 114.791C113.478 115.543 113.492 116.338 113.723 117.083" stroke="#263238" stroke-linecap="round" stroke-linejoin="round"/>
<path d="M120.847 152.327C120.847 152.569 120.847 152.811 120.847 153.045C120.859 153.633 121.023 154.208 121.323 154.714C121.413 154.884 121.54 155.031 121.695 155.147C121.849 155.262 122.026 155.341 122.215 155.38C122.403 155.419 122.598 155.415 122.785 155.371C122.972 155.326 123.146 155.24 123.297 155.12C123.595 154.696 123.748 154.187 123.734 153.669C123.734 153.544 123.734 153.419 123.734 153.302C123.983 148.699 123.164 141.7 125.942 138.181C126.215 137.832 126.526 137.516 126.87 137.237C127.046 137.105 127.237 136.995 127.44 136.909C128.294 135.881 129.027 134.758 129.625 133.562C128.798 131.931 125.903 131.798 124.522 132.438C123.141 133.078 122.399 134.724 122.017 136.417C121.908 136.862 121.83 137.315 121.76 137.752C121.027 142.574 120.721 147.451 120.847 152.327Z" fill="#263238" stroke="#263238" stroke-linecap="round" stroke-linejoin="round"/>
<path d="M132.831 153.287C124.443 153.326 119.777 152.943 118.997 152.413C118.825 152.296 117.062 138.954 122.438 129.474C123.304 127.913 126.066 131.51 126.066 131.51C126.066 131.51 126.409 132.345 126.971 133.406C127.552 134.525 128.261 135.573 129.086 136.527C129.504 137.006 130 137.412 130.553 137.729C133.244 141.006 132.675 149.066 132.831 153.287Z" fill="#2874F0"/>
<path opacity="0.2" d="M125.528 135.349C123.796 139.819 122.032 144.54 122.782 149.276C123.26 147.195 123.991 145.18 124.958 143.276C125.2 145.007 125.981 146.618 127.19 147.879C127.057 146.514 126.917 145.149 126.784 143.783C126.73 143.245 126.831 142.496 127.377 142.449C127.531 142.46 127.68 142.504 127.815 142.578C127.949 142.652 128.066 142.754 128.157 142.878L131.52 146.335C131.498 144.614 131.279 142.902 130.865 141.232C130.442 139.549 129.457 138.062 128.072 137.018C127.466 138.771 127.578 140.693 128.384 142.363C127.551 140.758 127.148 138.965 127.213 137.159C126.539 137.79 126.101 138.632 125.973 139.546C126.082 138.259 126.191 136.964 126.293 135.645H125.575L125.746 136.379" fill="black"/>
<path d="M132.831 153.287C124.443 153.326 119.777 152.943 118.997 152.413C118.825 152.296 117.062 138.954 122.438 129.474C123.304 127.913 126.066 131.51 126.066 131.51C126.066 131.51 126.409 132.345 126.971 133.406C127.552 134.525 128.261 135.573 129.086 136.527C129.504 137.006 130 137.412 130.553 137.729C133.244 141.006 132.675 149.066 132.831 153.287Z" stroke="#263238" stroke-linecap="round" stroke-linejoin="round"/>
<path d="M157.682 116.037C157.682 116.037 147.336 150.485 136.568 152.21C136.085 152.288 133.76 153.286 132.823 153.286C132.675 149.065 133.245 141.005 130.545 137.72C131.786 138.407 133.174 138.235 134.509 136.199C135.698 134.151 136.549 131.925 137.029 129.606C141.507 111.707 145.549 104.872 146.876 104.177C160.358 97.1395 157.682 116.037 157.682 116.037Z" fill="#2874F0"/>
<path opacity="0.2" d="M137.364 137.291L136.311 136.948L138.964 142.73L136.451 140.717L137.505 145.398L135.819 142.207C135.819 145.546 135.806 148.888 135.78 152.233C137.184 152.084 138.538 151.625 139.744 150.891C140.891 150.111 141.679 148.55 141.203 147.247C142.568 147.083 143.45 145.609 143.489 144.236C143.406 142.859 143.062 141.512 142.475 140.264C141.132 136.564 140.548 132.631 140.758 128.701C140.953 124.87 142.662 121.561 143.177 117.902C139.938 123.901 137.96 130.5 137.364 137.291Z" fill="black"/>
<path d="M157.682 116.037C157.682 116.037 147.336 150.485 136.568 152.21C136.085 152.288 133.76 153.286 132.823 153.286C132.675 149.065 133.245 141.005 130.545 137.72C131.786 138.407 133.174 138.235 134.509 136.199C135.698 134.151 136.549 131.925 137.029 129.606C141.507 111.707 145.549 104.872 146.876 104.177C160.358 97.1395 157.682 116.037 157.682 116.037Z" stroke="#263238" stroke-linecap="round" stroke-linejoin="round"/>
<path d="M135.344 152.498C135.344 152.74 135.344 152.982 135.297 153.216C135.269 153.805 135.092 154.377 134.782 154.878C134.687 155.045 134.557 155.19 134.4 155.301C134.243 155.412 134.064 155.488 133.875 155.522C133.686 155.556 133.492 155.548 133.306 155.499C133.12 155.45 132.948 155.36 132.8 155.237C132.508 154.806 132.365 154.29 132.394 153.77C132.394 153.645 132.394 153.528 132.394 153.403C132.254 148.8 133.237 141.817 130.545 138.235C130.283 137.878 129.979 137.553 129.64 137.268C129.472 137.131 129.285 137.018 129.086 136.932C128.259 135.879 127.549 134.739 126.972 133.53C127.846 131.915 130.74 131.861 132.106 132.532C133.471 133.203 134.166 134.873 134.517 136.566C134.61 137.018 134.673 137.471 134.735 137.908C135.367 142.744 135.571 147.626 135.344 152.498Z" fill="#263238" stroke="#263238" stroke-linecap="round" stroke-linejoin="round"/>
<path d="M180.427 102.211L165.15 97.1943L146.907 104.217L142.772 118.62C140.697 125.86 140.611 133.525 142.522 140.81L145.129 150.735C145.129 150.735 142.881 168.119 143.076 169.57C143.272 171.022 182.869 169.929 182.869 169.929L178.016 146.218C178.016 146.218 184.711 117.965 183.782 106.464C183.703 105.504 183.342 104.588 182.746 103.832C182.149 103.075 181.342 102.512 180.427 102.211Z" fill="#2874F0"/>
<path opacity="0.2" d="M168.216 139.351L165.992 144.423C167.566 143.39 169.236 142.512 170.978 141.801C171.422 141.57 171.926 141.483 172.422 141.552C172.704 141.64 172.957 141.802 173.157 142.019C173.357 142.237 173.496 142.504 173.561 142.792C173.683 143.372 173.704 143.969 173.623 144.556C173.623 144.602 162.91 146.327 162.247 145.617C160.047 143.245 166.788 139.968 168.216 139.351Z" fill="black"/>
<path opacity="0.2" d="M171.064 113.533C170.336 115.873 170.071 118.332 170.284 120.773L168.552 115.842H168.107C167.392 118.603 167.366 121.496 168.031 124.269C168.697 127.042 170.033 129.608 171.922 131.744C171.558 126.064 171.189 120.383 170.814 114.703H170.471" fill="black"/>
<path opacity="0.2" d="M147.063 127.624C148.745 128.658 150.219 129.997 151.409 131.572C151.822 131.982 152.095 132.512 152.19 133.086C152.283 134.264 150.933 135.029 149.763 135.2C148.746 135.342 147.712 135.277 146.721 135.008C145.73 134.74 144.804 134.275 143.997 133.64C140.002 130.441 141.672 124.714 147.063 127.624Z" fill="black"/>
<path opacity="0.2" d="M160.975 127.624C167.576 131.736 170.167 130.308 170.167 130.308C170.574 130.722 170.846 131.25 170.947 131.822C171.033 133.008 169.691 133.772 168.512 133.944C166.492 134.233 159.501 134.919 157.901 133.647C153.898 130.441 155.771 124.378 160.975 127.624Z" fill="black"/>
<path opacity="0.2" d="M164.471 171.49H158.229C157.644 171.49 156.154 167.955 155.889 167.425C155.22 165.918 154.697 164.35 154.328 162.743C153.688 159.934 153.064 155.971 154.063 153.208C155.171 153.856 155.413 155.978 155.842 157.11C157.823 162.386 160.747 167.259 164.471 171.49Z" fill="black"/>
<path opacity="0.2" d="M182.331 170.709C183.173 169.438 181.917 165.334 181.917 165.334C181.917 165.334 179.358 164.694 177.868 164.389C176.377 164.085 174.832 164.046 173.326 163.796C168.941 163.086 162.614 160.168 159.812 156.595C163.121 159.716 166.195 162.837 170.088 165.256C172.03 166.473 174.056 167.55 176.151 168.478C176.728 168.696 182.073 171.068 182.331 170.709Z" fill="black"/>
<path d="M180.427 102.211L165.15 97.1943L146.907 104.217L142.772 118.62C140.697 125.86 140.611 133.525 142.522 140.81L145.129 150.735C145.129 150.735 142.881 168.119 143.076 169.57C143.272 171.022 182.869 169.929 182.869 169.929L178.016 146.218C178.016 146.218 184.711 117.965 183.782 106.464C183.703 105.504 183.342 104.588 182.746 103.832C182.149 103.075 181.342 102.512 180.427 102.211Z" stroke="#263238" stroke-linecap="round" stroke-linejoin="round"/>
<path d="M143.154 145.094L141.594 147.801L143.107 149.463L141.547 153.091L144.371 156.649C146.714 154.49 149.654 153.087 152.806 152.623C158.19 151.773 180.177 156.665 180.177 156.665L180.247 150.462L180.333 143.838L152.244 147.005L143.154 145.094Z" fill="#2874F0"/>
<path opacity="0.2" d="M171.416 148.199C169.973 148.753 168.435 149.018 166.89 148.98L156.544 149.339C164.456 151.039 173.709 153.333 181.091 156.688C180.357 156.353 178.797 153.895 178.461 153.154C177.829 151.75 176.276 149.971 175.738 148.527C175.434 147.747 175.176 145.406 174.029 145.703C173.288 145.866 172.367 147.77 171.416 148.199Z" fill="black"/>
<path opacity="0.2" d="M150.777 148.699C149.607 149.12 143.349 146.694 142.897 148.98C142.584 150.525 149.763 149.058 150.777 148.699Z" fill="black"/>
<path opacity="0.2" d="M141.672 153.123L143.974 155.518C144.129 155.74 144.358 155.898 144.621 155.964C144.883 156.03 145.16 155.999 145.401 155.877C146.431 155.694 147.407 155.284 148.257 154.676C148.959 154.09 149.755 152.881 149.373 152.015C146.767 152.584 144.403 153.287 141.672 153.123Z" fill="black"/>
<path d="M143.154 145.094L141.594 147.801L143.107 149.463L141.547 153.091L144.371 156.649C146.714 154.49 149.654 153.087 152.806 152.623C158.19 151.773 180.177 156.665 180.177 156.665L180.247 150.462L180.333 143.838L152.244 147.005L143.154 145.094Z" stroke="#263238" stroke-linecap="round" stroke-linejoin="round"/>
<path d="M184.281 105.543C183.832 104.595 183.119 103.797 182.228 103.243C181.337 102.69 180.305 102.405 179.257 102.422C176.736 102.492 173.615 103.655 172.07 108.422C169.23 117.215 175.543 148.316 175.543 148.316L185.686 166.691L196.289 166.824C196.289 166.824 205.793 160.582 204.974 153.24C204.287 146.998 188.752 114.726 184.281 105.543Z" fill="#2874F0"/>
<path opacity="0.2" d="M182.526 146.951C181.091 146.951 179.405 147.185 178.727 148.457C178.196 149.479 178.57 150.72 178.961 151.804C180.264 155.456 181.972 159.529 185.616 160.863C187.606 161.596 189.853 161.339 191.858 162.025C193.504 162.587 194.979 163.773 196.743 163.687C199.629 163.547 201.424 160.176 202.61 157.952C204.171 155.05 202.672 153.684 200.16 152.116C194.871 148.802 188.768 147.015 182.526 146.951Z" fill="black"/>
<path opacity="0.2" d="M183.142 127.64C184.586 128.685 188.604 129.856 190.289 129.286C189.673 121.023 185.709 125.158 179.194 113.751C178.515 112.573 175.597 109.507 173.974 110.934C172.726 112.035 174.466 115.834 174.965 117.091C176.634 121.312 179.47 124.971 183.142 127.64Z" fill="black"/>
<path d="M184.281 105.543C183.832 104.595 183.119 103.797 182.228 103.243C181.337 102.69 180.305 102.405 179.257 102.422C176.736 102.492 173.615 103.655 172.07 108.422C169.23 117.215 175.543 148.316 175.543 148.316L185.686 166.691L196.289 166.824C196.289 166.824 205.793 160.582 204.974 153.24C204.287 146.998 188.752 114.726 184.281 105.543Z" stroke="#263238" stroke-linecap="round" stroke-linejoin="round"/>
<path d="M203.436 200.944C203.46 201.529 203.347 202.112 203.106 202.646C202.865 203.18 202.502 203.65 202.047 204.018C202.047 204.018 199.184 205.501 198.045 206.055C196.906 206.609 192.162 200.047 192.162 200.047L193.948 190.996L185.709 166.738C190.71 158.881 196.937 165.802 196.937 165.802L199.278 189.865L202.399 196.107C203.007 197.652 203.357 199.286 203.436 200.944Z" fill="white" stroke="#263238" stroke-linecap="round" stroke-linejoin="round"/>
<path d="M150.832 52.8449C148.101 53.3832 145.799 55.2324 143.809 57.1597C141.133 59.7044 138.883 62.6629 137.146 65.9219C134.805 70.2835 133.471 75.5814 135.336 80.1615C136.686 83.4541 139.557 85.9509 142.733 87.5582C145.908 89.1656 150.785 91.3035 154.257 92.1149C155.757 92.5721 157.333 92.7233 158.892 92.5597C160.106 92.2817 161.265 91.7988 162.317 91.1318C165.75 89.1968 167.701 85.7169 170.9 83.3683C172.802 82.1136 174.423 80.4768 175.659 78.562C177.743 74.8636 176.947 70.1352 174.98 66.3744C172.506 61.8826 168.875 58.135 164.463 55.5211C160.538 53.2428 157.308 51.5809 150.832 52.8449Z" fill="#263238" stroke="#263238" stroke-linecap="round" stroke-linejoin="round"/>
<path d="M163.979 81.6753C163.979 81.6753 163.261 90.6638 165.118 97.1945C165.118 97.1945 171.555 99.0905 171.516 100.105C163.783 108.848 157.748 118.956 153.719 129.91L153.196 131.33C153.196 131.33 148.694 113.104 149.03 104.022L153.337 100.12L153.298 103.803C153.625 100.217 153.47 96.6039 152.837 93.0592L152.588 91.8888L158.283 87.0824L163.979 81.6753Z" fill="white"/>
<path d="M153.001 93.886C159.555 97.1241 163.081 87.1993 163.682 82.9625C163.548 81.9774 163.486 80.9839 163.495 79.9897L157.963 84.3904L152.634 88.6037L153.001 93.886Z" fill="#263238" stroke="#263238" stroke-linecap="round" stroke-linejoin="round"/>
<path d="M163.979 81.6753C163.979 81.6753 163.261 90.6638 165.118 97.1945C165.118 97.1945 171.555 99.0905 171.516 100.105C163.783 108.848 157.748 118.956 153.719 129.91L153.196 131.33C153.196 131.33 148.694 113.104 149.03 104.022L153.337 100.12L153.298 103.803C153.625 100.217 153.47 96.6039 152.837 93.0592L152.588 91.8888L158.283 87.0824L163.979 81.6753Z" stroke="#263238" stroke-linecap="round" stroke-linejoin="round"/>
<path d="M142.273 84.1484L140.938 87.1914L142.632 90.7494L144.317 86.7935L142.273 84.1484Z" fill="#2874F0" stroke="#263238" stroke-linecap="round" stroke-linejoin="round"/>
<path d="M166.07 74.7386C166.07 74.7386 161.389 76.4941 158.72 71.4615C157.558 69.2768 155.209 64.7279 155.209 64.7279C154.499 66.4913 155.311 69.1988 155.311 69.1988C153.823 68.6936 152.275 68.3892 150.707 68.2937C149.654 66.4757 149.388 62.3794 149.388 62.3794C147.867 64.8528 148.257 68.4419 148.257 68.4419C145.815 68.6428 143.494 69.5909 141.609 71.1572C141.984 72.7723 142.101 75.2769 141.906 80.5202C141.648 87.3162 144.894 89.22 148.046 91.8027C151.199 94.3853 159.914 95.8054 163.082 82.5411C163.082 82.5411 169.425 80.2706 166.398 75.3004L166.07 74.7386Z" fill="white" stroke="#263238" stroke-linecap="round" stroke-linejoin="round"/>
<path d="M149.997 71.7033C154.593 70.8607 157.019 73.3263 157.019 73.3263" stroke="#263238" stroke-linecap="round" stroke-linejoin="round"/>
<path d="M142.787 73.654C143.299 73.1488 143.91 72.7544 144.581 72.4953C145.252 72.2362 145.97 72.1181 146.688 72.1481" stroke="#263238" stroke-linecap="round" stroke-linejoin="round"/>
<path d="M153.266 87.2226C154.694 86.4424 155.506 84.3357 155.506 84.3357L155.209 84.4917C153.351 85.4621 151.331 86.081 149.248 86.3175C149.728 86.8848 150.38 87.2801 151.106 87.4435C151.831 87.6068 152.589 87.5293 153.266 87.2226V87.2226Z" stroke="#263238" stroke-linecap="round" stroke-linejoin="round"/>
<path d="M153.68 73.6931C154.117 73.6462 154.553 74.3719 154.663 75.3082C154.772 76.2445 154.491 77.0481 154.062 77.1028C153.633 77.1574 153.188 76.4239 153.079 75.4876C152.97 74.5513 153.243 73.7399 153.68 73.6931Z" fill="#263238"/>
<path d="M146.096 76.2993C146.205 77.22 145.94 78.008 145.511 78.0549C145.081 78.1017 144.652 77.3916 144.551 76.4943C144.449 75.5971 144.715 74.7856 145.144 74.7388C145.573 74.692 145.971 75.3942 146.096 76.2993Z" fill="#263238"/>
<path d="M160.202 74.567C160.202 74.567 159.633 72.8895 160.311 72.0156" stroke="#263238" stroke-linecap="round" stroke-linejoin="round"/>
<path d="M147.305 74.7387L145.565 72.9519L137.403 73.896L137.63 75.8622L138.535 75.753C138.535 75.753 138.878 80.0054 141.149 81.1211C143.419 82.2369 148.132 80.5906 147.305 74.7387Z" fill="#263238"/>
<path d="M142.116 73.3264L137.435 73.8726L137.661 75.8388L138.566 75.7296C138.566 75.7296 138.909 79.982 141.18 81.0977C141.482 81.2377 141.802 81.3323 142.132 81.3786" stroke="white" stroke-width="0.75" stroke-linecap="round" stroke-linejoin="round"/>
<path d="M150.044 74.3952L151.324 72.2573L159.485 71.3132L159.711 73.2795L158.806 73.3809C158.806 73.3809 159.446 77.5943 157.488 79.2016C155.529 80.8089 150.575 80.3095 150.044 74.3952Z" fill="#263238"/>
<path d="M150.739 73.9334L146.98 74.3696L147.146 75.7957L150.905 75.3595L150.739 73.9334Z" fill="#263238" stroke="#263238" stroke-linecap="round" stroke-linejoin="round"/>
<path d="M143.911 75.0898L142.28 79.0691" stroke="white" stroke-width="0.75" stroke-linecap="round" stroke-linejoin="round"/>
<path d="M152.759 73.5605L151.644 76.2992" stroke="white" stroke-width="0.75" stroke-linecap="round" stroke-linejoin="round"/>
<path d="M157.175 73.6699L155.513 78.2344" stroke="white" stroke-width="0.75" stroke-linecap="round" stroke-linejoin="round"/>
<path d="M140.392 74.8713C140.283 75.16 140.166 75.4487 140.049 75.7374" stroke="white" stroke-width="0.75" stroke-linecap="round" stroke-linejoin="round"/>
<path d="M267.807 259.924L235.567 286.007L194.908 217.15L216.849 201.436L267.807 259.924Z" fill="white" stroke="#263238" stroke-linecap="round" stroke-linejoin="round"/>
<path d="M235.567 286.007L245.757 277.76L199.317 213.584L194.908 217.15L235.567 286.007Z" fill="white"/>
<path opacity="0.2" d="M199.316 213.623C199.316 213.623 238.407 277.549 239.25 277.994C240.092 278.439 245.757 277.799 245.757 277.799L199.316 213.623Z" fill="black"/>
<path opacity="0.2" d="M234.615 284.392L238.688 279.141L236.878 284.938L235.567 286.007L234.615 284.392Z" fill="black"/>
<path d="M235.567 286.007L245.757 277.76L199.317 213.584L194.908 217.15L235.567 286.007Z" stroke="#263238" stroke-linecap="round" stroke-linejoin="round"/>
<path d="M212.573 209.535C212.713 209.664 212.795 209.844 212.802 210.034C212.81 210.224 212.741 210.409 212.612 210.549C212.548 210.619 212.472 210.676 212.386 210.716C212.3 210.756 212.207 210.778 212.113 210.782C212.018 210.786 211.924 210.77 211.836 210.737C211.747 210.704 211.666 210.653 211.598 210.588C211.527 210.524 211.47 210.447 211.429 210.361C211.388 210.276 211.365 210.182 211.361 210.087C211.357 209.992 211.371 209.898 211.404 209.808C211.437 209.719 211.487 209.637 211.551 209.567C211.616 209.498 211.694 209.441 211.78 209.402C211.867 209.362 211.96 209.341 212.055 209.338C212.15 209.334 212.245 209.35 212.334 209.384C212.423 209.418 212.504 209.469 212.573 209.535Z" fill="white" stroke="#263238" stroke-linecap="round" stroke-linejoin="round"/>
<path d="M208.68 207.319C205.333 203.917 203.366 201.295 199.27 198.853C198.727 198.481 198.118 198.216 197.475 198.073C197.179 198.008 196.871 198.022 196.582 198.113C196.293 198.205 196.033 198.372 195.829 198.596C195.651 198.884 195.557 199.216 195.557 199.555C195.557 199.894 195.651 200.227 195.829 200.515L195.439 200.695C195.225 200.339 195.118 199.93 195.129 199.515C195.14 199.1 195.269 198.698 195.501 198.354C195.753 198.069 196.075 197.856 196.436 197.737C196.796 197.618 197.182 197.597 197.554 197.675C198.248 197.823 198.908 198.104 199.496 198.502C203.624 200.96 205.621 203.613 208.992 207.03L208.68 207.319Z" fill="white" stroke="#263238" stroke-linecap="round" stroke-linejoin="round"/>
<path d="M211.902 210.175C209.39 205.844 204.88 199.743 200.698 197.254C200.157 196.884 199.55 196.619 198.911 196.474C198.596 196.387 198.262 196.402 197.956 196.515C197.651 196.629 197.388 196.835 197.205 197.105C197.023 197.376 196.929 197.697 196.939 198.023C196.948 198.349 197.059 198.664 197.257 198.924L196.867 199.103C196.654 198.748 196.546 198.339 196.555 197.925C196.565 197.511 196.692 197.107 196.921 196.762C197.173 196.478 197.496 196.266 197.856 196.147C198.216 196.028 198.602 196.006 198.973 196.083C199.668 196.23 200.328 196.511 200.916 196.911C205.137 199.431 209.733 205.61 212.269 209.98L211.902 210.175Z" fill="white" stroke="#263238" stroke-linecap="round" stroke-linejoin="round"/>
<path d="M206.019 209.043C205.863 208.903 200.814 205.813 200.003 205.392L200.206 205.009C200.986 205.431 206.136 208.559 206.315 208.739L206.019 209.043Z" fill="white" stroke="#263238" stroke-linecap="round" stroke-linejoin="round"/>
<path d="M224.651 213.584L263.04 258.722" stroke="#263238" stroke-linecap="round" stroke-linejoin="round"/>
<path d="M220.329 208.505L222.264 210.783" stroke="#263238" stroke-linecap="round" stroke-linejoin="round"/>
<path d="M213.618 206.164L215.405 204.666C215.665 204.452 215.999 204.349 216.334 204.378C216.67 204.407 216.98 204.567 217.2 204.822L219.072 207.03" stroke="#263238" stroke-linecap="round" stroke-linejoin="round"/>
<path d="M199.207 195.717L197.061 196.864L195.454 198.596L195.781 201.069C195.812 201.301 195.775 201.536 195.673 201.747C195.572 201.958 195.412 202.134 195.212 202.255C194.962 202.406 194.664 202.461 194.377 202.408C194.089 202.354 193.831 202.197 193.651 201.966L192.13 200.047L193.355 193.805" fill="white"/>
<path d="M199.207 195.717L197.061 196.864L195.454 198.596L195.781 201.069C195.812 201.301 195.775 201.536 195.673 201.747C195.572 201.958 195.412 202.134 195.212 202.255V202.255C194.962 202.406 194.664 202.461 194.377 202.408C194.089 202.354 193.831 202.197 193.651 201.966L192.13 200.047L193.355 193.805" stroke="#263238" stroke-linecap="round" stroke-linejoin="round"/>
<path d="M197.865 202.676L199.535 201.935L200.081 199.353L198.076 198.814" fill="white"/>
<path d="M197.865 202.676L199.535 201.935L200.081 199.353L198.076 198.814" stroke="#263238" stroke-linecap="round" stroke-linejoin="round"/>
<path d="M196.094 200.453L197.366 198.689L198.879 198.963C198.862 199.756 198.636 200.531 198.224 201.21C197.905 201.879 197.785 202.627 197.881 203.363" fill="white"/>
<path d="M196.094 200.453L197.366 198.689L198.879 198.963C198.862 199.756 198.636 200.531 198.224 201.21C197.904 201.879 197.785 202.627 197.881 203.363" stroke="#263238" stroke-linecap="round" stroke-linejoin="round"/>
<path d="M199.839 201.92C200.233 202.093 200.637 202.245 201.048 202.372L199.839 201.92Z" fill="white"/>
<path d="M199.839 201.92C200.233 202.093 200.637 202.245 201.048 202.372" stroke="#263238" stroke-linecap="round" stroke-linejoin="round"/>
<path d="M149.7 104.7C149.029 104.029 151.963 106.378 154.311 106.409L149.7 104.7Z" fill="white"/>
<path d="M149.7 104.7C149.029 104.029 151.963 106.378 154.311 106.409" stroke="#263238" stroke-linecap="round" stroke-linejoin="round"/>
<path d="M159.087 105.949C160.239 105.66 161.362 105.266 162.442 104.771C165.596 103.576 168.628 102.079 171.493 100.3" fill="white"/>
<path d="M159.087 105.949C160.239 105.66 161.362 105.266 162.442 104.771C165.596 103.576 168.628 102.079 171.493 100.3" stroke="#263238" stroke-linecap="round" stroke-linejoin="round"/>
<path d="M196.312 158.655L189.711 165.287C189.711 165.287 175.191 165.654 167.435 162.119C166.491 161.612 165.609 161.089 164.79 160.559C157.932 156.244 154.842 151.859 154.842 151.859L154.062 150.134L155.365 148.34C155.365 148.34 155.544 151.18 167.497 156.759C171.578 158.67 186.419 160.824 186.419 160.824C189.922 160.239 194.307 159.49 196.312 158.655Z" fill="#2874F0"/>
<g opacity="0.2">
<path opacity="0.2" d="M171.656 162.486C176.071 163.625 180.546 164.516 185.061 165.154C186.412 165.492 187.829 165.463 189.165 165.068C189.793 164.791 190.376 164.423 190.897 163.976C192.651 162.6 194.266 161.055 195.719 159.365C193.073 160.099 190.373 160.621 187.644 160.925C182.42 161.627 177.16 162.033 171.89 162.142L171.656 162.486Z" fill="black"/>
</g>
<path d="M196.312 158.655L189.711 165.287C189.711 165.287 175.191 165.654 167.435 162.119C166.491 161.612 165.609 161.089 164.79 160.559C157.932 156.244 154.842 151.859 154.842 151.859L154.062 150.134L155.365 148.34C155.365 148.34 155.544 151.18 167.497 156.759C171.578 158.67 186.419 160.824 186.419 160.824C189.922 160.239 194.307 159.49 196.312 158.655Z" stroke="#263238" stroke-linecap="round" stroke-linejoin="round"/>
<path d="M152.189 147.544L151.253 149.034C150.24 150.643 149.563 152.44 149.263 154.317C148.963 156.195 149.045 158.113 149.505 159.958L154.358 179.402L164.33 182.265L153.898 162.369L154.046 150.142C154.023 149.575 153.835 149.028 153.505 148.566C153.175 148.105 152.718 147.75 152.189 147.544Z" fill="#2874F0"/>
<path opacity="0.2" d="M153.695 160.652L153.602 152.327C153.602 153.224 150.8 151.508 150.566 151.11C151.198 154.637 151.354 157.687 153.695 160.652Z" fill="black"/>
<path d="M152.189 147.544L151.253 149.034C150.24 150.643 149.563 152.44 149.263 154.317C148.963 156.195 149.045 158.113 149.505 159.958L154.358 179.402L164.33 182.265L153.898 162.369L154.046 150.142C154.023 149.575 153.835 149.028 153.505 148.566C153.175 148.105 152.718 147.75 152.189 147.544Z" stroke="#263238" stroke-linecap="round" stroke-linejoin="round"/>
<path d="M152.189 147.544C151.7 147.82 151.309 148.242 151.073 148.752C150.836 149.261 150.766 149.832 150.871 150.384C150.996 150.926 151.291 151.413 151.711 151.776C152.132 152.14 152.657 152.36 153.211 152.405C153.572 152.402 153.928 152.327 154.258 152.182C154.588 152.038 154.885 151.828 155.132 151.566C155.378 151.303 155.569 150.993 155.692 150.654C155.816 150.316 155.869 149.956 155.849 149.596C155.744 148.872 155.357 148.219 154.772 147.78C154.187 147.342 153.452 147.153 152.728 147.255L152.189 147.544Z" fill="#2874F0" stroke="#263238" stroke-linecap="round" stroke-linejoin="round"/>
<path d="M150.691 155.768L152.252 158.889C153.352 161.089 156.707 167.721 156.707 167.721" fill="#2874F0"/>
<path d="M150.691 155.768L152.252 158.889C153.352 161.089 156.707 167.721 156.707 167.721" stroke="#263238" stroke-linecap="round" stroke-linejoin="round"/>
<path d="M167.435 162.127C166.492 161.719 165.603 161.194 164.79 160.566C165.602 161.089 166.491 161.612 167.435 162.127Z" fill="#2874F0" stroke="#263238" stroke-linecap="round" stroke-linejoin="round"/>
<path d="M166.952 160.566C174.084 162.174 177.571 161.659 181.145 161.495C183.783 161.312 186.409 160.979 189.01 160.496C191.5 160.17 193.943 159.552 196.29 158.655" stroke="#263238" stroke-linecap="round" stroke-linejoin="round"/>
<path d="M145.643 60.5929L148.085 57.4329V59.7736L149.645 57.5421L150.504 58.3848L151.011 57.5343C150.992 57.7882 151.04 58.0425 151.149 58.2724C151.259 58.5022 151.426 58.6996 151.635 58.8451C152.095 59.0714 152.743 58.4238 152.368 58.0649C152.47 58.2474 152.634 58.388 152.829 58.4622C153.024 58.5364 153.24 58.5394 153.437 58.4706C153.63 58.3925 153.79 58.2486 153.887 58.0644C153.984 57.8802 154.013 57.6675 153.968 57.4641C154.334 58.0954 154.929 58.5618 155.63 58.7671C156.348 58.8763 157.151 58.0649 156.753 57.4641C157.536 58.188 158.559 58.5966 159.625 58.6111L157.487 56.4966C159.431 56.5485 161.354 56.9121 163.183 57.5733C164.102 57.9099 164.927 58.4616 165.59 59.1824C166.252 59.9032 166.732 60.7721 166.99 61.7165" stroke="#999999" stroke-width="0.75" stroke-linecap="round" stroke-linejoin="round"/>
<path d="M175.839 205.696C176.952 204.099 178.086 202.507 179.241 200.921" stroke="#999999" stroke-width="0.75" stroke-linecap="round" stroke-linejoin="round"/>
<path d="M160.92 230.399C164.715 223.166 168.882 216.134 173.404 209.332" stroke="#999999" stroke-width="0.75" stroke-linecap="round" stroke-linejoin="round"/>
<path d="M152.814 184.583C148.319 196.146 145.276 208.223 143.755 220.536" stroke="#999999" stroke-width="0.75" stroke-linecap="round" stroke-linejoin="round"/>
<path d="M177.391 209.075C177.391 209.075 175.831 213.585 176.822 222.378" stroke="#999999" stroke-width="0.75" stroke-linecap="round" stroke-linejoin="round"/>
<path d="M147.024 189.677C148.483 193.352 147.758 191.519 149.209 195.194" stroke="#999999" stroke-width="0.75" stroke-linecap="round" stroke-linejoin="round"/>
<path d="M126.519 137.104C125.396 140.968 125.636 145.1 127.197 148.808" stroke="#263238" stroke-linecap="round" stroke-linejoin="round"/>
<path d="M128.509 141.466C129.222 143.451 130.523 145.171 132.238 146.397" stroke="#263238" stroke-linecap="round" stroke-linejoin="round"/>
<path d="M134.431 136.995C137.027 138.929 138.792 141.776 139.37 144.961C139.401 145.062 139.411 145.168 139.401 145.272C139.39 145.377 139.358 145.478 139.307 145.57C139.065 145.874 138.574 145.672 138.285 145.422C137.749 144.954 137.317 144.379 137.017 143.734C136.718 143.089 136.557 142.388 136.545 141.677" stroke="#263238" stroke-linecap="round" stroke-linejoin="round"/>
<path d="M141.234 127.796C141.721 130.383 142.865 132.802 144.558 134.818" stroke="#263238" stroke-linecap="round" stroke-linejoin="round"/>
<path d="M169.121 122.03C169.832 125.203 170.985 128.26 172.546 131.112" stroke="#263238" stroke-linecap="round" stroke-linejoin="round"/>
<path d="M168.31 115.975C168.31 116.927 168.434 117.879 168.551 118.823" stroke="#263238" stroke-linecap="round" stroke-linejoin="round"/>
<path d="M160.382 145.57C161.953 143.638 163.792 141.941 165.844 140.53" stroke="#263238" stroke-linecap="round" stroke-linejoin="round"/>
<path d="M145.034 149.557L150.496 149.034" stroke="#263238" stroke-linecap="round" stroke-linejoin="round"/>
<path d="M155.896 148.574C161.357 148.308 166.889 148.285 172.382 148.496" stroke="#263238" stroke-linecap="round" stroke-linejoin="round"/>
<path d="M182.877 104.045C187.882 111.497 190.47 120.311 190.289 129.286" stroke="#263238" stroke-linecap="round" stroke-linejoin="round"/>
<path d="M183.859 148.082C190.46 147.954 196.916 150.017 202.219 153.95" stroke="#263238" stroke-linecap="round" stroke-linejoin="round"/>
<path d="M178.577 148.66C179.59 148.445 180.613 148.289 181.644 148.191" stroke="#263238" stroke-linecap="round" stroke-linejoin="round"/>
<path d="M155.107 121.023C153.737 124.227 153.049 127.682 153.086 131.166" stroke="#263238" stroke-linecap="round" stroke-linejoin="round"/>
<path d="M164.041 250.826C164.864 252.524 166.209 253.913 167.88 254.789L167.248 254.15" stroke="#263238" stroke-linecap="round" stroke-linejoin="round"/>
<path d="M141.024 239.816C140.397 243.019 140.667 246.332 141.805 249.39" stroke="#263238" stroke-linecap="round" stroke-linejoin="round"/>
<path d="M163.644 80.6843L162.31 83.7351L164.003 87.293L165.68 83.3372L163.644 80.6843Z" fill="#2874F0" stroke="#263238" stroke-linecap="round" stroke-linejoin="round"/>
<path d="M146.876 82.7908C146.275 82.7128 144.574 81.8857 144.449 80.7231C144.449 80.3798 144.668 80.0677 145.042 79.7946C145.782 79.2855 146.381 78.5967 146.782 77.7929C147.184 76.9891 147.374 76.0965 147.336 75.199C147.336 75.0663 147.336 74.9961 147.336 74.9961" stroke="#263238" stroke-linecap="round" stroke-linejoin="round"/>
<path d="M285.671 331.185C280.687 334.984 275.406 338.376 269.879 341.328C244.318 354.983 213.942 360.21 184.152 360.171C145.452 360.117 105.909 350.808 74.4023 331.208L285.671 331.185Z" fill="white" fill-opacity="0.37"/>
<path d="M1 330.349H322.573" stroke="white" stroke-opacity="0.5" stroke-width="1.5" stroke-linecap="round" stroke-linejoin="round"/>
<path d="M276.273 263.067C276.273 263.067 276.273 261.539 278.412 259.39C280.551 257.24 281.928 256.035 281.928 256.035C281.928 256.035 283 259.551 281.012 261.692C279.55 263.198 277.965 264.578 276.273 265.819V263.067Z" fill="#2874F0"/>
<path d="M279.38 272.614C279.38 272.614 279.38 271.086 281.518 268.937C283.657 266.787 285.037 265.573 285.037 265.573C285.037 265.573 286.107 269.089 284.118 271.231C282.656 272.736 281.072 274.117 279.38 275.358V272.614Z" fill="#2874F0"/>
<path d="M276.406 265.672C276.406 265.672 276.245 264.15 273.892 262.249C271.538 260.348 270.039 259.276 270.039 259.276C270.039 259.276 269.346 262.886 271.549 264.804C273.162 266.146 274.884 267.352 276.698 268.408L276.406 265.672Z" fill="#2874F0"/>
<path d="M280.161 276.948C280.161 276.948 279.841 275.451 277.298 273.808C274.755 272.164 273.157 271.262 273.157 271.262C273.157 271.262 272.846 274.922 275.239 276.6C276.983 277.767 278.823 278.785 280.738 279.643L280.161 276.948Z" fill="#2874F0"/>
<path d="M279.456 289.241C279.456 289.241 279.456 287.711 277.314 285.564C275.173 283.417 273.798 282.201 273.798 282.201C273.798 282.201 272.729 285.72 274.715 287.858C276.177 289.364 277.763 290.745 279.456 291.985V289.241Z" fill="#2874F0"/>
<path d="M279.504 292.243C279.504 292.243 279.286 290.729 281.103 288.308C282.919 285.887 284.104 284.478 284.104 284.478C284.104 284.478 285.662 287.807 283.999 290.209C282.766 291.907 281.393 293.498 279.895 294.967L279.504 292.243Z" fill="#2874F0"/>
<path d="M281.6 301.134C281.6 301.134 281.6 299.606 279.461 297.456C277.322 295.306 275.945 294.093 275.945 294.093C275.945 294.093 274.873 297.609 276.861 299.75C278.323 301.256 279.908 302.636 281.6 303.877V301.134Z" fill="#2874F0"/>
<path d="M280.172 309.195C280.172 309.195 280.559 307.719 279.04 305.105C277.521 302.491 276.494 300.961 276.494 300.961C276.494 300.961 274.568 304.092 275.948 306.667C276.982 308.493 278.167 310.229 279.49 311.857L280.172 309.195Z" fill="#2874F0"/>
<path d="M276.078 262.677C276.192 264.269 276.391 265.853 276.675 267.423C277.524 271.794 279.637 274.614 280.483 278.563C281.328 282.512 278.901 287.598 279.552 292.667C280.202 297.736 282.177 300.559 281.611 303.943C281.045 307.326 278.089 316.494 278.089 316.494" stroke="#263238" stroke-width="0.962217" stroke-linecap="round" stroke-linejoin="round"/>
<path d="M276.429 266.688L274.121 264.917" stroke="#263238" stroke-width="0.962217" stroke-linecap="round" stroke-linejoin="round"/>
<path d="M276.321 264.648L277.286 262.931" stroke="#263238" stroke-width="0.962217" stroke-linecap="round" stroke-linejoin="round"/>
<path d="M280.353 278.382C280.353 278.382 278.42 276.934 276.438 275.485" stroke="#263238" stroke-width="0.962217" stroke-linecap="round" stroke-linejoin="round"/>
<path d="M279.38 275.366C279.38 275.366 280.989 272.212 282.811 270.119" stroke="#263238" stroke-width="0.962217" stroke-linecap="round" stroke-linejoin="round"/>
<path d="M279.379 291.414C278.281 289.383 276.893 287.522 275.261 285.889" stroke="#263238" stroke-width="0.962217" stroke-linecap="round" stroke-linejoin="round"/>
<path d="M279.753 293.561C280.34 292.185 281.04 290.861 281.846 289.601C282.978 287.937 283.133 287.722 283.133 287.722" stroke="#263238" stroke-width="0.962217" stroke-linecap="round" stroke-linejoin="round"/>
<path d="M281.6 303.942C281.112 302.727 280.53 301.552 279.861 300.426C279.189 299.382 278.432 298.395 277.598 297.476" stroke="#263238" stroke-width="0.962217" stroke-linecap="round" stroke-linejoin="round"/>
<path d="M279.476 311.857C279.476 311.857 279.702 310.027 278.91 308.463C278.118 306.899 277.193 304.87 276.819 304.064" stroke="#263238" stroke-width="0.962217" stroke-linecap="round" stroke-linejoin="round"/>
<path d="M290.287 283.491C290.287 283.491 290.454 282.532 289.345 280.959C288.236 279.386 287.503 278.467 287.503 278.467C287.503 278.467 286.451 280.554 287.466 282.113C288.219 283.219 289.063 284.26 289.99 285.225L290.287 283.491Z" fill="#2874F0"/>
<path d="M287.302 289.131C287.302 289.131 287.469 288.172 286.36 286.6C285.251 285.027 284.519 284.107 284.519 284.107C284.519 284.107 283.467 286.198 284.482 287.754C285.234 288.86 286.078 289.901 287.005 290.865L287.302 289.131Z" fill="#2874F0"/>
<path d="M289.922 285.109C289.922 285.109 290.188 284.172 291.871 283.236C293.554 282.3 294.61 281.791 294.61 281.791C294.61 281.791 294.652 284.127 293.062 285.092C291.905 285.757 290.694 286.325 289.441 286.789L289.922 285.109Z" fill="#2874F0"/>
<path d="M286.344 291.773C286.344 291.773 286.706 290.871 288.48 290.116C290.253 289.36 291.354 288.964 291.354 288.964C291.354 288.964 291.15 291.295 289.47 292.076C288.249 292.618 286.985 293.057 285.69 293.389L286.344 291.773Z" fill="#2874F0"/>
<path d="M285.444 299.558C285.444 299.558 285.608 298.599 287.184 297.49C288.759 296.381 289.752 295.762 289.752 295.762C289.752 295.762 290.035 298.084 288.564 299.21C287.49 299.998 286.351 300.696 285.161 301.295L285.444 299.558Z" fill="#2874F0"/>
<path d="M285.104 301.436C285.104 301.436 285.404 300.511 284.539 298.794C283.673 297.077 283.07 296.067 283.07 296.067C283.07 296.067 281.732 297.985 282.505 299.671C283.094 300.87 283.782 302.018 284.561 303.103L285.104 301.436Z" fill="#2874F0"/>
<path d="M282.418 309.17C282.418 309.17 282.308 308.203 280.797 307.003C279.287 305.804 278.33 305.134 278.33 305.134C278.33 305.134 277.909 307.433 279.32 308.644C280.354 309.491 281.456 310.25 282.616 310.913L282.418 309.17Z" fill="#2874F0"/>
<path d="M282.814 306.783C282.814 306.783 282.981 305.824 284.556 304.715C286.132 303.606 287.125 302.986 287.125 302.986C287.125 302.986 287.408 305.309 285.937 306.435C284.856 307.22 283.712 307.913 282.517 308.508L282.814 306.783Z" fill="#2874F0"/>
<path d="M282.836 311.993C282.836 311.993 282.754 311.026 283.996 309.552C285.238 308.078 286.044 307.23 286.044 307.23C286.044 307.23 286.912 309.402 285.761 310.868C284.916 311.901 283.987 312.862 282.983 313.742L282.836 311.993Z" fill="#2874F0"/>
<path d="M290.451 283.267C290.212 284.253 289.917 285.225 289.569 286.178C288.564 288.828 286.932 290.367 285.973 292.752C285.014 295.137 285.973 298.588 285.026 301.699C284.078 304.811 282.525 306.361 282.511 308.545C282.497 310.729 283.36 316.796 283.36 316.796" stroke="#263238" stroke-width="0.962217" stroke-linecap="round" stroke-linejoin="round"/>
<path d="M289.798 285.745L291.436 284.885" stroke="#263238" stroke-width="0.962217" stroke-linecap="round" stroke-linejoin="round"/>
<path d="M290.087 284.478L289.668 283.295" stroke="#263238" stroke-width="0.962217" stroke-linecap="round" stroke-linejoin="round"/>
<path d="M286.072 292.65C286.072 292.65 287.441 291.954 288.842 291.261" stroke="#263238" stroke-width="0.962217" stroke-linecap="round" stroke-linejoin="round"/>
<path d="M287.006 290.865C286.604 289.594 286.073 288.368 285.422 287.205" stroke="#263238" stroke-width="0.962217" stroke-linecap="round" stroke-linejoin="round"/>
<path d="M285.264 300.93C286.176 299.776 287.251 298.76 288.455 297.915" stroke="#263238" stroke-width="0.962217" stroke-linecap="round" stroke-linejoin="round"/>
<path d="M284.794 302.234C284.577 301.306 284.282 300.398 283.914 299.518C283.388 298.353 283.312 298.2 283.312 298.2" stroke="#263238" stroke-width="0.962217" stroke-linecap="round" stroke-linejoin="round"/>
<path d="M282.584 310.203C282.584 310.203 281.498 308.87 280.822 308.372C280.418 308.072 280.04 307.739 279.69 307.377" stroke="#263238" stroke-width="0.962217" stroke-linecap="round" stroke-linejoin="round"/>
<path d="M282.511 308.545C282.948 307.836 283.44 307.162 283.982 306.528C284.514 305.946 285.094 305.41 285.716 304.924" stroke="#263238" stroke-width="0.962217" stroke-linecap="round" stroke-linejoin="round"/>
<path d="M282.983 313.741C283.039 313.002 283.291 312.291 283.713 311.682C284.386 310.794 285.181 309.614 285.504 309.15" stroke="#263238" stroke-width="0.962217" stroke-linecap="round" stroke-linejoin="round"/>
<path d="M276.497 329.452H284.963C285.141 329.452 285.31 329.382 285.436 329.257C285.561 329.131 285.631 328.962 285.631 328.785L287.73 315.738H273.73L275.827 328.785C275.827 328.872 275.844 328.959 275.878 329.041C275.911 329.122 275.961 329.196 276.023 329.258C276.085 329.32 276.159 329.369 276.241 329.402C276.322 329.435 276.409 329.452 276.497 329.452Z" fill="#263238" stroke="#263238" stroke-width="0.962217" stroke-linecap="round" stroke-linejoin="round"/>
<path d="M273.847 317.566H287.725C288.016 317.566 288.295 317.45 288.501 317.244C288.706 317.039 288.822 316.759 288.822 316.468C288.821 316.178 288.705 315.899 288.5 315.694C288.294 315.489 288.015 315.374 287.725 315.374H273.847C273.703 315.374 273.561 315.402 273.428 315.457C273.295 315.512 273.174 315.593 273.073 315.694C272.971 315.796 272.89 315.917 272.835 316.049C272.78 316.182 272.752 316.325 272.752 316.468C272.752 316.759 272.867 317.038 273.072 317.243C273.278 317.449 273.556 317.565 273.847 317.566Z" fill="#263238" stroke="#263238" stroke-width="0.962217" stroke-linecap="round" stroke-linejoin="round"/>
<path d="M287.181 317.614H277.103" stroke="white" stroke-width="0.962217" stroke-linecap="round" stroke-linejoin="round"/>
<path d="M276.155 317.614H274.494" stroke="white" stroke-width="0.962217" stroke-linecap="round" stroke-linejoin="round"/>
</svg>
