<svg width="21" height="20" viewBox="0 0 21 20" fill="none" xmlns="http://www.w3.org/2000/svg">
<path d="M19.3986 0.137939H1.83739C1.03271 0.137939 0.378906 0.776332 0.378906 1.56001V18.44C0.378906 19.2237 1.03271 19.8621 1.83739 19.8621H19.3986C20.2033 19.8621 20.8617 19.2237 20.8617 18.44V1.56001C20.8617 0.776332 20.2033 0.137939 19.3986 0.137939ZM6.56945 17.0443H3.53362V7.63135H6.57403V17.0443H6.56945ZM5.05154 6.34576C4.07769 6.34576 3.2913 5.58409 3.2913 4.65072C3.2913 3.71734 4.07769 2.95567 5.05154 2.95567C6.02081 2.95567 6.81177 3.71734 6.81177 4.65072C6.81177 5.58849 6.02538 6.34576 5.05154 6.34576ZM17.9493 17.0443H14.9134V12.4655C14.9134 11.3737 14.8906 9.96919 13.3361 9.96919C11.7542 9.96919 11.5118 11.1579 11.5118 12.3863V17.0443H8.476V7.63135H11.3884V8.91694H11.4295C11.8365 8.17729 12.8286 7.39801 14.3054 7.39801C17.3778 7.39801 17.9493 9.34841 17.9493 11.8844V17.0443Z" fill="#268AA9"/>
</svg>
