<svg width="20" height="20" viewBox="0 0 20 20" fill="none" xmlns="http://www.w3.org/2000/svg">
<path d="M17.8354 5.43397C17.8479 5.6331 17.8479 5.83227 17.8479 6.0314C17.8479 12.1051 13.7804 19.1034 6.34629 19.1034C4.05597 19.1034 1.92837 18.3495 0.138672 17.0409C0.464083 17.0835 0.776935 17.0978 1.11487 17.0978C3.00465 17.0978 4.74431 16.3724 6.13352 15.1349C4.35634 15.0922 2.86701 13.7693 2.35387 11.9486C2.6042 11.9913 2.85449 12.0197 3.11734 12.0197C3.48027 12.0197 3.84324 11.9628 4.18113 11.8633C2.32887 11.4365 0.939621 9.58742 0.939621 7.35423V7.29736C1.47776 7.63874 2.10358 7.8521 2.76685 7.88051C1.67801 7.0555 0.964662 5.64733 0.964662 4.05421C0.964662 3.20078 1.16487 2.41845 1.51532 1.73569C3.50527 4.52362 6.49646 6.34427 9.85054 6.54345C9.78797 6.20206 9.75041 5.8465 9.75041 5.49089C9.75041 2.95896 11.5526 0.896484 13.7929 0.896484C14.9568 0.896484 16.0081 1.45122 16.7465 2.34735C17.6601 2.14822 18.5362 1.76415 19.3122 1.23787C19.0117 2.3047 18.3735 3.20082 17.535 3.76975C18.3485 3.67023 19.1369 3.41414 19.8628 3.05857C19.3122 3.96888 18.6238 4.77962 17.8354 5.43397Z" fill="#53D1E2"/>
</svg>
