<svg width="20" height="21" viewBox="0 0 20 21" fill="none" xmlns="http://www.w3.org/2000/svg">
<path d="M16.9086 3.76265C15.0639 1.91351 12.6071 0.896484 9.99634 0.896484C4.60742 0.896484 0.222323 5.28158 0.222323 10.6705C0.222323 12.392 0.6714 14.0738 1.52553 15.5575L0.138672 20.6206L5.32066 19.2602C6.74714 20.0395 8.35413 20.4489 9.99194 20.4489H9.99634C15.3809 20.4489 19.8628 16.0638 19.8628 10.6749C19.8628 8.0641 18.7533 5.61179 16.9086 3.76265ZM9.99634 18.8023C8.53464 18.8023 7.10376 18.4105 5.85779 17.6708L5.56281 17.4947L2.48972 18.3004L3.30862 15.3021L3.1149 14.994C2.3004 13.6996 1.87334 12.207 1.87334 10.6705C1.87334 6.19294 5.51878 2.5475 10.0007 2.5475C12.1713 2.5475 14.2097 3.39282 15.7419 4.92937C17.274 6.46591 18.2162 8.50437 18.2118 10.6749C18.2118 15.1569 14.4739 18.8023 9.99634 18.8023ZM14.4519 12.7178C14.2097 12.5945 13.0078 12.0045 12.7833 11.9253C12.5587 11.8416 12.3958 11.802 12.2329 12.0485C12.07 12.2951 11.6033 12.841 11.458 13.0083C11.3172 13.1712 11.1719 13.1933 10.9297 13.07C9.49443 12.3523 8.55225 11.7888 7.60567 10.1642C7.35471 9.73272 7.85662 9.76354 8.32331 8.83017C8.40256 8.66727 8.36293 8.52638 8.30129 8.4031C8.23966 8.27983 7.75096 7.07789 7.54843 6.58919C7.35031 6.1137 7.14779 6.17974 6.99809 6.17093C6.85721 6.16213 6.69431 6.16213 6.53141 6.16213C6.36851 6.16213 6.10434 6.22376 5.8798 6.46591C5.65527 6.71246 5.02568 7.30243 5.02568 8.50437C5.02568 9.70631 5.90182 10.8686 6.02069 11.0315C6.14397 11.1944 7.74215 13.6599 10.1945 14.721C11.7442 15.3902 12.3518 15.4474 13.1267 15.333C13.5978 15.2625 14.5708 14.743 14.7733 14.1707C14.9758 13.5983 14.9758 13.1096 14.9142 13.0083C14.8569 12.8983 14.694 12.8366 14.4519 12.7178Z" fill="#3AB137"/>
</svg>
